<svg width="1360" height="619" viewBox="0 0 1360 619" fill="none" xmlns="http://www.w3.org/2000/svg">
<g clip-path="url(#clip0_10001_76306)">
<text fill="#232323" xml:space="preserve" style="white-space: pre" font-family="FK Grotesk Neue" font-size="24" letter-spacing="-0.03em"><tspan x="0.409531" y="23.04">Feature &#38; Function Icons</tspan></text>
<rect y="42.0801" width="1360" height="1" fill="#BDBDBD"/>
<rect y="74.9248" width="1360" height="544" rx="6" fill="white"/>
<text opacity="0.7" fill="#232323" xml:space="preserve" style="white-space: pre" font-family="FK Grotesk Neue" font-size="10" letter-spacing="-0.03em"><tspan x="194.336" y="160.125">Translate</tspan></text>
<path d="M224 138.925H222V136.925H224V138.925ZM222 136.925H220V134.925H222V136.925ZM220 134.925H218V132.925H220V134.925ZM228 134.925H222V132.925H228V134.925ZM222 132.925H220V130.925H222V132.925ZM230 132.925H228V122.925H230V132.925ZM224 130.925H222V128.925H224V130.925ZM211 124.925H217V122.925H219V128.925H217V126.925H211V128.925H209V122.925H211V124.925ZM200 122.925H198V112.925H200V122.925ZM213 122.925H211V118.925H213V122.925ZM217 122.925H215V118.925H217V122.925ZM215 118.925H213V114.925H215V118.925ZM206 116.921H204V114.921H206V116.921ZM208.002 114.921H206.002V112.921H208.002V114.921ZM206 112.925H200V110.925H206V112.925ZM210.002 112.921H208.002V110.921H210.002V112.921ZM206.002 108.921H208.002V110.921H206.002V108.925H204.002V106.925H206.002V108.921Z" fill="#232323"/>
<text opacity="0.7" fill="#232323" xml:space="preserve" style="white-space: pre" font-family="FK Grotesk Neue" font-size="10" letter-spacing="-0.03em"><tspan x="321.496" y="160.125">Teleprompt</tspan></text>
<path d="M359 134.925H333V132.925H359V134.925ZM335 128.425H333V126.425H335V128.425ZM359 127.925H342V125.925H359V127.925ZM337 126.425H335V124.425H337V126.425ZM339 124.425H337V122.425H339V124.425ZM337 122.425H335V120.425H337V122.425ZM359 120.925H342V118.925H359V120.925ZM335 120.425H333V118.425H335V120.425ZM359 113.925H333V111.925H359V113.925Z" fill="#232323"/>
<text opacity="0.7" fill="#232323" xml:space="preserve" style="white-space: pre" font-family="FK Grotesk Neue" font-size="10" letter-spacing="-0.03em"><tspan x="459.404" y="160.125">Navigate</tspan></text>
<g clip-path="url(#clip1_10001_76306)">
<path d="M468 136.925H466V118.925H468V136.925ZM484 126.925H482V124.925H484V126.925ZM486 124.925H484V122.925H486V124.925ZM488 122.925H486V120.925H488V122.925ZM490 120.925H488V118.925H490V120.925ZM488 118.925H468V116.925H488V118.925ZM492 118.925H490V116.925H492V118.925ZM490 116.925H488V114.925H490V116.925ZM488 114.925H486V112.925H488V114.925ZM486 112.925H484V110.925H486V112.925ZM484 108.925V110.925H482V108.925H484Z" fill="#232323"/>
</g>
<text opacity="0.7" fill="#232323" xml:space="preserve" style="white-space: pre" font-family="FK Grotesk Neue" font-size="10" letter-spacing="-0.03em"><tspan x="594.227" y="160.125">Even AI</tspan></text>
<path d="M611 136.925H609V108.925H611V136.925ZM604.5 130.925H602.5V114.925H604.5V130.925ZM617.5 130.925H615.5V114.925H617.5V130.925ZM598 126.925H596V118.925H598V126.925ZM624 126.925H622V118.925H624V126.925Z" fill="#232323"/>
<text opacity="0.7" fill="#232323" xml:space="preserve" style="white-space: pre" font-family="FK Grotesk Neue" font-size="10" letter-spacing="-0.03em"><tspan x="704.092" y="160.125">Interface Settings</tspan></text>
<path d="M755 134.925H753V131.925H755V134.925ZM747 131.925H730V129.925H747V131.925ZM753 131.925H750V129.925H753V131.925ZM758 131.925H755V129.925H758V131.925ZM730 129.925H728V114.925H730V129.925ZM755 129.925H753V126.925H755V129.925ZM750 125.925H733V123.925H750V125.925ZM755 123.925H753V114.925H755V123.925ZM750 120.925H733V118.925H750V120.925ZM753 114.925H730V112.925H753V114.925Z" fill="#232323"/>
<text opacity="0.7" fill="#232323" xml:space="preserve" style="white-space: pre" font-family="FK Grotesk Neue" font-size="10" letter-spacing="-0.03em"><tspan x="851.128" y="160.125">QuickNote</tspan></text>
<path d="M880 136.925H864V134.925H880V136.925ZM864 134.925H862V110.925H864V134.925ZM884 132.925H882V134.925H880V130.925H884V132.925ZM886 110.925V130.925H884V110.925H886ZM876 129.925H867V127.925H876V129.925ZM880 123.925H867V121.925H880V123.925ZM881 117.925H867V115.925H881V117.925ZM884 110.925H864V108.925H884V110.925Z" fill="#232323"/>
<text opacity="0.7" fill="#232323" xml:space="preserve" style="white-space: pre" font-family="FK Grotesk Neue" font-size="10" letter-spacing="-0.03em"><tspan x="983.4" y="160.125">Transcribe</tspan></text>
<path d="M1013 129.925H1007V134.925H1010V136.925H1002V134.925H1005V129.925H999V127.925H1013V129.925ZM999 127.925H997V125.925H999V127.925ZM1015 127.925H1013V125.925H1015V127.925ZM997 125.925H995V117.925H997V125.925ZM1017 125.925H1015V117.925H1017V125.925ZM1010 124.925H1002V122.925H1010V124.925ZM1002 122.925H1000V110.925H1002V122.925ZM1012 122.925H1010V110.925H1012V122.925ZM1010 110.925H1002V108.925H1010V110.925Z" fill="#232323"/>
<text opacity="0.7" fill="#232323" xml:space="preserve" style="white-space: pre" font-family="FK Grotesk Neue" font-size="10" letter-spacing="-0.03em"><tspan x="1113.35" y="160.125">Notification</tspan></text>
<g clip-path="url(#clip2_10001_76306)">
<path d="M1140 135.925H1136V133.925H1140V135.925ZM1149 131.925H1127V129.925H1149V131.925ZM1127 129.925H1125V126.925H1127V129.925ZM1151 129.925H1149V126.925H1151V129.925ZM1129 126.925H1127V124.925H1129V126.925ZM1149 126.925H1147V124.925H1149V126.925ZM1131 124.925H1129V122.925H1131V124.925ZM1147 124.925H1145V122.925H1147V124.925ZM1133 122.925H1131V113.925H1133V122.925ZM1145 113.925V122.925H1143V113.925H1145ZM1135 113.925H1133V111.925H1135V113.925ZM1143 113.925H1141V111.925H1143V113.925ZM1141 111.925H1135V109.925H1141V111.925Z" fill="#232323"/>
</g>
<text opacity="0.7" fill="#232323" xml:space="preserve" style="white-space: pre" font-family="FK Grotesk Neue" font-size="10" letter-spacing="-0.03em"><tspan x="194.288" y="266.125">Calendar</tspan></text>
<path d="M225 241.925H203V239.925H225V241.925ZM203 221.925H225V219.925H227V239.925H225V223.925H203V239.925H201V219.925H203V221.925ZM209 235.925H207V233.925H209V235.925ZM215 235.925H213V233.925H215V235.925ZM221 235.925H219V233.925H221V235.925ZM209 229.925H207V227.925H209V229.925ZM215 229.925H213V227.925H215V229.925ZM221 229.925H219V227.925H221V229.925ZM209 217.925H219V214.925H221V217.925H225V219.925H203V217.925H207V214.925H209V217.925Z" fill="#232323"/>
<text opacity="0.7" fill="#232323" xml:space="preserve" style="white-space: pre" font-family="FK Grotesk Neue" font-size="10" letter-spacing="-0.03em"><tspan x="314.05" y="266.125">Time Counting</tspan></text>
<g clip-path="url(#clip3_10001_76306)">
<path d="M357 241.925H335V239.925H357V241.925ZM335 239.925H333V217.925H335V239.925ZM359 239.925H357V217.925H359V239.925ZM347.989 228.929H345.991V230.926H339.995V228.926H345.989V220.93H347.989V228.929ZM357 217.925H335V215.925H357V217.925Z" fill="#232323"/>
</g>
<text opacity="0.7" fill="#232323" xml:space="preserve" style="white-space: pre" font-family="FK Grotesk Neue" font-size="10" letter-spacing="-0.03em"><tspan x="463.167" y="266.125">Theme</tspan></text>
<g clip-path="url(#clip4_10001_76306)">
<path d="M479 241.925H467V239.925H479V241.925ZM467 239.925H465V227.925H467V239.925ZM481 239.925H479V227.925H481V239.925ZM484 236.925H482V234.925H484V236.925ZM486 234.925H484V222.925H486V234.925ZM489 231.925H487V229.925H489V231.925ZM491 229.925H489V217.925H491V229.925ZM479 227.925H467V225.925H479V227.925ZM472 224.925H470V222.925H472V224.925ZM484 222.925H472V220.925H484V222.925ZM477 219.925H475V217.925H477V219.925ZM489 217.925H477V215.925H489V217.925Z" fill="#232323"/>
</g>
<text opacity="0.7" fill="#232323" xml:space="preserve" style="white-space: pre" font-family="FK Grotesk Neue" font-size="10" letter-spacing="-0.03em"><tspan x="592.25" y="266.125">Weather</tspan></text>
<g clip-path="url(#clip5_10001_76306)">
<path d="M598 239.925H622V237.925H598V239.925ZM622 237.925H624V232.925H622V237.925ZM596 237.925H598V232.925H596V237.925ZM620 232.925H622V230.925H620V232.925ZM598 232.925H601V230.925H598V232.925ZM617 230.925H620V228.925H617V230.925ZM601 228.925V230.925H603V228.925H601ZM615 228.925H617V226.925H615V228.925ZM603 228.925H605V226.925H603V228.925ZM617 226.925H620V224.925H617V226.925ZM605 226.925H615V224.925H605V226.925ZM620 224.925H622V221.925H620V224.925ZM603 224.925H605V221.925H603V224.925ZM618 221.925H620V219.925H618V221.925ZM605 221.925H608V219.925H605V221.925ZM608 219.925H618V217.925H608V219.925Z" fill="#232323"/>
</g>
<text opacity="0.7" fill="#232323" xml:space="preserve" style="white-space: pre" font-family="FK Grotesk Neue" font-size="10" letter-spacing="-0.03em"><tspan x="733.248" y="266.125">Wiki</tspan></text>
<path d="M756 240.925H728V238.925H756V240.925ZM728 238.925H726V223.925H728V238.925ZM758 238.925H756V223.925H758V238.925ZM743 234.925H752V236.925H732V234.925H741V219.925H743V234.925ZM732 234.925H730V223.925H728V221.925H730V219.925H732V234.925ZM754 221.925H756V223.925H754V234.925H752V219.925H754V221.925ZM739 230.925H734V228.925H739V230.925ZM750 230.925H745V228.925H750V230.925ZM739 225.925H734V223.925H739V225.925ZM750 225.925H745V223.925H750V225.925ZM741 219.925H732V217.925H741V219.925ZM752 219.925H743V217.925H752V219.925Z" fill="#232323"/>
<text opacity="0.7" fill="#232323" xml:space="preserve" style="white-space: pre" font-family="FK Grotesk Neue" font-size="10" letter-spacing="-0.03em"><tspan x="862.046" y="266.125">Email</tspan></text>
<g clip-path="url(#clip6_10001_76306)">
<path d="M886 238.925H862V236.925H886V238.925ZM886 220.925H888V236.925H886V222.925H884V220.925H864V222.925H862V236.925H860V220.925H862V218.925H886V220.925ZM878 230.925H870V228.925H878V230.925ZM870 228.925H868V226.925H870V228.925ZM880 228.925H878V226.925H880V228.925ZM868 226.925H866V224.925H868V226.925ZM882 226.925H880V224.925H882V226.925ZM866 224.925H864V222.925H866V224.925ZM884 224.925H882V222.925H884V224.925Z" fill="#232323"/>
</g>
<text opacity="0.7" fill="#232323" xml:space="preserve" style="white-space: pre" font-family="FK Grotesk Neue" font-size="10" letter-spacing="-0.03em"><tspan x="979.155" y="266.125">Wear Detect</tspan></text>
<path d="M998 240.925H992V238.925H998V240.925ZM1020 240.925H1014V238.925H1020V240.925ZM992 238.925H990V233.925H992V238.925ZM1022 238.925H1020V233.925H1022V238.925ZM1002 234.925H996V232.925H1002V234.925ZM1016 234.925H1010V232.925H1016V234.925ZM996 232.925H994V225.925H996V232.925ZM1004 232.925H1002V229.925H1004V232.925ZM1010 232.925H1008V229.925H1010V232.925ZM1018 232.925H1016V225.925H1018V232.925ZM1008 229.925H1004V225.925H1008V229.925ZM1004 225.925H996V223.925H1004V225.925ZM1016 225.925H1008V223.925H1016V225.925ZM992 223.925H990V218.925H992V223.925ZM1022 223.925H1020V218.925H1022V223.925ZM998 218.925H992V216.925H998V218.925ZM1020 218.925H1014V216.925H1020V218.925Z" fill="#232323"/>
<text opacity="0.7" fill="#232323" xml:space="preserve" style="white-space: pre" font-family="FK Grotesk Neue" font-size="10" letter-spacing="-0.03em"><tspan x="1105.42" y="266.125">3D Facial Scan</tspan></text>
<path d="M1129 243.925H1125V241.925H1129V243.925ZM1151 243.925H1147V241.925H1151V243.925ZM1125 241.925H1123V237.925H1125V241.925ZM1153 241.925H1151V237.925H1153V241.925ZM1137 238.925H1139V237.925H1142V239.925H1139V240.925H1137V239.925H1134V237.925H1137V238.925ZM1134 237.925H1131V235.925H1134V237.925ZM1139 237.925H1137V227.925H1139V237.925ZM1145 237.925H1142V235.925H1145V237.925ZM1131 223.925H1129V233.925H1131V235.925H1129V234.925H1127V222.925H1129V221.925H1131V223.925ZM1147 222.925H1149V234.925H1147V235.925H1145V233.925H1147V223.925H1145V221.925H1147V222.925ZM1137 227.925H1134V225.925H1137V227.925ZM1142 227.925H1139V225.925H1142V227.925ZM1134 225.925H1131V223.925H1134V225.925ZM1145 225.925H1142V223.925H1145V225.925ZM1134 221.925H1131V219.925H1134V221.925ZM1145 221.925H1142V219.925H1145V221.925ZM1125 219.925H1123V215.925H1125V219.925ZM1139 217.925H1142V219.925H1139V218.925H1137V219.925H1134V217.925H1137V216.925H1139V217.925ZM1153 219.925H1151V215.925H1153V219.925ZM1129 215.925H1125V213.925H1129V215.925ZM1151 215.925H1147V213.925H1151V215.925Z" fill="#232323"/>
<text opacity="0.7" fill="#232323" xml:space="preserve" style="white-space: pre" font-family="FK Grotesk Neue" font-size="10" letter-spacing="-0.03em"><tspan x="190.051" y="372.125">Languages</tspan></text>
<g clip-path="url(#clip7_10001_76306)">
<path d="M208 340.925H200V338.925H206V336.925H200V338.925H198V334.925H206V332.925H208V340.925ZM218 340.925H212V338.925H218V340.925ZM230 340.925H224V338.925H230V340.925ZM212 330.925H218V332.925H212V338.925H210V326.925H212V330.925ZM220 338.925H218V332.925H220V338.925ZM224 338.925H222V332.925H224V338.925ZM206 332.925H200V330.925H206V332.925ZM230 332.925H224V330.925H230V332.925Z" fill="#232323"/>
</g>
<text opacity="0.7" fill="#232323" xml:space="preserve" style="white-space: pre" font-family="FK Grotesk Neue" font-size="10" letter-spacing="-0.03em"><tspan x="323.425" y="372.125">Voice Print</tspan></text>
<g clip-path="url(#clip8_10001_76306)">
<path d="M339 348.925H334V346.925H339V348.925ZM358 348.925H353V346.925H358V348.925ZM334 346.925H332V341.925H334V346.925ZM360 346.925H358V341.925H360V346.925ZM347 343.925H345V325.925H347V343.925ZM341 339.925H339V329.925H341V339.925ZM353 339.925H351V329.925H353V339.925ZM335 336.925H333V332.925H335V336.925ZM359 336.925H357V332.925H359V336.925ZM334 327.925H332V322.925H334V327.925ZM360 327.925H358V322.925H360V327.925ZM339 322.925H334V320.925H339V322.925ZM358 322.925H354V320.925H358V322.925Z" fill="#232323"/>
</g>
<text opacity="0.7" fill="#232323" xml:space="preserve" style="white-space: pre" font-family="FK Grotesk Neue" font-size="10" letter-spacing="-0.03em"><tspan x="446.452" y="372.125">HeadUp Angle</tspan></text>
<g clip-path="url(#clip9_10001_76306)">
<path d="M492 345.925H466V343.925H492V345.925ZM466 343.925H464V341.925H466V343.925ZM482 342.925H480V340.925H482V342.925ZM468 341.925H466V339.925H468V341.925ZM470 339.925H468V337.925H470V339.925ZM480 339.925H478V337.925H480V339.925ZM472 337.925H470V335.925H472V337.925ZM478 336.925H476V334.925H478V336.925ZM474 335.925H472V333.925H474V335.925ZM476 333.925H474V331.925H476V333.925ZM478 331.925H476V329.925H478V331.925ZM480 329.925H478V327.925H480V329.925ZM482 327.925H480V325.925H482V327.925ZM484 325.925H482V323.925H484V325.925ZM486 323.925H484V321.925H486V323.925Z" fill="#232323"/>
</g>
<text opacity="0.7" fill="#232323" xml:space="preserve" style="white-space: pre" font-family="FK Grotesk Neue" font-size="10" letter-spacing="-0.03em"><tspan x="603.071" y="372.125">EIS</tspan></text>
<g clip-path="url(#clip10_10001_76306)">
<path d="M609.009 350.916L607.009 350.925L607 348.925L609 348.916L609.009 350.916ZM613.009 350.916L611.009 350.925L611 348.925L613 348.916L613.009 350.916ZM607.009 348.916L605.009 348.925L605 346.925L607 346.916L607.009 348.916ZM611.009 348.916L609.009 348.925L609 346.925L611 346.916L611.009 348.916ZM615.009 348.916L613.009 348.925L613 346.925L615 346.916L615.009 348.916ZM617 343.925H603V341.925H617V343.925ZM603 341.925H601V327.925H603V341.925ZM619 341.925H617V327.925H619V341.925ZM612.018 336.906L608.009 336.925L607.991 332.934L612 332.916L612.018 336.906ZM617 327.925H603V325.925H617V327.925ZM607.009 322.915L605.01 322.925L605 320.925L607 320.916L607.009 322.915ZM611.009 322.915L609.01 322.925L609 320.925L611 320.916L611.009 322.915ZM615.009 322.915L613.01 322.925L613 320.925L615 320.916L615.009 322.915ZM609.009 320.915L607.01 320.925L607 318.925L609 318.916L609.009 320.915ZM613.009 320.915L611.01 320.925L611 318.925L613 318.916L613.009 320.915Z" fill="#232323"/>
</g>
<text opacity="0.7" fill="#232323" xml:space="preserve" style="white-space: pre" font-family="FK Grotesk Neue" font-size="10" letter-spacing="-0.03em"><tspan x="726.167" y="372.125">Privacy</tspan></text>
<path d="M744 349.925H740V347.925H744V349.925ZM740 347.925H737V345.925H740V347.925ZM747 347.925H744V345.925H747V347.925ZM737 345.925H735V343.925H737V345.925ZM749 345.925H747V343.925H749V345.925ZM735 343.925H733V340.925H735V343.925ZM751 343.925H749V340.925H751V343.925ZM733 340.925H731V337.925H733V340.925ZM744.5 336.925H743V340.925H741V336.925H739.5V334.925H744.5V336.925ZM753 340.925H751V337.925H753V340.925ZM731 337.925H729V325.925H731V337.925ZM755 337.925H753V325.925H755V337.925ZM739.5 334.925H737.5V329.925H739.5V334.925ZM746.5 334.925H744.5V329.925H746.5V334.925ZM744.5 329.925H739.5V327.925H744.5V329.925ZM734 325.925H731V323.925H734V325.925ZM753 325.925H750V323.925H753V325.925ZM738 323.925H734V321.925H738V323.925ZM750 323.925H746V321.925H750V323.925ZM746 321.925H738V319.925H746V321.925Z" fill="#232323"/>
<text opacity="0.7" fill="#232323" xml:space="preserve" style="white-space: pre" font-family="FK Grotesk Neue" font-size="10" letter-spacing="-0.03em"><tspan x="841.092" y="372.125">Access Control</tspan></text>
<g clip-path="url(#clip11_10001_76306)">
<path d="M884 347.925H864V345.925H884V347.925ZM864 345.925H862V332.925H864V345.925ZM886 345.925H884V332.925H886V345.925ZM875 342.925H873V340.925H875V342.925ZM873 340.925H871V337.925H873V340.925ZM877 340.925H875V337.925H877V340.925ZM875 337.925H873V335.925H875V337.925ZM870 330.925H884V332.925H864V330.925H868V323.925H870V330.925ZM880 327.925H878V323.925H880V327.925ZM878 323.925H870V321.925H878V323.925Z" fill="#232323"/>
</g>
<text opacity="0.7" fill="#232323" xml:space="preserve" style="white-space: pre" font-family="FK Grotesk Neue" font-size="10" letter-spacing="-0.03em"><tspan x="986.379" y="372.125">Message</tspan></text>
<g clip-path="url(#clip12_10001_76306)">
<path d="M995 349.925H993V347.925H995V349.925ZM997 347.925H995V345.925H997V347.925ZM995 345.925H993V323.925H995V345.925ZM999 345.925H997V343.925H999V345.925ZM1017 343.925H999V341.925H1017V343.925ZM1019 323.925V341.925H1017V323.925H1019ZM1013 336.925H999V334.925H1013V336.925ZM1013 330.925H999V328.925H1013V330.925ZM1017 323.925H995V321.925H1017V323.925Z" fill="#232323"/>
</g>
<text opacity="0.7" fill="#232323" xml:space="preserve" style="white-space: pre" font-family="FK Grotesk Neue" font-size="10" letter-spacing="-0.03em"><tspan x="1115.1" y="372.125">Phone Call</tspan></text>
<g clip-path="url(#clip13_10001_76306)">
<path d="M1138 348.925H1128V346.925H1138V348.925ZM1128 346.925H1126V339.925H1128V346.925ZM1141 346.925H1138V344.925H1141V346.925ZM1144 344.925H1141V342.925H1144V344.925ZM1146 342.925H1144V340.925H1146V342.925ZM1138 341.925H1135V339.925H1138V341.925ZM1148 340.925H1146V337.925H1148V340.925ZM1135 339.925H1128V337.925H1135V339.925ZM1141 339.925H1138V337.925H1141V339.925ZM1143 337.925H1141V334.925H1143V337.925ZM1150 337.925H1148V334.925H1150V337.925ZM1135 334.925H1133V331.925H1135V334.925ZM1145 334.925H1143V331.925H1145V334.925ZM1152 334.925H1150V324.925H1152V334.925ZM1130 333.925H1128V328.925H1130V333.925ZM1125 332.925H1123V326.925H1125V332.925ZM1138 331.925H1135V329.925H1138V331.925ZM1143 331.925H1141V324.925H1143V331.925ZM1132 328.925H1130V326.925H1132V328.925ZM1127 326.925H1125V323.925H1127V326.925ZM1137 326.925H1132V324.925H1137V326.925ZM1150 324.925H1143V322.925H1150V324.925ZM1130 323.925H1127V321.925H1130V323.925ZM1136 319.925V321.925H1130V319.925H1136Z" fill="#232323"/>
</g>
<text opacity="0.7" fill="#232323" xml:space="preserve" style="white-space: pre" font-family="FK Grotesk Neue" font-size="10" letter-spacing="-0.03em"><tspan x="202.204" y="478.125">InBox</tspan></text>
<g clip-path="url(#clip14_10001_76306)">
<path d="M203 455.925H201V453.925H203V455.925ZM205 453.925H203V451.925H205V453.925ZM203 451.925H201V429.925H203V451.925ZM207 451.925H205V449.925H207V451.925ZM225 449.925H207V447.925H225V449.925ZM227 447.925H225V429.925H227V447.925ZM215 444.925H213V442.925H215V444.925ZM213 442.925H211V440.925H213V442.925ZM217 442.925H215V440.925H217V442.925ZM211 440.925H209V438.925H211V440.925ZM215 440.925H213V427.925H215V440.925ZM219 440.925H217V438.925H219V440.925ZM209 438.925H207V436.925H209V438.925ZM221 438.925H219V436.925H221V438.925ZM211 429.925H203V427.925H211V429.925ZM225 429.925H217V427.925H225V429.925Z" fill="#232323"/>
</g>
<text opacity="0.7" fill="#232323" xml:space="preserve" style="white-space: pre" font-family="FK Grotesk Neue" font-size="10" letter-spacing="-0.03em"><tspan x="334.357" y="478.125">News</tspan></text>
<g clip-path="url(#clip15_10001_76306)">
<path d="M355.5 451.925V453.925H334.5V451.925H355.5ZM355.5 447.925H353.5V429.925H334.5V451.925H332.5V427.925H355.5V447.925ZM357.5 451.925H355.5V449.925H357.5V451.925ZM359.5 449.925H357.5V433.925H359.5V449.925ZM350.5 447.925H337.5V445.925H350.5V447.925ZM350.5 441.925H337.5V439.925H350.5V441.925ZM340.5 435.925H337.5V433.925H340.5V435.925ZM350.5 435.925H343.5V433.925H350.5V435.925Z" fill="#232323"/>
</g>
<text opacity="0.7" fill="#232323" xml:space="preserve" style="white-space: pre" font-family="FK Grotesk Neue" font-size="10" letter-spacing="-0.03em"><tspan x="463.469" y="478.125">Stocks</tspan></text>
<g clip-path="url(#clip16_10001_76306)">
<path d="M467 452.925H465V442.925H467V452.925ZM473 452.925H471V446.925H473V452.925ZM479 452.925H477V442.925H479V452.925ZM485 452.925H483V438.925H485V452.925ZM491 434.925V452.925H489V434.925H491ZM473.5 442.925H470.5V440.925H473.5V442.925ZM470.5 440.925H467.5V438.925H470.5V440.925ZM476.5 440.925H473.5V438.925H476.5V440.925ZM467.5 438.925H464.5V436.925H467.5V438.925ZM479.5 438.925H476.5V436.925H479.5V438.925ZM482.5 436.925H479.5V434.925H482.5V436.925ZM485.5 434.925H482.5V432.925H485.5V434.925ZM488.5 432.925H485.5V430.925H488.5V432.925ZM491.5 430.925H488.5V428.925H491.5V430.925Z" fill="#232323"/>
</g>
<text opacity="0.7" fill="#232323" xml:space="preserve" style="white-space: pre" font-family="FK Grotesk Neue" font-size="10" letter-spacing="-0.03em"><tspan x="588.399" y="478.125">Feedback</tspan></text>
<path d="M621 453.925V451.925H622V437.925H619V451.925H620V453.925H621ZM598 454.925H596V452.925H598V454.925ZM600 452.925H598V450.925H600V452.925ZM598 450.925H596V428.925H598V450.925ZM602 450.925H600V448.925H602V450.925ZM614 448.925H602V446.925H614V448.925ZM614 441.925H602V439.925H614V441.925ZM614 435.925H602V433.925H614V435.925ZM619 435.925H622V433.925H619V435.925ZM622 428.925H598V426.925H622V428.925ZM622 455.925H619V453.925H618V451.925H617V433.925H618V431.925H623V433.925H624V451.925H623V453.925H622V455.925Z" fill="#232323"/>
<text opacity="0.7" fill="#232323" xml:space="preserve" style="white-space: pre" font-family="FK Grotesk Neue" font-size="10" letter-spacing="-0.03em"><tspan x="722.409" y="478.125">QR Code</tspan></text>
<path d="M741 451.925H731V441.925H741V451.925ZM746 451.925H744V449.925H746V451.925ZM751 451.925H749V449.925H751V451.925ZM733 449.925H739V443.925H733V449.925ZM747 448.925H745V446.925H747V448.925ZM753 448.925H751V446.925H753V448.925ZM750 446.925H748V444.925H750V446.925ZM746 444.925H744V442.925H746V444.925ZM753 444.925H751V442.925H753V444.925ZM741 439.925H731V429.925H741V439.925ZM753 439.925H743V429.925H753V439.925ZM733 437.925H739V431.925H733V437.925ZM745 437.925H751V431.925H745V437.925Z" fill="#232323"/>
<text opacity="0.7" fill="#232323" xml:space="preserve" style="white-space: pre" font-family="FK Grotesk Neue" font-size="10" letter-spacing="-0.03em"><tspan x="834.471" y="478.125">Learn and Explore</tspan></text>
<path d="M873 451.925H862V449.925H873V451.925ZM886 451.925H875V449.925H886V451.925ZM862 449.925H860V431.925H862V449.925ZM875 449.925H873V431.925H875V449.925ZM888 449.925H886V434.925H888V449.925ZM882 430.925H884V432.925H886V434.925H882V431.925H875V429.925H882V430.925ZM873 431.925H862V429.925H873V431.925Z" fill="#232323"/>
<text opacity="0.7" fill="#232323" xml:space="preserve" style="white-space: pre" font-family="FK Grotesk Neue" font-size="10" letter-spacing="-0.03em"><tspan x="988.033" y="478.125">Services</tspan></text>
<path d="M1008 455.925H1004V453.925H1008V455.925ZM1004 453.925H1002V451.925H1004V453.925ZM1017 453.925H1008V451.925H1017V453.925ZM1008 451.925H1004V449.925H1008V451.925ZM1019 451.925H1017V443.925H1019V451.925ZM995 445.925H993V443.925H995V445.925ZM993 443.925H991V436.925H993V443.925ZM997 443.925H995V436.925H993V434.925H995V431.925H997V443.925ZM1017 434.925H1019V436.925H1017V443.925H1015V431.925H1017V434.925ZM1021 443.925H1019V436.925H1021V443.925ZM999 431.925H997V429.925H999V431.925ZM1015 431.925H1013V429.925H1015V431.925ZM1013 429.925H999V427.925H1013V429.925Z" fill="#232323"/>
<text opacity="0.7" fill="#232323" xml:space="preserve" style="white-space: pre" font-family="FK Grotesk Neue" font-size="10" letter-spacing="-0.03em"><tspan x="1113.43" y="478.125">Direct Push</tspan></text>
<path d="M1150 450.925H1126V448.925H1150V450.925ZM1126 448.925H1124V432.925H1126V448.925ZM1152 448.925H1150V432.925H1152V448.925ZM1139 444.925H1137V442.925H1139V444.925ZM1137 442.925H1135V440.925H1137V442.925ZM1141 442.925H1139V440.925H1141V442.925ZM1135 440.925H1133V438.925H1135V440.925ZM1139 440.925H1137V428.925H1139V440.925ZM1143 440.925H1141V438.925H1143V440.925ZM1133 438.925H1131V436.925H1133V438.925ZM1145 438.925H1143V436.925H1145V438.925ZM1133 432.925H1126V430.925H1133V432.925ZM1150 432.925H1143V430.925H1150V432.925Z" fill="#232323"/>
<text opacity="0.7" fill="#232323" xml:space="preserve" style="white-space: pre" font-family="FK Grotesk Neue" font-size="10" letter-spacing="-0.03em"><tspan x="197.257" y="584.125">Camera</tspan></text>
<path d="M225 556.925H203V554.925H225V556.925ZM203 554.925H201V540.925H203V554.925ZM227 554.925H225V540.925H227V554.925ZM217 552.925H211V550.925H217V552.925ZM211 550.925H209V544.925H211V550.925ZM219 550.925H217V544.925H219V550.925ZM207 544.925H205V542.925H207V544.925ZM217 544.925H211V542.925H217V544.925ZM209 540.925H203V538.925H209V540.925ZM225 540.925H219V538.925H225V540.925ZM219 538.925H209V536.925H219V538.925Z" fill="#232323"/>
<text opacity="0.7" fill="#232323" xml:space="preserve" style="white-space: pre" font-family="FK Grotesk Neue" font-size="10" letter-spacing="-0.03em"><tspan x="307.318" y="584.125">Phone Voice Input</tspan></text>
<path d="M347 560.925H335V558.925H347V560.925ZM335 558.925H333V534.925H335V558.925ZM349 558.925H347V534.925H349V558.925ZM344 556.925H338V554.925H344V556.925ZM359 542.925H358V545.925H357V547.925H358V550.925H359V553.925H357V550.925H356V547.925H355V545.925H356V542.925H357V539.925H359V542.925ZM342 551.925H340V549.925H342V551.925ZM354 544.925H353V548.925H354V551.925H352V548.925H351V544.925H352V541.925H354V544.925ZM340 549.925H338V547.925H340V549.925ZM344 549.925H342V547.925H344V549.925ZM338 547.925H336V545.925H338V547.925ZM342 547.925H340V541.925H342V547.925ZM346 547.925H344V545.925H346V547.925ZM344 535.925H338V534.925H335V532.925H347V534.925H344V535.925Z" fill="#232323"/>
<text opacity="0.7" fill="#232323" xml:space="preserve" style="white-space: pre" font-family="FK Grotesk Neue" font-size="10" letter-spacing="-0.03em"><tspan x="460.245" y="584.125">Account</tspan></text>
<g clip-path="url(#clip17_10001_76306)">
<path d="M469 559.925H467V551.925H469V559.925ZM489 559.925H487V551.925H489V559.925ZM471 551.925H469V549.925H471V551.925ZM487 551.925H485V549.925H487V551.925ZM485 549.925H471V547.925H485V549.925ZM482 545.925H474V543.925H482V545.925ZM474 543.925H472V535.925H474V543.925ZM484 543.925H482V535.925H484V543.925ZM482 535.925H474V533.925H482V535.925Z" fill="#232323"/>
</g>
<text opacity="0.7" fill="#232323" xml:space="preserve" style="white-space: pre" font-family="FK Grotesk Neue" font-size="10" letter-spacing="-0.03em"><tspan x="581.154" y="584.125">Personal Info.</tspan></text>
<g clip-path="url(#clip18_10001_76306)">
<path d="M601 559.925H599V551.925H601V559.925ZM621 559.925H619V551.925H621V559.925ZM603 551.925H601V549.925H603V551.925ZM619 551.925H617V549.925H619V551.925ZM617 549.925H603V547.925H617V549.925ZM614 545.925H606V543.925H614V545.925ZM606 543.925H604V535.925H606V543.925ZM616 543.925H614V535.925H616V543.925ZM622 538.925H620V536.925H622V538.925ZM620 536.925H618V534.925H620V536.925ZM624 536.925H622V534.925H624V536.925ZM614 535.925H606V533.925H614V535.925ZM622 534.925H620V532.925H622V534.925Z" fill="#232323"/>
</g>
<text opacity="0.7" fill="#232323" xml:space="preserve" style="white-space: pre" font-family="FK Grotesk Neue" font-size="10" letter-spacing="-0.03em"><tspan x="729.492" y="584.125">Study</tspan></text>
<g clip-path="url(#clip19_10001_76306)">
<path d="M737 535.925V552.925H751V535.925H737ZM733 553.925H735V536.925H733V553.925ZM748 549.925H741V547.925H748V549.925ZM748 545.925H741V543.925H748V545.925ZM748 540.925H741V538.925H748V540.925ZM753 554.925H735V555.925H733V556.925H735V557.925H751V555.925H753V558.925H751V559.925H735V558.925H733V557.925H731V535.925H733V534.925H735V533.925H753V554.925Z" fill="#232323"/>
</g>
<text opacity="0.7" fill="#232323" xml:space="preserve" style="white-space: pre" font-family="FK Grotesk Neue" font-size="10" letter-spacing="-0.03em"><tspan x="852.253" y="584.125">Screen off</tspan></text>
<rect x="885" y="538.458" width="2" height="16" fill="#232323"/>
<rect x="863" y="536.458" width="16" height="2" fill="#232323"/>
<rect x="861" y="538.458" width="2" height="16" fill="#232323"/>
<rect x="869" y="554.458" width="16" height="2" fill="#232323"/>
<rect x="874" y="544.458" width="2" height="2" fill="#232323"/>
<rect x="876" y="542.458" width="2" height="2" fill="#232323"/>
<rect x="878" y="540.458" width="2" height="2" fill="#232323"/>
<rect x="880" y="538.458" width="2" height="2" fill="#232323"/>
<rect x="882" y="536.458" width="2" height="2" fill="#232323"/>
<rect x="872" y="546.458" width="2" height="2" fill="#232323"/>
<rect x="870" y="548.458" width="2" height="2" fill="#232323"/>
<rect x="868" y="550.458" width="2" height="2" fill="#232323"/>
<rect x="866" y="552.458" width="2" height="2" fill="#232323"/>
<rect x="864" y="554.458" width="2" height="2" fill="#232323"/>
<text opacity="0.7" fill="#232323" xml:space="preserve" style="white-space: pre" font-family="FK Grotesk Neue" font-size="10" letter-spacing="-0.03em"><tspan x="993.369" y="584.125">Menu</tspan></text>
<path d="M1004 557.458H993V555.458H1004V557.458ZM993 555.458H991V537.458H993V555.458ZM1006 555.458H1004V537.458H1006V555.458ZM1019 555.458H1007V553.458H1019V555.458ZM1021 553.458H1019V539.458H1021V553.458ZM1002 552.458H995V550.458H1002V552.458ZM1002 547.458H995V545.458H1002V547.458ZM1002 542.458H995V540.458H1002V542.458ZM1019 539.458H1007V537.458H1019V539.458ZM1004 537.458H993V535.458H1004V537.458Z" fill="#232323"/>
<text opacity="0.7" fill="#232323" xml:space="preserve" style="white-space: pre" font-family="FK Grotesk Neue" font-size="10" letter-spacing="-0.03em"><tspan x="1127.25" y="584.125">Scan</tspan></text>
<path d="M1131 560.458H1126V558.458H1131V560.458ZM1150 560.458H1145V558.458H1150V560.458ZM1126 558.458H1124V553.458H1126V558.458ZM1152 558.458H1150V553.458H1152V558.458ZM1152 547.458H1124V545.458H1152V547.458ZM1126 539.458H1124V534.458H1126V539.458ZM1152 539.458H1150V534.458H1152V539.458ZM1131 534.458H1126V532.458H1131V534.458ZM1150 534.458H1146V532.458H1150V534.458Z" fill="#232323"/>
</g>
<defs>
<clipPath id="clip0_10001_76306">
<rect width="1360" height="618.925" fill="white"/>
</clipPath>
<clipPath id="clip1_10001_76306">
<rect width="32" height="32" fill="white" transform="translate(462 106.925)"/>
</clipPath>
<clipPath id="clip2_10001_76306">
<rect width="32" height="32" fill="white" transform="translate(1122 106.925)"/>
</clipPath>
<clipPath id="clip3_10001_76306">
<rect width="32" height="32" fill="white" transform="translate(330 212.925)"/>
</clipPath>
<clipPath id="clip4_10001_76306">
<rect width="32" height="32" fill="white" transform="translate(462 212.925)"/>
</clipPath>
<clipPath id="clip5_10001_76306">
<rect width="32" height="32" fill="white" transform="matrix(-1 0 0 1 626 212.925)"/>
</clipPath>
<clipPath id="clip6_10001_76306">
<rect width="32" height="32" fill="white" transform="translate(858 212.925)"/>
</clipPath>
<clipPath id="clip7_10001_76306">
<rect width="32" height="32" fill="white" transform="translate(198 318.925)"/>
</clipPath>
<clipPath id="clip8_10001_76306">
<rect width="32" height="32" fill="white" transform="translate(330 318.925)"/>
</clipPath>
<clipPath id="clip9_10001_76306">
<rect width="32" height="32" fill="white" transform="translate(462 318.925)"/>
</clipPath>
<clipPath id="clip10_10001_76306">
<rect width="32" height="32" fill="white" transform="translate(594 318.925)"/>
</clipPath>
<clipPath id="clip11_10001_76306">
<rect width="32" height="32" fill="white" transform="translate(858 318.925)"/>
</clipPath>
<clipPath id="clip12_10001_76306">
<rect width="32" height="32" fill="white" transform="translate(990 318.925)"/>
</clipPath>
<clipPath id="clip13_10001_76306">
<rect width="32" height="32" fill="white" transform="translate(1122 318.925)"/>
</clipPath>
<clipPath id="clip14_10001_76306">
<rect width="32" height="32" fill="white" transform="translate(198 424.925)"/>
</clipPath>
<clipPath id="clip15_10001_76306">
<rect width="32" height="32" fill="white" transform="translate(330 424.925)"/>
</clipPath>
<clipPath id="clip16_10001_76306">
<rect width="32" height="32" fill="white" transform="translate(462 424.925)"/>
</clipPath>
<clipPath id="clip17_10001_76306">
<rect width="32" height="32" fill="white" transform="translate(462 530.925)"/>
</clipPath>
<clipPath id="clip18_10001_76306">
<rect width="32" height="32" fill="white" transform="translate(594 530.925)"/>
</clipPath>
<clipPath id="clip19_10001_76306">
<rect width="32" height="32" fill="white" transform="translate(726 530.925)"/>
</clipPath>
</defs>
</svg>
