<svg width="1360" height="431" viewBox="0 0 1360 431" fill="none" xmlns="http://www.w3.org/2000/svg">
<g clip-path="url(#clip0_10001_76473)">
<text fill="#232323" xml:space="preserve" style="white-space: pre" font-family="FK Grotesk Neue" font-size="24" letter-spacing="-0.03em"><tspan x="0.292656" y="23.04">Guide System</tspan></text>
<rect y="42.1553" width="1360" height="1" fill="#BDBDBD"/>
<rect y="74.9248" width="1360" height="356" rx="6" fill="white"/>
<g clip-path="url(#clip1_10001_76473)">
<path d="M231 127.925L231 129.925L229 129.925L229 127.925L231 127.925ZM229 125.925L229 127.925L227 127.925L227 125.925L229 125.925ZM227 123.925L227 125.925L225 125.925L225 123.925L227 123.925ZM225 121.925L225 123.925L223 123.925L223 121.925L225 121.925ZM223 119.925L223 121.925L221 121.925L221 119.925L223 119.925ZM221 117.925L221 119.925L219 119.925L219 117.925L221 117.925ZM217 115.925L219 115.925L219 117.925L217 117.925L217 115.925ZM217 117.925L217 119.925L215 119.925L215 117.925L217 117.925ZM215 119.925L215 121.925L213 121.925L213 119.925L215 119.925ZM213 121.925L213 123.925L211 123.925L211 121.925L213 121.925ZM211 123.925L211 125.925L209 125.925L209 123.925L211 123.925ZM209 125.925L209 127.925L207 127.925L207 125.925L209 125.925ZM207 127.925L207 129.925L205 129.925L205 127.925L207 127.925Z" fill="#232323"/>
</g>
<text opacity="0.7" fill="#232323" xml:space="preserve" style="white-space: pre" font-family="FK Grotesk Neue" font-size="10" letter-spacing="-0.03em"><tspan x="180.454" y="160.125">Chevron - Drill-up</tspan></text>
<g clip-path="url(#clip2_10001_76473)">
<path d="M343 126.925H341V124.925H343V126.925ZM359 126.925H357V124.925H359V126.925ZM345 124.925H343V122.925H345V124.925ZM357 124.925H355V122.925H357V124.925ZM347 122.925H345V120.925H347V122.925ZM355 122.925H353V120.925H355V122.925ZM349 120.925H347V118.925H349V120.925ZM353 120.925H351V118.925H353V120.925ZM351 116.925V118.925H349V116.925H351Z" fill="#232323"/>
</g>
<text opacity="0.7" fill="#232323" xml:space="preserve" style="white-space: pre" font-family="FK Grotesk Neue" font-size="10" letter-spacing="-0.03em"><tspan x="298.113" y="160.125">Chevron_small - Drill-up</tspan></text>
<g clip-path="url(#clip3_10001_76473)">
<path d="M483 127.925V129.925H481V127.925H483ZM481 127.925H479V125.925H481V127.925ZM485 127.925H483V125.925H485V127.925ZM479 125.925H477V123.925H479V125.925ZM487 125.925H485V123.925H487V125.925ZM477 123.925H475V121.925H477V123.925ZM489 123.925H487V121.925H489V123.925ZM475 121.925H473V119.925H475V121.925ZM491 121.925H489V119.925H491V121.925ZM473 119.925H471V117.925H473V119.925ZM493 119.925H491V117.925H493V119.925ZM471 117.925H469V115.925H471V117.925ZM495 117.925H493V115.925H495V117.925Z" fill="#232323"/>
</g>
<text opacity="0.7" fill="#232323" xml:space="preserve" style="white-space: pre" font-family="FK Grotesk Neue" font-size="10" letter-spacing="-0.03em"><tspan x="438.167" y="160.125">Chevron - Drill-down</tspan></text>
<g clip-path="url(#clip4_10001_76473)">
<path d="M615 126.925V128.925H613V126.925H615ZM613 126.925H611V124.925H613V126.925ZM617 126.925H615V124.925H617V126.925ZM611 124.925H609V122.925H611V124.925ZM619 124.925H617V122.925H619V124.925ZM609 122.925H607V120.925H609V122.925ZM621 122.925H619V120.925H621V122.925ZM607 120.925H605V118.925H607V120.925ZM623 120.925H621V118.925H623V120.925Z" fill="#232323"/>
</g>
<text opacity="0.7" fill="#232323" xml:space="preserve" style="white-space: pre" font-family="FK Grotesk Neue" font-size="10" letter-spacing="-0.03em"><tspan x="556.326" y="160.125">Chevron_small - Drill-down</tspan></text>
<g clip-path="url(#clip5_10001_76473)">
<path d="M753 135.925H751V133.925H753V135.925ZM751 133.925H749V131.925H751V133.925ZM749 131.925H747V129.925H749V131.925ZM747 129.925H745V127.925H747V129.925ZM745 127.925H743V125.925H745V127.925ZM743 125.925H741V123.925H743V125.925ZM741 121.925V123.925H739V121.925H741ZM743 121.925H741V119.925H743V121.925ZM745 119.925H743V117.925H745V119.925ZM747 117.925H745V115.925H747V117.925ZM749 115.925H747V113.925H749V115.925ZM751 113.925H749V111.925H751V113.925ZM753 111.925H751V109.925H753V111.925Z" fill="#232323"/>
</g>
<text opacity="0.7" fill="#232323" xml:space="preserve" style="white-space: pre" font-family="FK Grotesk Neue" font-size="10" letter-spacing="-0.03em"><tspan x="712.418" y="160.125">Chevron - Back</tspan></text>
<path d="M882 131.925H880V129.925H882V131.925ZM880 129.925H878V127.925H880V129.925ZM878 127.925H876V125.925H878V127.925ZM876 125.925H874V123.925H876V125.925ZM874 121.925V123.925H872V121.925H874ZM876 121.925H874V119.925H876V121.925ZM878 119.925H876V117.925H878V119.925ZM880 117.925H878V115.925H880V117.925ZM882 115.925H880V113.925H882V115.925Z" fill="#232323"/>
<text opacity="0.7" fill="#232323" xml:space="preserve" style="white-space: pre" font-family="FK Grotesk Neue" font-size="10" letter-spacing="-0.03em"><tspan x="831.077" y="160.125">Chevron_small - Back</tspan></text>
<g clip-path="url(#clip6_10001_76473)">
<path d="M1005 135.925H1003V133.925H1005V135.925ZM1007 133.925H1005V131.925H1007V133.925ZM1009 131.925H1007V129.925H1009V131.925ZM1011 129.925H1009V127.925H1011V129.925ZM1013 127.925H1011V125.925H1013V127.925ZM1015 125.925H1013V123.925H1015V125.925ZM1017 121.925V123.925H1015V121.925H1017ZM1015 121.925H1013V119.925H1015V121.925ZM1013 119.925H1011V117.925H1013V119.925ZM1011 117.925H1009V115.925H1011V117.925ZM1009 115.925H1007V113.925H1009V115.925ZM1007 113.925H1005V111.925H1007V113.925ZM1005 111.925H1003V109.925H1005V111.925Z" fill="#232323"/>
</g>
<text opacity="0.7" fill="#232323" xml:space="preserve" style="white-space: pre" font-family="FK Grotesk Neue" font-size="10" letter-spacing="-0.03em"><tspan x="974.354" y="160.125">Chevron - Drill-in</tspan></text>
<path d="M1140 131.925H1138V129.925H1140V131.925ZM1142 129.925H1140V127.925H1142V129.925ZM1144 127.925H1142V125.925H1144V127.925ZM1146 125.925H1144V123.925H1146V125.925ZM1148 121.925V123.925H1146V121.925H1148ZM1146 121.925H1144V119.925H1146V121.925ZM1144 119.925H1142V117.925H1144V119.925ZM1142 117.925H1140V115.925H1142V117.925ZM1140 115.925H1138V113.925H1140V115.925Z" fill="#232323"/>
<text opacity="0.7" fill="#232323" xml:space="preserve" style="white-space: pre" font-family="FK Grotesk Neue" font-size="10" letter-spacing="-0.03em"><tspan x="1092.01" y="160.125">Chevron_small - Drill-in</tspan></text>
<text opacity="0.7" fill="#232323" xml:space="preserve" style="white-space: pre" font-family="FK Grotesk Neue" font-size="10" letter-spacing="-0.03em"><tspan x="207.451" y="266.125">Back</tspan></text>
<g clip-path="url(#clip7_10001_76473)">
<path d="M218 241.925H216V239.925H218V241.925ZM216 239.925H214V237.925H216V239.925ZM214 237.925H212V235.925H214V237.925ZM212 235.925H210V233.925H212V235.925ZM210 233.925H208V231.925H210V233.925ZM208 231.925H206V229.925H208V231.925ZM206 227.925V229.925H204V227.925H206ZM232 229.925H208V227.925H232V229.925ZM208 227.925H206V225.925H208V227.925ZM210 225.925H208V223.925H210V225.925ZM212 223.925H210V221.925H212V223.925ZM214 221.925H212V219.925H214V221.925ZM216 219.925H214V217.925H216V219.925ZM218 217.925H216V215.925H218V217.925Z" fill="#232323"/>
</g>
<text opacity="0.7" fill="#232323" xml:space="preserve" style="white-space: pre" font-family="FK Grotesk Neue" font-size="10" letter-spacing="-0.03em"><tspan x="343.485" y="266.125">Go</tspan></text>
<g clip-path="url(#clip8_10001_76473)">
<path d="M352 241.925H350V239.925H352V241.925ZM354 239.925H352V237.925H354V239.925ZM356 237.925H354V235.925H356V237.925ZM358 235.925H356V233.925H358V235.925ZM360 233.925H358V231.925H360V233.925ZM362 231.925H360V229.925H362V231.925ZM360 229.925H336V227.925H360V229.925ZM364 227.925V229.925H362V227.925H364ZM362 227.925H360V225.925H362V227.925ZM360 225.925H358V223.925H360V225.925ZM358 223.925H356V221.925H358V223.925ZM356 221.925H354V219.925H356V221.925ZM354 219.925H352V217.925H354V219.925ZM352 217.925H350V215.925H352V217.925Z" fill="#232323"/>
</g>
<text opacity="0.7" fill="#232323" xml:space="preserve" style="white-space: pre" font-family="FK Grotesk Neue" font-size="10" letter-spacing="-0.03em"><tspan x="461.404" y="266.125">Maximize</tspan></text>
<g clip-path="url(#clip9_10001_76473)">
<path d="M482 242.925H470V240.925H482V242.925ZM470 240.925H468V228.925H470V240.925ZM474 238.925H472V236.925H474V238.925ZM476 236.925H474V234.925H476V236.925ZM478 234.925H476V232.925H478V234.925ZM480 232.925H478V230.925H480V232.925ZM496 216.925V228.925H494V216.925H496ZM486 226.925H484V224.925H486V226.925ZM488.333 224.925H486.333V222.925H488.333V224.925ZM490.333 222.925H488.333V220.925H490.333V222.925ZM492.333 220.925H490.333V218.925H492.333V220.925ZM494 216.925H482V214.925H494V216.925Z" fill="#232323"/>
</g>
<text opacity="0.7" fill="#232323" xml:space="preserve" style="white-space: pre" font-family="FK Grotesk Neue" font-size="10" letter-spacing="-0.03em"><tspan x="595.321" y="266.125">Minimize</tspan></text>
<path d="M614 242.925H612V230.925H614V242.925ZM604 240.925H602V238.925H604V240.925ZM606 238.925H604V236.925H606V238.925ZM608 236.925H606V234.925H608V236.925ZM610 234.925H608V232.925H610V234.925ZM612 230.925H600V228.925H612V230.925ZM628 228.925H616V226.925H628V228.925ZM616 214.925V226.925H614V214.925H616ZM619.667 224.925H617.667V222.925H619.667V224.925ZM621.667 222.925H619.667V220.925H621.667V222.925ZM623.667 220.925H621.667V218.925H623.667V220.925ZM626 218.925H624V216.925H626V218.925Z" fill="#232323"/>
<text opacity="0.7" fill="#232323" xml:space="preserve" style="white-space: pre" font-family="FK Grotesk Neue" font-size="10" letter-spacing="-0.03em"><tspan x="714.164" y="266.125">Maximize Card</tspan></text>
<g clip-path="url(#clip10_10001_76473)">
<path d="M757 241.925H735V239.925H757V241.925ZM735 239.925H733V217.925H735V239.925ZM759 239.925H757V233.925H759V239.925ZM749 235.925H741V233.925H749V235.925ZM741 233.925H739V225.925H741V233.925ZM744 232.925H742V230.925H744V232.925ZM746 230.925H744V228.925H746V230.925ZM748 228.925H746V226.925H748V228.925ZM758 218.925V226.925H756V218.925H758ZM751 225.925H749V223.925H751V225.925ZM753 223.925H751V221.925H753V223.925ZM755 221.925H753V219.925H755V221.925ZM756 218.925H748V216.925H756V218.925ZM741 217.925H735V215.925H741V217.925Z" fill="#232323"/>
</g>
<text opacity="0.7" fill="#232323" xml:space="preserve" style="white-space: pre" font-family="FK Grotesk Neue" font-size="10" letter-spacing="-0.03em"><tspan x="847.08" y="266.125">Minimize Card</tspan></text>
<g clip-path="url(#clip11_10001_76473)">
<path d="M889 241.925H867V239.925H889V241.925ZM867 239.925H865V217.925H867V239.925ZM891 239.925H889V233.925H891V239.925ZM872 236.925H870V234.925H872V236.925ZM880 236.925H878V228.925H880V236.925ZM874 234.925H872V232.925H874V234.925ZM876 232.925H874V230.925H876V232.925ZM878 228.925H870V226.925H878V228.925ZM890 226.925H882V224.925H890V226.925ZM882 216.925V224.925H880V216.925H882ZM886 222.925H884V220.925H886V222.925ZM888 220.925H886V218.925H888V220.925ZM890 218.925H888V216.925H890V218.925ZM873 217.925H867V215.925H873V217.925Z" fill="#232323"/>
</g>
<text opacity="0.7" fill="#232323" xml:space="preserve" style="white-space: pre" font-family="FK Grotesk Neue" font-size="10" letter-spacing="-0.03em"><tspan x="986.001" y="266.125">Shift to top</tspan></text>
<g clip-path="url(#clip12_10001_76473)">
<path d="M1020 238.925H1018V236.925H1020V238.925ZM1018 236.925H1016V234.925H1018V236.925ZM1016 234.925H1014V232.925H1016V234.925ZM1016 220.925H1002V233.925H1000V218.925H1016V220.925ZM1014 232.925H1012V230.925H1014V232.925ZM1012 230.925H1010V228.925H1012V230.925ZM1010 228.925H1008V226.925H1010V228.925ZM1008 226.925H1006V224.925H1008V226.925ZM1006 224.925H1004V222.925H1006V224.925Z" fill="#232323"/>
</g>
<text opacity="0.7" fill="#232323" xml:space="preserve" style="white-space: pre" font-family="FK Grotesk Neue" font-size="10" letter-spacing="-0.03em"><tspan x="1127.13" y="266.125">Search</tspan></text>
<path d="M1153 239.925H1150V236.925H1153V239.925ZM1150 236.925H1147V233.925H1150V236.925ZM1147 233.925H1144V230.925H1147V233.925ZM1142 232.925H1135V230.925H1142V232.925ZM1135 230.925H1133V228.925H1135V230.925ZM1144 230.925H1142V228.925H1144V230.925ZM1133 228.925H1131V221.925H1133V228.925ZM1146 228.925H1144V221.925H1146V228.925ZM1135 221.925H1133V219.925H1135V221.925ZM1144 221.925H1142V219.925H1144V221.925ZM1142 219.925H1135V217.925H1142V219.925Z" fill="#232323"/>
<text opacity="0.7" fill="#232323" xml:space="preserve" style="white-space: pre" font-family="FK Grotesk Neue" font-size="10" letter-spacing="-0.03em"><tspan x="194.439" y="396.125">Single Tap</tspan></text>
<path d="M226 373.925H213V371.925H226V373.925ZM213 371.925H211V369.925H213V371.925ZM228 371.925H226V362.925H228V371.925ZM211 369.925H209V362.925H211V369.925ZM218 353.925H219V360.925H217V353.925H215V366.925H213V362.925H211V360.925H213V353.925H214V351.925H218V353.925ZM226 362.925H219V360.925H226V362.925ZM217 344.925H218V347.925H217V348.925H214V347.925H213V344.925H214V343.925H217V344.925Z" fill="#232323"/>
<text opacity="0.7" fill="#232323" xml:space="preserve" style="white-space: pre" font-family="FK Grotesk Neue" font-size="10" letter-spacing="-0.03em"><tspan x="324.329" y="396.125">Double Tap</tspan></text>
<path d="M358 373.925H345V371.925H358V373.925ZM345 371.925H343V369.925H345V371.925ZM360 371.925H358V362.925H360V371.925ZM343 369.925H341V362.925H343V369.925ZM350 353.925H351V360.925H349V353.925H347V366.925H345V362.925H343V360.925H345V353.925H346V351.925H350V353.925ZM358 362.925H351V360.925H358V362.925ZM348 344.925H349V347.925H348V348.925H345V347.925H344V344.925H345V343.925H348V344.925ZM355 344.925H356V347.925H355V348.925H352V347.925H351V344.925H352V343.925H355V344.925Z" fill="#232323"/>
<text opacity="0.7" fill="#232323" xml:space="preserve" style="white-space: pre" font-family="FK Grotesk Neue" font-size="10" letter-spacing="-0.03em"><tspan x="456.432" y="396.125">Long Press</tspan></text>
<path d="M490 373.925H477V371.925H490V373.925ZM477 371.925H475V369.925H477V371.925ZM492 371.925H490V362.925H492V371.925ZM475 369.925H473V362.925H475V369.925ZM482 353.925H483V360.925H481V353.925H479V366.925H477V362.925H475V360.925H477V353.925H478V351.925H482V353.925ZM490 362.925H483V360.925H490V362.925ZM489 344.925H490V346.925H489V347.925H476V346.925H475V344.925H476V343.925H489V344.925Z" fill="#232323"/>
<text opacity="0.7" fill="#232323" xml:space="preserve" style="white-space: pre" font-family="FK Grotesk Neue" font-size="10" letter-spacing="-0.03em"><tspan x="600.218" y="396.125">Swipe</tspan></text>
<path d="M622.667 373.867H609.667V371.867H622.667V373.867ZM609.667 371.867H607.667V369.867H609.667V371.867ZM624.667 371.867H622.667V362.867H624.667V371.867ZM607.667 369.867H605.667V362.867H607.667V369.867ZM613.667 353.867H614.667V356.867H615.667V360.867H613.667V356.867H612.667V353.867H609.667V356.867H610.667V360.867H611.667V366.867H609.667V362.867H607.667V360.867H608.667V356.867H607.667V353.867H608.667V351.867H613.667V353.867ZM622.667 362.867H615.667V360.867H622.667V362.867ZM608.667 347.867H605.667V346.867H604.667V344.867H605.667V343.867H608.667V347.867ZM611.667 347.867H609.667V343.867H611.667V347.867ZM614.667 347.367H612.667V344.367H614.667V347.367ZM617.667 346.867H615.667V344.867H617.667V346.867ZM620.667 346.367H618.667V345.367H620.667V346.367Z" fill="#232323"/>
</g>
<defs>
<clipPath id="clip0_10001_76473">
<rect width="1360" height="430.925" fill="white"/>
</clipPath>
<clipPath id="clip1_10001_76473">
<rect width="32" height="32" fill="white" transform="translate(202 106.925)"/>
</clipPath>
<clipPath id="clip2_10001_76473">
<rect width="32" height="32" fill="white" transform="translate(334 106.925)"/>
</clipPath>
<clipPath id="clip3_10001_76473">
<rect width="32" height="32" fill="white" transform="translate(466 106.925)"/>
</clipPath>
<clipPath id="clip4_10001_76473">
<rect width="32" height="32" fill="white" transform="translate(598 106.925)"/>
</clipPath>
<clipPath id="clip5_10001_76473">
<rect width="32" height="32" fill="white" transform="translate(730 106.925)"/>
</clipPath>
<clipPath id="clip6_10001_76473">
<rect width="32" height="32" fill="white" transform="translate(994 106.925)"/>
</clipPath>
<clipPath id="clip7_10001_76473">
<rect width="32" height="32" fill="white" transform="translate(202 212.925)"/>
</clipPath>
<clipPath id="clip8_10001_76473">
<rect width="32" height="32" fill="white" transform="translate(334 212.925)"/>
</clipPath>
<clipPath id="clip9_10001_76473">
<rect width="32" height="32" fill="white" transform="translate(466 212.925)"/>
</clipPath>
<clipPath id="clip10_10001_76473">
<rect width="32" height="32" fill="white" transform="translate(730 212.925)"/>
</clipPath>
<clipPath id="clip11_10001_76473">
<rect width="32" height="32" fill="white" transform="translate(862 212.925)"/>
</clipPath>
<clipPath id="clip12_10001_76473">
<rect width="32" height="32" fill="white" transform="translate(994 212.925)"/>
</clipPath>
</defs>
</svg>
