<svg width="1360" height="195" viewBox="0 0 1360 195" fill="none" xmlns="http://www.w3.org/2000/svg">
<g clip-path="url(#clip0_10001_76267)">
<text fill="#232323" xml:space="preserve" style="white-space: pre" font-family="FK Grotesk Neue" font-size="24" letter-spacing="-0.03em"><tspan x="0.196251" y="23.04">Menu Bar Icons</tspan></text>
<rect y="42.0049" width="1360" height="1" fill="#BDBDBD"/>
<rect y="74.9248" width="1360" height="120" rx="6" fill="white"/>
<text opacity="0.7" fill="#232323" xml:space="preserve" style="white-space: pre" font-family="FK Grotesk Neue" font-size="10" letter-spacing="-0.03em"><tspan x="191.173" y="160.125">Home Menu</tspan></text>
<g clip-path="url(#clip1_10001_76267)">
<path d="M227 135.925H209V133.925H227V135.925ZM209 133.925H207V123.925H209V133.925ZM229 133.925H227V123.925H229V133.925ZM223 131.925H213V124.925H223V131.925ZM215 129.925H221V126.925H215V129.925ZM205 125.925H203V123.925H205V125.925ZM233 125.925H231V123.925H233V125.925ZM207 123.925H205V121.925H207V123.925ZM231 123.925H229V121.925H231V123.925ZM209 121.925H207V119.925H209V121.925ZM229 121.925H227V119.925H229V121.925ZM211 119.925H209V117.925H211V119.925ZM227 119.925H225V117.925H227V119.925ZM213 117.925H211V115.925H213V117.925ZM225 117.925H223V115.925H225V117.925ZM215 115.925H213V113.925H215V115.925ZM223 115.925H221V113.925H223V115.925ZM217 113.925H215V111.925H217V113.925ZM221 113.925H219V111.925H221V113.925ZM219 111.925H217V109.925H219V111.925Z" fill="#232323"/>
</g>
<text opacity="0.7" fill="#232323" xml:space="preserve" style="white-space: pre" font-family="FK Grotesk Neue" font-size="10" letter-spacing="-0.03em"><tspan x="298.306" y="160.125">Home Menu - Hightlited</tspan></text>
<g clip-path="url(#clip2_10001_76267)">
<path d="M351 111.925H353V113.925H355V115.925H357V117.925H359V119.925H361V121.925H363V123.925H361V133.925H359V135.925H341V133.925H339V123.925H337V121.925H339V119.925H341V117.925H343V115.925H345V113.925H347V111.925H349V109.925H351V111.925ZM347 129.925H353V126.925H347V129.925ZM337 125.925H335V123.925H337V125.925ZM365 125.925H363V123.925H365V125.925Z" fill="#232323"/>
</g>
<text opacity="0.7" fill="#232323" xml:space="preserve" style="white-space: pre" font-family="FK Grotesk Neue" font-size="10" letter-spacing="-0.03em"><tspan x="454.091" y="160.125">Health Menu</tspan></text>
<g clip-path="url(#clip3_10001_76267)">
<path d="M484 135.925H480V133.925H484V135.925ZM480 133.925H478V131.925H480V133.925ZM486 133.925H484V131.925H486V133.925ZM478 131.925H476V129.925H478V131.925ZM488 131.925H486V129.925H488V131.925ZM476 129.925H474V127.925H476V129.925ZM482 129.925H480V127.925H482V129.925ZM490 129.925H488V127.925H490V129.925ZM474 127.925H472V125.925H474V127.925ZM480 127.925H478V125.925H480V127.925ZM484 127.925H482V124.925H484V127.925ZM492 127.925H490V125.925H492V127.925ZM478 125.925H476V123.925H478V125.925ZM486 124.925H484V121.925H486V124.925ZM476 123.925H467V121.925H476V123.925ZM497 123.925H492V121.925H497V123.925ZM488 121.925H486V118.925H488V121.925ZM492 121.925H490V118.925H492V121.925ZM471 115.925H470V119.925H468V115.925H469V113.925H471V115.925ZM495 115.925H496V119.925H494V115.925H493V113.925H495V115.925ZM490 118.925H488V116.925H490V118.925ZM483 115.925H481V113.925H483V115.925ZM474 113.925H471V111.925H474V113.925ZM481 113.925H479V111.925H481V113.925ZM485 113.925H483V111.925H485V113.925ZM493 113.925H490V111.925H493V113.925ZM479 111.925H474V109.925H479V111.925ZM490 111.925H485V109.925H490V111.925Z" fill="#232323"/>
</g>
<text opacity="0.7" fill="#232323" xml:space="preserve" style="white-space: pre" font-family="FK Grotesk Neue" font-size="10" letter-spacing="-0.03em"><tspan x="557.244" y="160.125">Health Menu - Highlighted</tspan></text>
<g clip-path="url(#clip4_10001_76267)">
<path d="M611 111.925H613V113.925H615V111.925H617V109.925H622V111.925H625V113.925H627V115.925H628V119.925H627V120.925H629V121.925H624V118.925H622V116.925H620V118.925H618V121.925H616V124.925H614V127.925H612V125.925H610V127.925H612V129.925H614V127.925H616V124.925H618V121.925H620V118.925H622V121.925H624V123.925H629V124.925H625V125.925H624V127.925H622V129.925H620V131.925H618V133.925H616V135.925H612V133.925H610V131.925H608V129.925H606V127.925H604V125.925H603V124.925H599V123.925H608V125.925H610V123.925H608V121.925H599V120.925H600V115.925H601V113.925H603V111.925H606V109.925H611V111.925Z" fill="#232323"/>
</g>
<text opacity="0.7" fill="#232323" xml:space="preserve" style="white-space: pre" font-family="FK Grotesk Neue" font-size="10" letter-spacing="-0.03em"><tspan x="712.372" y="160.125">Even hub Menu</tspan></text>
<g clip-path="url(#clip5_10001_76267)">
<path d="M743 136.925H734V134.925H743V136.925ZM756 136.925H751V134.925H756V136.925ZM734 134.925H732V125.925H734V134.925ZM745 134.925H743V125.925H745V134.925ZM751 134.925H749V132.925H751V134.925ZM758 134.925H756V132.925H758V134.925ZM749 132.925H747V127.925H749V132.925ZM760 132.925H758V127.925H760V132.925ZM751 127.925H749V125.925H751V127.925ZM758 127.925H756V125.925H758V127.925ZM743 125.925H734V123.925H743V125.925ZM756 125.925H751V123.925H756V125.925ZM743 121.925H734V119.925H743V121.925ZM758 121.925H749V119.925H758V121.925ZM734 119.925H732V110.925H734V119.925ZM745 119.925H743V110.925H745V119.925ZM749 119.925H747V110.925H749V119.925ZM760 119.925H758V110.925H760V119.925ZM743 110.925H734V108.925H743V110.925ZM758 110.925H749V108.925H758V110.925Z" fill="#232323"/>
</g>
<text opacity="0.7" fill="#232323" xml:space="preserve" style="white-space: pre" font-family="FK Grotesk Neue" font-size="10" letter-spacing="-0.03em"><tspan x="816.281" y="160.125">Even hub Menu- Highlighted</tspan></text>
<g clip-path="url(#clip6_10001_76267)">
<path d="M875 125.925H877V134.925H875V136.925H866V134.925H864V125.925H866V123.925H875V125.925ZM888 136.925H883V134.925H888V136.925ZM883 134.925H881V132.925H883V134.925ZM890 134.925H888V132.925H890V134.925ZM881 132.925H879V127.925H881V132.925ZM892 132.925H890V127.925H892V132.925ZM883 127.925H881V125.925H883V127.925ZM890 127.925H888V125.925H890V127.925ZM888 125.925H883V123.925H888V125.925ZM875 110.925H877V119.925H875V121.925H866V119.925H864V110.925H866V108.925H875V110.925ZM890 110.925H892V119.925H890V121.925H881V119.925H879V110.925H881V108.925H890V110.925Z" fill="#232323"/>
</g>
<text opacity="0.7" fill="#232323" xml:space="preserve" style="white-space: pre" font-family="FK Grotesk Neue" font-size="10" letter-spacing="-0.03em"><tspan x="969.195" y="160.125">Me-Account Menu</tspan></text>
<g clip-path="url(#clip7_10001_76267)">
<path d="M1009 134.925H1011V131.925H1013V135.925H1011V136.925H1009V135.925H1007V131.925H1009V134.925ZM1003 128.925H1002V129.925H1001V130.925H1002V131.925H1003V130.925H1004V129.925H1007V131.925H1005V132.925H1003V133.925H1001V132.925H1000V131.925H999V129.925H1000V127.925H1001V125.925H1003V128.925ZM1016 130.925H1017V131.925H1018V130.925H1019V129.925H1018V128.925H1017V125.925H1019V127.925H1020V129.925H1021V131.925H1020V132.925H1019V133.925H1017V132.925H1015V131.925H1013V129.925H1016V130.925ZM1013 127.925H1007V125.925H1013V127.925ZM1001 121.925H998V123.925H1001V125.925H997V123.925H996V121.925H997V119.925H1001V121.925ZM1007 125.925H1005V119.925H1007V125.925ZM1015 125.925H1013V119.925H1015V125.925ZM1023 121.925H1024V123.925H1023V125.925H1019V123.925H1022V121.925H1019V119.925H1023V121.925ZM1003 112.925H1005V113.925H1007V115.925H1004V114.925H1003V113.925H1002V114.925H1001V115.925H1002V116.925H1003V119.925H1001V117.925H1000V115.925H999V113.925H1000V112.925H1001V111.925H1003V112.925ZM1013 119.925H1007V117.925H1013V119.925ZM1019 112.925H1020V113.925H1021V115.925H1020V117.925H1019V119.925H1017V116.925H1018V115.925H1019V114.925H1018V113.925H1017V114.925H1016V115.925H1013V113.925H1015V112.925H1017V111.925H1019V112.925ZM1011 109.925H1013V113.925H1011V110.925H1009V113.925H1007V109.925H1009V108.925H1011V109.925Z" fill="#232323"/>
</g>
<text opacity="0.7" fill="#232323" xml:space="preserve" style="white-space: pre" font-family="FK Grotesk Neue" font-size="10" letter-spacing="-0.03em"><tspan x="1072.35" y="160.125">Me-Account Menu - Highlighted</tspan></text>
<g clip-path="url(#clip8_10001_76267)">
<path d="M1143 109.925H1145V113.925H1147V112.925H1149V111.925H1151V112.925H1152V113.925H1153V115.925H1152V117.925H1151V119.925H1155V121.925H1156V123.925H1155V125.925H1151V127.925H1152V129.925H1153V131.925H1152V132.925H1151V133.925H1149V132.925H1147V131.925H1145V135.925H1143V136.925H1141V135.925H1139V131.925H1137V132.925H1135V133.925H1133V132.925H1132V131.925H1131V129.925H1132V127.925H1133V125.925H1129V123.925H1128V121.925H1129V119.925H1133V117.925H1132V115.925H1131V113.925H1132V112.925H1133V111.925H1135V112.925H1137V113.925H1139V109.925H1141V108.925H1143V109.925ZM1139 118.925V119.925H1138V125.925H1139V126.925H1145V125.925H1146V119.925H1145V118.925H1139Z" fill="#232323"/>
</g>
</g>
<defs>
<clipPath id="clip0_10001_76267">
<rect width="1360" height="194.925" fill="white"/>
</clipPath>
<clipPath id="clip1_10001_76267">
<rect width="32" height="32" fill="white" transform="translate(202 106.925)"/>
</clipPath>
<clipPath id="clip2_10001_76267">
<rect width="32" height="32" fill="white" transform="translate(334 106.925)"/>
</clipPath>
<clipPath id="clip3_10001_76267">
<rect width="32" height="32" fill="white" transform="translate(466 106.925)"/>
</clipPath>
<clipPath id="clip4_10001_76267">
<rect width="32" height="32" fill="white" transform="translate(598 106.925)"/>
</clipPath>
<clipPath id="clip5_10001_76267">
<rect width="32" height="32" fill="white" transform="translate(730 106.925)"/>
</clipPath>
<clipPath id="clip6_10001_76267">
<rect width="32" height="32" fill="white" transform="translate(862 106.925)"/>
</clipPath>
<clipPath id="clip7_10001_76267">
<rect width="32" height="32" fill="white" transform="translate(994 106.925)"/>
</clipPath>
<clipPath id="clip8_10001_76267">
<rect width="32" height="32" fill="white" transform="translate(1126 106.925)"/>
</clipPath>
</defs>
</svg>
