<svg width="1360" height="407" viewBox="0 0 1360 407" fill="none" xmlns="http://www.w3.org/2000/svg">
<g clip-path="url(#clip0_10001_76921)">
<text fill="#232323" xml:space="preserve" style="white-space: pre" font-family="FK Grotesk Neue" font-size="24" letter-spacing="-0.03em"><tspan x="0.419373" y="23.04">Navigate Feature Icon</tspan></text>
<rect y="42.3809" width="1360" height="1" fill="#BDBDBD"/>
<rect y="74.9248" width="1360" height="332.001" rx="6" fill="white"/>
<text opacity="0.7" fill="#232323" xml:space="preserve" style="white-space: pre" font-family="FK Grotesk Neue" font-size="10" letter-spacing="-0.03em"><tspan x="185.88" y="160.125">Home Address</tspan></text>
<g clip-path="url(#clip1_10001_76921)">
<path d="M221.5 133.925H226.5V135.925H208.5V133.925H213.5V123.925H221.5V133.925ZM208.5 133.925H206.5V123.925H208.5V133.925ZM215.5 133.925H219.5V125.925H215.5V133.925ZM228.5 133.925H226.5V123.925H228.5V133.925ZM204.5 125.925H202.5V123.925H204.5V125.925ZM232.5 125.925H230.5V123.925H232.5V125.925ZM206.5 123.925H204.5V121.925H206.5V123.925ZM230.5 123.925H228.5V121.925H230.5V123.925ZM208.5 121.925H206.5V119.925H208.5V121.925ZM228.5 121.925H226.5V119.925H228.5V121.925ZM210.5 119.925H208.5V117.925H210.5V119.925ZM226.5 119.925H224.5V117.925H226.5V119.925ZM212.5 117.925H210.5V115.925H212.5V117.925ZM224.5 117.925H222.5V115.925H224.5V117.925ZM214.5 115.925H212.5V113.925H214.5V115.925ZM222.5 115.925H220.5V113.925H222.5V115.925ZM216.5 113.925H214.5V111.925H216.5V113.925ZM220.5 113.925H218.5V111.925H220.5V113.925ZM218.5 111.925H216.5V109.925H218.5V111.925Z" fill="#232323"/>
</g>
<text opacity="0.7" fill="#232323" xml:space="preserve" style="white-space: pre" font-family="FK Grotesk Neue" font-size="10" letter-spacing="-0.03em"><tspan x="317.895" y="160.125">Office Address</tspan></text>
<g clip-path="url(#clip2_10001_76921)">
<path d="M353.5 116.925H359.5V118.925H353.5V133.925H359.5V118.925H361.5V133.925H363.5V135.925H335.5V133.925H337.5V115.925H339.5V133.925H351.5V111.925H353.5V116.925ZM349.5 131.925H341.5V129.925H349.5V131.925ZM349.5 127.925H341.5V125.925H349.5V127.925ZM349.5 123.925H341.5V121.925H349.5V123.925ZM349.5 119.925H341.5V117.925H349.5V119.925ZM343.5 115.925H339.5V113.925H343.5V115.925ZM347.5 113.925H343.5V111.925H347.5V113.925ZM351.5 111.925H347.5V109.925H351.5V111.925Z" fill="#232323"/>
</g>
<text opacity="0.7" fill="#232323" xml:space="preserve" style="white-space: pre" font-family="FK Grotesk Neue" font-size="10" letter-spacing="-0.03em"><tspan x="462.696" y="160.125">Location</tspan></text>
<path d="M482.5 136.925H480.5V134.925H482.5V136.925ZM480.5 134.925H478.5V132.925H480.5V134.925ZM484.5 134.925H482.5V132.925H484.5V134.925ZM478.5 132.925H476.5V130.925H478.5V132.925ZM486.5 132.925H484.5V130.925H486.5V132.925ZM476.5 130.925H474.5V127.925H476.5V130.925ZM488.5 130.925H486.5V127.925H488.5V130.925ZM474.5 127.925H472.5V124.925H474.5V127.925ZM490.5 127.925H488.5V124.925H490.5V127.925ZM472.5 124.925H470.5V114.925H472.5V124.925ZM484.5 124.925H478.5V122.925H484.5V124.925ZM492.5 124.925H490.5V114.925H492.5V124.925ZM478.5 122.925H476.5V116.925H478.5V122.925ZM486.5 122.925H484.5V116.925H486.5V122.925ZM484.5 116.925H478.5V114.925H484.5V116.925ZM474.5 114.925H472.5V112.925H474.5V114.925ZM490.5 114.925H488.5V112.925H490.5V114.925ZM476.5 112.925H474.5V110.925H476.5V112.925ZM488.5 112.925H486.5V110.925H488.5V112.925ZM486.5 110.925H476.5V108.925H486.5V110.925Z" fill="#232323"/>
<text opacity="0.7" fill="#232323" xml:space="preserve" style="white-space: pre" font-family="FK Grotesk Neue" font-size="10" letter-spacing="-0.03em"><tspan x="604.538" y="160.125">Flag</tspan></text>
<path d="M604.5 125.925H618.5V127.925H604.5V136.925H602.5V111.925H604.5V125.925ZM620.5 125.925H618.5V123.925H620.5V125.925ZM622.5 123.925H620.5V121.925H622.5V123.925ZM624.5 121.925H622.5V119.925H624.5V121.925ZM626.5 119.925H624.5V117.925H626.5V119.925ZM624.5 117.925H622.5V115.925H624.5V117.925ZM622.5 115.925H620.5V113.925H622.5V115.925ZM620.5 113.925H618.5V111.925H620.5V113.925ZM618.5 111.925H604.5V109.925H618.5V111.925Z" fill="#232323"/>
<text opacity="0.7" fill="#232323" xml:space="preserve" style="white-space: pre" font-family="FK Grotesk Neue" font-size="10" letter-spacing="-0.03em"><tspan x="726.565" y="160.125">Relocate</tspan></text>
<g clip-path="url(#clip3_10001_76921)">
<path d="M746.5 137.925H744.5V135.925H746.5V137.925ZM744.5 135.925H742.5V131.925H744.5V135.925ZM748.5 135.925H746.5V131.925H748.5V135.925ZM742.5 131.925H740.5V127.925H742.5V131.925ZM750.5 131.925H748.5V127.925H750.5V131.925ZM740.5 127.925H736.5V125.925H740.5V127.925ZM752.5 127.925H750.5V122.925H752.5V127.925ZM736.5 125.925H732.5V123.925H736.5V125.925ZM732.5 123.925H730.5V121.925H732.5V123.925ZM754.5 122.925H752.5V118.925H754.5V122.925ZM736.5 121.925H732.5V119.925H736.5V121.925ZM740.5 119.925H736.5V117.925H740.5V119.925ZM756.5 118.925H754.5V114.925H756.5V118.925ZM745.5 117.925H740.5V115.925H745.5V117.925ZM749.5 115.925H745.5V113.925H749.5V115.925ZM758.5 109.925V114.925H756.5V111.925H753.5V109.925H758.5ZM753.5 113.925H749.5V111.925H753.5V113.925Z" fill="#232323"/>
</g>
<text opacity="0.7" fill="#232323" xml:space="preserve" style="white-space: pre" font-family="FK Grotesk Neue" font-size="10" letter-spacing="-0.03em"><tspan x="856.618" y="160.125">Compass</tspan></text>
<path d="M866.5 133.925H869.5V135.925H864.5V130.925H866.5V133.925ZM873.5 133.925H869.5V131.925H873.5V133.925ZM877.5 131.925H873.5V129.925H877.5V131.925ZM868.5 130.925H866.5V126.925H868.5V130.925ZM884.5 127.925H882.5V129.925H877.5V127.925H880.5V125.925H882.5V122.925H884.5V127.925ZM870.5 126.925H868.5V122.925H870.5V126.925ZM880.5 125.925H874.5V119.925H880.5V125.925ZM876.5 123.925H878.5V121.925H876.5V123.925ZM877.5 117.925H874.5V119.925H872.5V122.925H870.5V117.925H872.5V115.925H877.5V117.925ZM886.5 122.925H884.5V118.925H886.5V122.925ZM888.5 118.925H886.5V114.925H888.5V118.925ZM881.5 115.925H877.5V113.925H881.5V115.925ZM890.5 109.925V114.925H888.5V111.925H885.5V109.925H890.5ZM885.5 113.925H881.5V111.925H885.5V113.925Z" fill="#232323"/>
<text opacity="0.7" fill="#232323" xml:space="preserve" style="white-space: pre" font-family="FK Grotesk Neue" font-size="10" letter-spacing="-0.03em"><tspan x="987.93" y="160.125">Zoom Out</tspan></text>
<path d="M1018.5 131.925H1016.5V129.925H1018.5V131.925ZM1016.5 129.925H1014.5V127.925H1016.5V129.925ZM1010.5 127.925H1002.5V125.925H1010.5V127.925ZM1014.5 127.925H1012.5V125.925H1014.5V127.925ZM1002.5 125.925H1000.5V123.925H1002.5V125.925ZM1012.5 125.925H1010.5V123.925H1012.5V125.925ZM1000.5 123.925H998.5V115.925H1000.5V123.925ZM1014.5 123.925H1012.5V115.925H1014.5V123.925ZM1010.5 120.925H1002.5V118.925H1010.5V120.925ZM1002.5 115.925H1000.5V113.925H1002.5V115.925ZM1012.5 115.925H1010.5V113.925H1012.5V115.925ZM1010.5 113.925H1002.5V111.925H1010.5V113.925Z" fill="#232323"/>
<text opacity="0.7" fill="#232323" xml:space="preserve" style="white-space: pre" font-family="FK Grotesk Neue" font-size="10" letter-spacing="-0.03em"><tspan x="1123.64" y="160.125">Zoom In</tspan></text>
<path d="M1150.5 131.925H1148.5V129.925H1150.5V131.925ZM1148.5 129.925H1146.5V127.925H1148.5V129.925ZM1142.5 127.925H1134.5V125.925H1142.5V127.925ZM1146.5 127.925H1144.5V125.925H1146.5V127.925ZM1134.5 125.925H1132.5V123.925H1134.5V125.925ZM1144.5 125.925H1142.5V123.925H1144.5V125.925ZM1132.5 123.925H1130.5V115.925H1132.5V123.925ZM1139.5 118.925H1142.5V120.925H1139.5V123.925H1137.5V120.925H1134.5V118.925H1137.5V115.925H1139.5V118.925ZM1146.5 123.925H1144.5V115.925H1146.5V123.925ZM1134.5 115.925H1132.5V113.925H1134.5V115.925ZM1144.5 115.925H1142.5V113.925H1144.5V115.925ZM1142.5 113.925H1134.5V111.925H1142.5V113.925Z" fill="#232323"/>
<text opacity="0.7" fill="#232323" xml:space="preserve" style="white-space: pre" font-family="FK Grotesk Neue" font-size="10" letter-spacing="-0.03em"><tspan x="206.729" y="266.126">Walk</tspan></text>
<path d="M211.5 242.925H209.5V236.925H211.5V242.925ZM221.5 236.925H222.5V240.925H223.5V242.925H220.5V236.925H219.5V234.925H221.5V236.925ZM213.5 236.925H211.5V234.925H213.5V236.925ZM215.5 234.925H213.5V232.925H215.5V234.925ZM219.5 234.925H217.5V232.925H219.5V234.925ZM217.5 232.925H215.5V230.925H217.5V232.925ZM215.5 230.925H213.5V222.925H215.5V230.925ZM219.5 230.925H217.5V224.925H219.5V230.925ZM211.5 229.925H209.5V222.925H211.5V229.925ZM225.5 228.925H223.5V226.925H225.5V228.925ZM223.5 224.925V226.925H221.5V224.925H223.5ZM221.5 224.925H219.5V220.925H221.5V224.925ZM213.5 222.925H211.5V220.925H213.5V222.925ZM219.5 220.925H213.5V218.925H219.5V220.925ZM219.167 217.592H216.5V214.925H219.167V217.592Z" fill="#232323"/>
<text opacity="0.7" fill="#232323" xml:space="preserve" style="white-space: pre" font-family="FK Grotesk Neue" font-size="10" letter-spacing="-0.03em"><tspan x="334.616" y="266.126">Bicycle</tspan></text>
<g clip-path="url(#clip4_10001_76921)">
<path d="M344.5 240.925H338.5V238.925H344.5V240.925ZM360.5 240.925H354.5V238.925H360.5V240.925ZM338.5 238.925H336.5V236.925H338.5V238.925ZM346.5 238.925H344.5V236.925H346.5V238.925ZM354.5 230.925H353.5V236.925H354.5V238.925H352.5V236.925H351.5V230.925H352.5V228.925H354.5V230.925ZM362.5 230.925H363.5V236.925H362.5V238.925H360.5V236.925H361.5V230.925H360.5V228.925H362.5V230.925ZM336.5 236.925H334.5V230.925H336.5V236.925ZM348.5 236.925H346.5V230.925H348.5V236.925ZM356.5 226.925H360.5V228.925H358.5V234.925H356.5V228.925H354.5V226.925H344.5V224.925H354.5V220.925H356.5V226.925ZM338.5 230.925H336.5V228.925H338.5V230.925ZM346.5 230.925H344.5V228.925H346.5V230.925ZM344.5 228.925H338.5V226.925H344.5V228.925ZM344.5 222.925V224.925H340.5V222.925H344.5ZM354.5 220.925H352.5V217.925H354.5V220.925ZM352.5 217.925H347.5V215.925H352.5V217.925ZM356.5 217.925H354.5V215.925H356.5V217.925Z" fill="#232323"/>
</g>
<text opacity="0.7" fill="#232323" xml:space="preserve" style="white-space: pre" font-family="FK Grotesk Neue" font-size="10" letter-spacing="-0.03em"><tspan x="470.918" y="266.126">Train</tspan></text>
<g clip-path="url(#clip5_10001_76921)">
<path d="M477.5 240.925H485.5V238.925H477.5V240.925ZM472.5 236.925H470.5V218.925H472.5V236.925ZM492.5 236.925H490.5V218.925H492.5V236.925ZM487.5 227.925H475.5V220.925H487.5V227.925ZM477.5 225.925H485.5V222.925H477.5V225.925ZM478.5 218.925H472.5V216.925H478.5V218.925ZM484.5 216.925H482.5V218.925H480.5V216.925H478.5V214.925H484.5V216.925ZM490.5 218.925H484.5V216.925H490.5V218.925ZM487.5 240.925H492.5V242.925H470.5V240.925H475.5V238.925H472.5V236.925H490.5V238.925H487.5V240.925Z" fill="#232323"/>
</g>
<text opacity="0.7" fill="#232323" xml:space="preserve" style="white-space: pre" font-family="FK Grotesk Neue" font-size="10" letter-spacing="-0.03em"><tspan x="604.996" y="266.126">Bus</tspan></text>
<g clip-path="url(#clip6_10001_76921)">
<path d="M622.501 237.926V231.926H604.5V237.926H622.501ZM611.5 235.926H605.5V233.926H611.501L611.5 235.926ZM621.501 235.926H615.501V233.926H621.501V235.926ZM604.5 229.926H622.501V221.925H604.5V229.926ZM601.5 226.926H599.5V221.925H601.5V226.926ZM627.501 226.926H625.501V221.925H627.501V226.926ZM622.501 217.925H604.5V215.925H622.501V217.925ZM624.501 239.926H623.501V241.926H619.501V239.926H607.5V241.926H603.5V239.926H602.5V217.925H604.5V219.925H622.501V217.925H624.501V239.926Z" fill="#232323"/>
</g>
<text opacity="0.7" fill="#232323" xml:space="preserve" style="white-space: pre" font-family="FK Grotesk Neue" font-size="10" letter-spacing="-0.03em"><tspan x="721.636" y="266.126">Restaurant</tspan></text>
<g clip-path="url(#clip7_10001_76921)">
<path d="M740.502 241.925H738.502V227.925H740.502V241.925ZM752.502 241.925H750.502V227.925H752.502V241.925ZM740.502 224.925H741.502V226.925H737.502V224.925H738.502V215.925H740.502V224.925ZM753.502 226.925H749.502V224.925H753.502V226.925ZM737.502 224.925H735.502V216.925H737.502V224.925ZM743.502 224.925H741.502V216.925H743.502V224.925ZM749.502 224.925H747.502V217.925H749.502V224.925ZM755.502 224.925H753.502V217.925H755.502V224.925ZM753.502 217.925H749.502V215.925H753.502V217.925Z" fill="#232323"/>
</g>
<text opacity="0.7" fill="#232323" xml:space="preserve" style="white-space: pre" font-family="FK Grotesk Neue" font-size="10" letter-spacing="-0.03em"><tspan x="857.854" y="266.126">Business</tspan></text>
<g clip-path="url(#clip8_10001_76921)">
<path d="M888.503 240.925H866.503V238.925H888.503V240.925ZM866.503 238.925H864.503V224.925H866.503V238.925ZM890.503 238.925H888.503V224.925H890.503V238.925ZM872.503 222.925H882.503V218.925H884.503V222.925H888.503V224.925H884.503V231.925H882.503V224.925H872.503V231.925H870.503V224.925H866.503V222.925H870.503V218.925H872.503V222.925ZM882.503 218.925H872.503V216.925H882.503V218.925Z" fill="#232323"/>
</g>
<text opacity="0.7" fill="#232323" xml:space="preserve" style="white-space: pre" font-family="FK Grotesk Neue" font-size="10" letter-spacing="-0.03em"><tspan x="988.871" y="266.126">Shopping</tspan></text>
<path d="M1021.5 241.925H997.505V239.925H1021.5V241.925ZM1004.5 222.925H999.505V227.925H998.505V233.925H997.505V239.925H995.505V233.925H996.505V227.925H997.505V221.925H999.505V220.925H1002.5V216.925H1004.5V222.925ZM1016.5 220.925H1019.5V221.925H1021.5V227.925H1022.5V233.925H1023.5V239.925H1021.5V233.925H1020.5V227.925H1019.5V222.925H1006.5V220.925H1014.5V216.925H1016.5V220.925ZM1012.5 233.925H1006.5V231.925H1012.5V233.925ZM1006.5 231.925H1004.5V229.925H1006.5V231.925ZM1014.5 231.925H1012.5V229.925H1014.5V231.925ZM1004.5 229.925H1002.5V225.925H1004.5V229.925ZM1016.5 229.925H1014.5V225.925H1016.5V229.925ZM1014.5 216.925H1004.5V214.925H1014.5V216.925Z" fill="#232323"/>
<text opacity="0.7" fill="#232323" xml:space="preserve" style="white-space: pre" font-family="FK Grotesk Neue" font-size="10" letter-spacing="-0.03em"><tspan x="1120.77" y="266.126">Groceries</tspan></text>
<g clip-path="url(#clip9_10001_76921)">
<path d="M1137.51 240.925H1135.51V238.925H1137.51V240.925ZM1150.51 240.925H1148.51V238.925H1150.51V240.925ZM1150.51 237.925H1135.51V235.925H1150.51V237.925ZM1135.51 235.925H1133.51V232.925H1135.51V235.925ZM1150.51 232.925H1135.51V230.925H1150.51V232.925ZM1135.51 230.925H1133.51V226.925H1135.51V230.925ZM1152.51 230.925H1150.51V226.925H1152.51V230.925ZM1133.51 220.925H1152.51V222.925H1133.51V226.925H1131.51V218.925H1133.51V220.925ZM1154.51 226.925H1152.51V222.925H1154.51V226.925ZM1131.51 218.925H1128.51V216.925H1131.51V218.925Z" fill="#232323"/>
</g>
<text opacity="0.7" fill="#232323" xml:space="preserve" style="white-space: pre" font-family="FK Grotesk Neue" font-size="10" letter-spacing="-0.03em"><tspan x="193.618" y="372.126">Cloth Shop</tspan></text>
<g clip-path="url(#clip10_10001_76921)">
<path d="M225.5 347.926H209.5V345.926H225.5V347.926ZM205.5 332.926H207.5V328.926H209.5V345.926H207.5V334.926H203.5V327.926H205.5V332.926ZM231.5 334.926H227.5V345.926H225.5V328.926H227.5V332.926H229.5V327.926H231.5V334.926ZM207.5 327.926H205.5V325.926H207.5V327.926ZM218.5 327.926H216.5V325.926H218.5V327.926ZM229.5 327.926H227.5V325.926H229.5V327.926ZM209.5 325.926H207.5V323.926H209.5V325.926ZM216.5 325.926H214.5V323.926H216.5V325.926ZM220.5 325.926H218.5V323.926H220.5V325.926ZM227.5 325.926H225.5V323.926H227.5V325.926ZM214.5 323.926H209.5V321.926H214.5V323.926ZM225.5 323.926H220.5V321.926H225.5V323.926Z" fill="#232323"/>
</g>
<text opacity="0.7" fill="#232323" xml:space="preserve" style="white-space: pre" font-family="FK Grotesk Neue" font-size="10" letter-spacing="-0.03em"><tspan x="338.647" y="372.126">Hotel</tspan></text>
<g clip-path="url(#clip11_10001_76921)">
<path d="M337.5 338.926H348.5V332.926H350.5V338.926H361.5V332.926H363.5V343.926H361.5V340.926H337.5V344.926H335.5V324.926H337.5V338.926ZM344.5 335.926H341.5V333.926H344.5V335.926ZM341.5 333.926H339.5V330.926H341.5V333.926ZM346.5 333.926H344.5V330.926H346.5V333.926ZM361.5 332.926H350.5V330.926H361.5V332.926ZM344.5 328.926V330.926H341.5V328.926H344.5Z" fill="#232323"/>
</g>
<text opacity="0.7" fill="#232323" xml:space="preserve" style="white-space: pre" font-family="FK Grotesk Neue" font-size="10" letter-spacing="-0.03em"><tspan x="455.562" y="372.126">Coffee shop</tspan></text>
<g clip-path="url(#clip12_10001_76921)">
<path d="M493.5 347.926H467.5V345.926H493.5V347.926ZM486.5 343.926H472.5V341.926H486.5V343.926ZM472.5 341.926H470.5V339.926H472.5V341.926ZM488.5 341.926H486.5V339.926H488.5V341.926ZM470.5 339.926H468.5V329.926H470.5V339.926ZM490.5 334.926H492.5V336.926H490.5V339.926H488.5V329.926H490.5V334.926ZM494.5 334.926H492.5V329.926H494.5V334.926ZM488.5 329.926H470.5V327.926H488.5V329.926ZM492.5 329.926H490.5V327.926H492.5V329.926ZM476.5 326.926H474.5V324.926H476.5V326.926ZM482.5 326.926H480.5V324.926H482.5V326.926ZM478.5 324.926H476.5V322.926H478.5V324.926ZM484.5 324.926H482.5V322.926H484.5V324.926ZM476.5 322.926H474.5V320.926H476.5V322.926ZM482.5 322.926H480.5V320.926H482.5V322.926Z" fill="#232323"/>
</g>
<text opacity="0.7" fill="#232323" xml:space="preserve" style="white-space: pre" font-family="FK Grotesk Neue" font-size="10" letter-spacing="-0.03em"><tspan x="605.625" y="372.126">Gift</tspan></text>
<path d="M612.5 329.426H614.5V327.426H616.5V329.426H627V331.426H624.5V344.426H622.5V331.426H614.5V344.426H622.5V346.426H604.5V344.426H612.5V331.426H604.5V344.426H602.5V331.426H600V329.426H610.5V327.426H612.5V329.426ZM610.5 327.426H608.5V325.426H610.5V327.426ZM618.5 327.426H616.5V325.426H618.5V327.426ZM608.5 325.426H606.5V323.426H608.5V325.426ZM620.5 325.426H618.5V323.426H620.5V325.426Z" fill="#232323"/>
<text opacity="0.7" fill="#232323" xml:space="preserve" style="white-space: pre" font-family="FK Grotesk Neue" font-size="10" letter-spacing="-0.03em"><tspan x="731.893" y="372.126">Crown</tspan></text>
<path d="M755.5 346.926H735.5V344.926H755.5V346.926ZM756.5 342.926H757.5V344.926H755.5V342.926H735.5V344.926H733.5V342.926H734.5V340.926H756.5V342.926ZM734.5 340.926H732.5V328.926H734.5V340.926ZM758.5 340.926H756.5V328.926H758.5V340.926ZM746.5 338.926H744.5V336.926H746.5V338.926ZM744.5 336.926H742.5V333.926H744.5V336.926ZM748.5 336.926H746.5V333.926H748.5V336.926ZM746.5 333.926H744.5V331.926H746.5V333.926ZM740.5 332.926H738.5V330.926H740.5V332.926ZM752.5 332.926H750.5V330.926H752.5V332.926ZM738.5 330.926H736.5V328.926H738.5V330.926ZM742.5 330.926H740.5V327.926H742.5V330.926ZM750.5 330.926H748.5V327.926H750.5V330.926ZM754.5 330.926H752.5V328.926H754.5V330.926ZM736.5 328.926H734.5V326.926H736.5V328.926ZM756.5 328.926H754.5V326.926H756.5V328.926ZM744.5 327.926H742.5V324.926H744.5V327.926ZM748.5 327.926H746.5V324.926H748.5V327.926ZM746.5 324.926H744.5V322.926H746.5V324.926Z" fill="#232323"/>
<text opacity="0.7" fill="#232323" xml:space="preserve" style="white-space: pre" font-family="FK Grotesk Neue" font-size="10" letter-spacing="-0.03em"><tspan x="848.774" y="372.126">End Location</tspan></text>
<path d="M882.5 341.926H872.5V339.926H882.5V341.926ZM872.5 329.926V339.926H870.5V329.926H872.5ZM884.5 339.926H882.5V329.926H884.5V339.926ZM879.5 336.926H875.5V332.926H879.5V336.926ZM882.5 329.926H872.5V327.926H882.5V329.926Z" fill="#232323"/>
<text opacity="0.7" fill="#232323" xml:space="preserve" style="white-space: pre" font-family="FK Grotesk Neue" font-size="10" letter-spacing="-0.03em"><tspan x="990.697" y="372.126">Direction</tspan></text>
<g clip-path="url(#clip13_10001_76921)">
<path d="M1003.5 343.593H1001.5V333.593H1003.5V343.593ZM1013.5 337.593V339.593H1011.5V337.593H1013.5ZM1015.5 337.593H1013.5V335.593H1015.5V337.593ZM1017.5 335.593H1015.5V333.593H1017.5V335.593ZM1015.5 333.593H1003.5V331.593H1015.5V333.593ZM1019.5 333.593H1017.5V331.593H1019.5V333.593ZM1017.5 331.593H1015.5V329.593H1017.5V331.593ZM1015.5 329.593H1013.5V327.593H1015.5V329.593ZM1013.5 327.593H1011.5V325.592H1013.5V327.593Z" fill="#232323"/>
</g>
</g>
<defs>
<clipPath id="clip0_10001_76921">
<rect width="1360" height="406.926" fill="white"/>
</clipPath>
<clipPath id="clip1_10001_76921">
<rect width="32" height="32" fill="white" transform="translate(201.5 106.925)"/>
</clipPath>
<clipPath id="clip2_10001_76921">
<rect width="32" height="32" fill="white" transform="translate(333.5 106.925)"/>
</clipPath>
<clipPath id="clip3_10001_76921">
<rect width="32" height="32" fill="white" transform="translate(729.5 106.925)"/>
</clipPath>
<clipPath id="clip4_10001_76921">
<rect width="32" height="32" fill="white" transform="translate(333.5 212.925)"/>
</clipPath>
<clipPath id="clip5_10001_76921">
<rect width="32" height="32" fill="white" transform="translate(465.5 212.925)"/>
</clipPath>
<clipPath id="clip6_10001_76921">
<rect width="32.0013" height="32.0013" fill="white" transform="translate(597.5 212.925)"/>
</clipPath>
<clipPath id="clip7_10001_76921">
<rect width="32" height="32" fill="white" transform="translate(729.502 212.925)"/>
</clipPath>
<clipPath id="clip8_10001_76921">
<rect width="32" height="32" fill="white" transform="translate(861.503 212.925)"/>
</clipPath>
<clipPath id="clip9_10001_76921">
<rect width="32" height="32" fill="white" transform="translate(1125.51 212.925)"/>
</clipPath>
<clipPath id="clip10_10001_76921">
<rect width="32" height="32" fill="white" transform="translate(201.5 318.926)"/>
</clipPath>
<clipPath id="clip11_10001_76921">
<rect width="32" height="32" fill="white" transform="translate(333.5 318.926)"/>
</clipPath>
<clipPath id="clip12_10001_76921">
<rect width="32" height="32" fill="white" transform="translate(465.5 318.926)"/>
</clipPath>
<clipPath id="clip13_10001_76921">
<rect width="32" height="32" fill="white" transform="translate(993.5 318.926)"/>
</clipPath>
</defs>
</svg>
