<svg width="1360" height="831" viewBox="0 0 1360 831" fill="none" xmlns="http://www.w3.org/2000/svg">
<g clip-path="url(#clip0_10001_76691)">
<text fill="#232323" xml:space="preserve" style="white-space: pre" font-family="FK Grotesk Neue" font-size="24" letter-spacing="-0.03em"><tspan x="0.136406" y="23.04">Status Icons</tspan></text>
<rect y="42.3057" width="1360" height="1" fill="#BDBDBD"/>
<rect y="74.9248" width="1360" height="756" rx="6" fill="white"/>
<text opacity="0.7" fill="#232323" xml:space="preserve" style="white-space: pre" font-family="FK Grotesk Neue" font-size="10" letter-spacing="-0.03em"><tspan x="201.28" y="160.848">Glasses</tspan></text>
<path d="M213.999 129.65H205.999V127.65H213.999V129.65ZM230.001 129.65H222.001V127.65H230.001V129.65ZM220 121.65H220.001V123.65H216.002V127.648H214.002V123.648H216.001V119.647H220V121.65ZM222.002 127.648H220.002V123.648H222.002V127.648ZM215.999 119.648H206V127.647H204V119.647H205.999V117.648H215.999V119.648ZM230.002 119.647H232V127.647H230V119.648H220.002V117.648H230.002V119.647Z" fill="#232323"/>
<text opacity="0.7" fill="#232323" xml:space="preserve" style="white-space: pre" font-family="FK Grotesk Neue" font-size="10" letter-spacing="-0.03em"><tspan x="316.096" y="160.848">Glasses Battery</tspan></text>
<path d="M362 132.648H352V130.648H362V132.648ZM352 130.648H350V125.648H352V130.648ZM364 126.648H365V129.648H364V130.648H362V125.648H364V126.648ZM345.999 127.65H337.999V125.65H345.999V127.65ZM351.999 119.65H352.001V121.65H348.001V125.648H346.001V121.648H348.001V117.647H351.999V119.65ZM362 125.648H352V123.648H362V125.648ZM347.999 117.648H338V125.647H336V117.647H337.999V115.648H347.999V117.648ZM362.002 117.648H364V121.648H362V117.648H352.002V115.648H362.002V117.648Z" fill="#232323"/>
<text opacity="0.7" fill="#232323" xml:space="preserve" style="white-space: pre" font-family="FK Grotesk Neue" font-size="10" letter-spacing="-0.03em"><tspan x="444.252" y="160.848">Glasses Charging</tspan></text>
<path d="M484 125.648H494V130.648H484V125.648Z" fill="#FEF991"/>
<path d="M468 117.647H470V125.647H468V117.647Z" fill="#232323"/>
<path d="M484 123.648H494V125.648H484V123.648Z" fill="#232323"/>
<path d="M484 130.648H494V132.648H484V130.648Z" fill="#232323"/>
<path d="M481.999 117.647H483.999V121.647H481.999V117.647Z" fill="#232323"/>
<path d="M480.001 117.647H482.001V121.647H480.001V117.647Z" fill="#232323"/>
<path d="M480.001 119.65H484.001V121.65H480.001V119.65Z" fill="#232323"/>
<path d="M478.001 121.648H480.001V125.649H478.001V121.648Z" fill="#232323"/>
<path d="M494 117.648H496V121.648H494V117.648Z" fill="#232323"/>
<path d="M469.999 115.648H479.999V117.649H469.999V115.648Z" fill="#232323"/>
<path d="M484.002 115.648H494.002V117.649H484.002V115.648Z" fill="#232323"/>
<path d="M469.999 125.65H477.999V127.65H469.999V125.65Z" fill="#232323"/>
<path d="M494 125.648H496V130.648H494V125.648Z" fill="#232323"/>
<path d="M496 126.648H497V129.648H496V126.648Z" fill="#232323"/>
<rect x="482" y="125.648" width="2" height="5" fill="#232323"/>
<text opacity="0.7" fill="#232323" xml:space="preserve" style="white-space: pre" font-family="FK Grotesk Neue" font-size="10" letter-spacing="-0.03em"><tspan x="603.226" y="160.848">Case</tspan></text>
<path d="M626 131.648H602V129.648H626V131.648ZM602 125.648H626V116.648H628V129.648H626V127.648H602V129.648H600V116.648H602V125.648ZM616 123.648H612V121.648H616V123.648ZM626 116.648H602V114.648H626V116.648Z" fill="#232323"/>
<text opacity="0.7" fill="#232323" xml:space="preserve" style="white-space: pre" font-family="FK Grotesk Neue" font-size="10" letter-spacing="-0.03em"><tspan x="718.062" y="160.848">Case Battery</tspan></text>
<path d="M758 133.648H748V131.648H758V133.648ZM744 131.648H734V129.648H744V131.648ZM748 131.648H746V126.648H748V131.648ZM760 127.648H761V130.648H760V131.648H758V126.648H760V127.648ZM734 125.648H744V127.648H734V129.648H732V116.648H734V125.648ZM758 126.648H748V124.648H758V126.648ZM748 123.648H744V121.648H748V123.648ZM760 122.648H758V116.648H760V122.648ZM758 116.648H734V114.648H758V116.648Z" fill="#232323"/>
<text opacity="0.7" fill="#232323" xml:space="preserve" style="white-space: pre" font-family="FK Grotesk Neue" font-size="10" letter-spacing="-0.03em"><tspan x="846.218" y="160.848">Case Charging</tspan></text>
<path fill-rule="evenodd" clip-rule="evenodd" d="M866 129.648L876 129.648L876 131.648L866 131.648L866 129.648Z" fill="#232323"/>
<path fill-rule="evenodd" clip-rule="evenodd" d="M866 114.648L890 114.648L890 116.648L866 116.648L866 114.648Z" fill="#232323"/>
<path fill-rule="evenodd" clip-rule="evenodd" d="M866 125.648L876 125.648L876 127.648L866 127.648L866 125.648Z" fill="#232323"/>
<rect x="864" y="116.648" width="2" height="13" fill="#232323"/>
<rect x="890" y="116.648" width="2" height="6" fill="#232323"/>
<rect x="876" y="121.648" width="4" height="2" fill="#232323"/>
<path d="M880 124.648H890V126.648H880V124.648Z" fill="#232323"/>
<path d="M880 126.648H890V131.648H880V126.648Z" fill="#FEF991"/>
<path d="M880 131.648H890V133.648H880V131.648Z" fill="#232323"/>
<path d="M890 126.648H892V131.648H890V126.648Z" fill="#232323"/>
<path d="M892 127.648H893V130.648H892V127.648Z" fill="#232323"/>
<rect x="878" y="126.648" width="2" height="5" fill="#232323"/>
<text opacity="0.7" fill="#232323" xml:space="preserve" style="white-space: pre" font-family="FK Grotesk Neue" font-size="10" letter-spacing="-0.03em"><tspan x="987.241" y="160.848">Brightness</tspan></text>
<path d="M1011 137.648H1009V135.648H1011V137.648ZM1000 135.648H998V133.648H1000V135.648ZM1022 133.648V135.648H1020V133.648H1022ZM1015 130.648H1005V128.648H1015V130.648ZM1005 128.648H1003V118.648H1005V128.648ZM1017 128.648H1015V118.648H1017V128.648ZM998 124.648H996V122.648H998V124.648ZM1024 124.648H1022V122.648H1024V124.648ZM1015 118.648H1005V116.648H1015V118.648ZM1000 113.648H998V111.648H1000V113.648ZM1022 113.648H1020V111.648H1022V113.648ZM1011 111.648H1009V109.648H1011V111.648Z" fill="#232323"/>
<text opacity="0.7" fill="#232323" xml:space="preserve" style="white-space: pre" font-family="FK Grotesk Neue" font-size="10" letter-spacing="-0.03em"><tspan x="1106.35" y="160.848">Brightness_Auto</tspan></text>
<path d="M1146 133.648H1153V130.648H1155V137.648H1153V135.648H1146V137.648H1144V130.648H1146V133.648ZM1132 135.648H1130V133.648H1132V135.648ZM1141 130.648H1137V128.648H1141V130.648ZM1148 130.648H1146V127.648H1148V130.648ZM1153 130.648H1151V127.648H1153V130.648ZM1137 128.648H1135V118.648H1137V128.648ZM1151 127.648H1148V125.648H1151V127.648ZM1130 124.648H1128V122.648H1130V124.648ZM1156 124.648H1154V122.648H1156V124.648ZM1149 122.648H1147V118.648H1149V122.648ZM1147 118.648H1137V116.648H1147V118.648ZM1132 113.648H1130V111.648H1132V113.648ZM1154 113.648H1152V111.648H1154V113.648ZM1143 111.648H1141V109.648H1143V111.648Z" fill="#232323"/>
<text opacity="0.7" fill="#232323" xml:space="preserve" style="white-space: pre" font-family="FK Grotesk Neue" font-size="10" letter-spacing="-0.03em"><tspan x="188.058" y="266.848">Disconnected</tspan></text>
<g clip-path="url(#clip1_10001_76691)">
<path d="M227 242.648H222V240.648H227V242.648ZM209.001 240.648H207.001V238.648H209.001V240.648ZM222 240.648H220V238.648H222V240.648ZM229 240.648H227V238.648H229V240.648ZM211.001 238.648H209.001V236.648H211.001V238.648ZM220 238.648H218V236.648H220V238.648ZM231 238.648H229V233.648H231V238.648ZM213.001 236.648H211.001V234.648H213.001V236.648ZM217 232.648H215.001V234.648H213.001V232.648H215V230.648H217V232.648ZM229 233.648H227V231.648H229V233.648ZM227 231.648H225V229.648H227V231.648ZM211 229.648H209V227.648H211V229.648ZM221 228.648H219V226.648H221V228.648ZM209 227.648H207V225.648H209V227.648ZM223.001 226.648H221.001V224.648H223.001V226.648ZM207 225.648H205V220.648H207V225.648ZM225.001 224.648H223.001V222.648H225.001V224.648ZM218 222.648H216V220.648H218V222.648ZM227.001 222.648H225.001V220.648H227.001V222.648ZM209 220.648H207V218.648H209V220.648ZM216 220.648H214V218.648H216V220.648ZM229.001 220.648H227.001V218.648H229.001V220.648ZM214 218.648H209V216.648H214V218.648Z" fill="#232323"/>
</g>
<text opacity="0.7" fill="#232323" xml:space="preserve" style="white-space: pre" font-family="FK Grotesk Neue" font-size="10" letter-spacing="-0.03em"><tspan x="334.192" y="266.848">Unbind</tspan></text>
<g clip-path="url(#clip2_10001_76691)">
<path d="M352 240.648H350V236.648H339V234.648H350V230.648H339V228.648H350V224.648H339V222.648H350V218.648H352V240.648ZM361 236.648H354V234.648H361V236.648ZM339 234.648H337V232.648H339V234.648ZM363 234.648H361V232.648H363V234.648ZM337 232.648H335V226.648H337V232.648ZM365 232.648H363V226.648H365V232.648ZM361 230.648H355V228.648H361V230.648ZM339 226.648H337V224.648H339V226.648ZM363 226.648H361V224.648H363V226.648ZM361 224.648H354V222.648H361V224.648Z" fill="#232323"/>
</g>
<text opacity="0.7" fill="#232323" xml:space="preserve" style="white-space: pre" font-family="FK Grotesk Neue" font-size="10" letter-spacing="-0.03em"><tspan x="461.1" y="266.848">Bluetooth</tspan></text>
<g clip-path="url(#clip3_10001_76691)">
<path d="M485.998 242.646H483.998V240.646H485.998V242.646ZM489.997 238.647H487.998V240.646H485.998V238.646H487.997V236.647H489.997V238.647ZM483.998 228.647H485.998V230.646H487.998V232.646H485.998V230.647H483.998V240.645H481.998V231.648H480V227.648H481.998V218.647H483.998V228.647ZM474 239.648H472V237.648H474V239.648ZM476 237.648H474V235.648H476V237.648ZM492 236.646H490V234.646H492V236.646ZM478 235.648H476V233.648H478V235.648ZM489.997 234.647H487.997V232.647H489.997V234.647ZM480 233.648H478V231.648H480V233.648ZM487.998 228.648H485.998V226.648H487.998V228.648ZM480 227.648H478V225.648H480V227.648ZM489.997 226.647H487.997V224.647H489.997V226.647ZM478 225.648H476V223.648H478V225.648ZM492 224.647H490V222.647H492V224.647ZM476 223.648H474V221.648H476V223.648ZM489.997 222.648H487.997V220.648H489.997V222.648ZM474 221.648H472V219.648H474V221.648ZM487.998 220.647H485.998V218.647H487.998V220.647ZM485.998 218.648H483.998V216.648H485.998V218.648Z" fill="#232323"/>
</g>
<text opacity="0.7" fill="#232323" xml:space="preserve" style="white-space: pre" font-family="FK Grotesk Neue" font-size="10" letter-spacing="-0.03em"><tspan x="562.052" y="266.848">Bluetooth Disconnected</tspan></text>
<path d="M617.997 242.646H615.997V240.646H617.997V242.646ZM619.997 240.646H617.997V238.646H619.997V240.646ZM615.997 240.644H613.997V231.648H615.997V240.644ZM606 239.648H604V237.648H606V239.648ZM621.997 238.646H619.997V236.646H621.997V238.646ZM608 237.648H606V235.648H608V237.648ZM624 236.646H622V234.646H624V236.646ZM610 235.648H608V233.648H610V235.648ZM621.997 234.646H619.997V232.646H621.997V234.646ZM612 233.648H610V231.648H612V233.648ZM612 227.648H610V225.648H612V227.648ZM617.997 218.646H619.997V220.646H617.997V218.648H615.997V227.648H613.997V218.646H615.997V216.648H617.997V218.646ZM621.997 226.646H619.997V224.646H621.997V226.646ZM610 225.648H608V223.648H610V225.648ZM624 224.646H622V222.646H624V224.646ZM608 223.648H606V221.648H608V223.648ZM621.997 222.648H619.997V220.648H621.997V222.648ZM606 221.648H604V219.648H606V221.648Z" fill="#FF453A"/>
<text opacity="0.7" fill="#232323" xml:space="preserve" style="white-space: pre" font-family="FK Grotesk Neue" font-size="10" letter-spacing="-0.03em"><tspan x="725.137" y="266.848">Undisturb</tspan></text>
<g clip-path="url(#clip4_10001_76691)">
<path d="M744.001 239.148H752V241.148H744V239.148H740.001V237.148H744.001V239.148ZM754 239.148H752V237.148H754V239.148ZM740 237.148H738V233.148H740V237.148ZM752 237.148H748V235.148H752V237.148ZM748 235.148H746V233.148H748V235.148ZM738 226.148V233.148H736V226.148H738ZM746 233.148H744V226.148H746V233.148ZM748 226.148H746V224.148H748V226.148ZM740 226.147H738V222.147H740V226.147ZM752 224.147H748V222.147H752V224.147ZM744 222.148H740V220.148H744V222.148ZM754 222.148H752V220.148H754V222.148ZM752 220.148H744V218.148H752V220.148Z" fill="#232323"/>
</g>
<text opacity="0.7" fill="#232323" xml:space="preserve" style="white-space: pre" font-family="FK Grotesk Neue" font-size="10" letter-spacing="-0.03em"><tspan x="852.288" y="266.848">Battery_Full</tspan></text>
<g clip-path="url(#clip5_10001_76691)">
<path d="M888 237.648H865V235.648H888V237.648ZM865 235.648H863V223.648H865V235.648ZM890 226.648H892V232.648H890V235.648H888V223.648H890V226.648ZM870 233.648H868V225.648H870V233.648ZM875 233.648H873V225.648H875V233.648ZM880 233.648H878V225.648H880V233.648ZM885 233.648H883V225.648H885V233.648ZM888 223.648H865V221.648H888V223.648Z" fill="#232323"/>
</g>
<text opacity="0.7" fill="#232323" xml:space="preserve" style="white-space: pre" font-family="FK Grotesk Neue" font-size="10" letter-spacing="-0.03em"><tspan x="982.273" y="266.848">Battery_75%</tspan></text>
<g clip-path="url(#clip6_10001_76691)">
<path d="M1020 237.648H997V235.648H1020V237.648ZM997 235.648H995V223.648H997V235.648ZM1022 226.648H1024V232.648H1022V235.648H1020V223.648H1022V226.648ZM1002 233.648H1000V225.648H1002V233.648ZM1007 233.648H1005V225.648H1007V233.648ZM1012 233.648H1010V225.648H1012V233.648ZM1020 223.648H997V221.648H1020V223.648Z" fill="#232323"/>
</g>
<text opacity="0.7" fill="#232323" xml:space="preserve" style="white-space: pre" font-family="FK Grotesk Neue" font-size="10" letter-spacing="-0.03em"><tspan x="1114.24" y="266.848">Battery_50%</tspan></text>
<g clip-path="url(#clip7_10001_76691)">
<path d="M1152 237.648H1129V235.648H1152V237.648ZM1129 235.648H1127V223.648H1129V235.648ZM1154 226.648H1156V232.648H1154V235.648H1152V223.648H1154V226.648ZM1134 233.648H1132V225.648H1134V233.648ZM1139 233.648H1137V225.648H1139V233.648ZM1152 223.648H1129V221.648H1152V223.648Z" fill="#232323"/>
</g>
<text opacity="0.7" fill="#232323" xml:space="preserve" style="white-space: pre" font-family="FK Grotesk Neue" font-size="10" letter-spacing="-0.03em"><tspan x="191.237" y="372.848">Battery_Low</tspan></text>
<g clip-path="url(#clip8_10001_76691)">
<path d="M228 343.648H205V341.648H228V343.648ZM205 341.648H203V329.648H205V341.648ZM230 332.648H232V338.648H230V341.648H228V329.648H230V332.648ZM210 339.648H208V331.648H210V339.648ZM228 329.648H205V327.648H228V329.648Z" fill="#232323"/>
</g>
<text opacity="0.7" fill="#232323" xml:space="preserve" style="white-space: pre" font-family="FK Grotesk Neue" font-size="10" letter-spacing="-0.03em"><tspan x="319.257" y="372.848">Battery_Dying</tspan></text>
<g clip-path="url(#clip9_10001_76691)">
<path fill-rule="evenodd" clip-rule="evenodd" d="M337 341.648L360 341.648L360 343.648L337 343.648L337 341.648Z" fill="#232323"/>
<path fill-rule="evenodd" clip-rule="evenodd" d="M337 327.648L360 327.648L360 329.648L337 329.648L337 327.648Z" fill="#232323"/>
<rect x="360" y="329.648" width="2" height="12" fill="#232323"/>
<rect x="362" y="332.648" width="2" height="6" fill="#232323"/>
<rect x="335" y="329.648" width="2" height="12" fill="#232323"/>
<rect x="340" y="331.648" width="2" height="8" fill="#FF453A"/>
</g>
<text opacity="0.7" fill="#232323" xml:space="preserve" style="white-space: pre" font-family="FK Grotesk Neue" font-size="10" letter-spacing="-0.03em"><tspan x="464.035" y="372.848">1st Floor</tspan></text>
<path d="M474 348.648H472V346.648H474V348.648ZM478 348.648H476V346.648H478V348.648ZM482 348.648H480V346.648H482V348.648ZM486 348.648H484V346.648H486V348.648ZM490 348.648H488V346.648H490V348.648ZM494 348.648H492V346.648H494V348.648ZM472 346.648H470V344.648H472V346.648ZM476 346.648H474V344.648H476V346.648ZM480 346.648H478V344.648H480V346.648ZM484 346.648H482V344.648H484V346.648ZM488 346.648H486V344.648H488V346.648ZM492 346.648H490V344.648H492V346.648ZM474 344.648H472V342.648H474V344.648ZM478 344.648H476V342.648H478V344.648ZM482 344.648H480V342.648H482V344.648ZM486 344.648H484V342.648H486V344.648ZM490 344.648H488V342.648H490V344.648ZM494 344.648H492V342.648H494V344.648ZM472 342.648H470V340.648H472V342.648ZM476 342.648H474V340.648H476V342.648ZM480 342.648H478V340.648H480V342.648ZM484 342.648H482V340.648H484V342.648ZM488 342.648H486V340.648H488V342.648ZM492 342.648H490V340.648H492V342.648ZM474 340.648H472V338.648H474V340.648ZM478 340.648H476V338.648H478V340.648ZM482 340.648H480V338.648H482V340.648ZM486 340.648H484V338.648H486V340.648ZM490 340.648H488V338.648H490V340.648ZM494 340.648H492V338.648H494V340.648ZM496 336.648H468V334.648H496V336.648Z" fill="#232323"/>
<text opacity="0.7" fill="#232323" xml:space="preserve" style="white-space: pre" font-family="FK Grotesk Neue" font-size="10" letter-spacing="-0.03em"><tspan x="593.247" y="372.848">2nd Floor</tspan></text>
<path d="M628 336.648H600V334.648H628V336.648ZM606 332.648H604V330.648H606V332.648ZM610 332.648H608V330.648H610V332.648ZM614 332.648H612V330.648H614V332.648ZM618 332.648H616V330.648H618V332.648ZM622 332.648H620V330.648H622V332.648ZM626 332.648H624V330.648H626V332.648ZM604 330.648H602V328.648H604V330.648ZM608 330.648H606V328.648H608V330.648ZM612 330.648H610V328.648H612V330.648ZM616 330.648H614V328.648H616V330.648ZM620 330.648H618V328.648H620V330.648ZM624 330.648H622V328.648H624V330.648ZM606 328.648H604V326.648H606V328.648ZM610 328.648H608V326.648H610V328.648ZM614 328.648H612V326.648H614V328.648ZM618 328.648H616V326.648H618V328.648ZM622 328.648H620V326.648H622V328.648ZM626 328.648H624V326.648H626V328.648ZM604 326.648H602V324.648H604V326.648ZM608 326.648H606V324.648H608V326.648ZM612 326.648H610V324.648H612V326.648ZM616 326.648H614V324.648H616V326.648ZM620 326.648H618V324.648H620V326.648ZM624 326.648H622V324.648H624V326.648ZM606 324.648H604V322.648H606V324.648ZM610 324.648H608V322.648H610V324.648ZM614 324.648H612V322.648H614V324.648ZM618 324.648H616V322.648H618V324.648ZM622 324.648H620V322.648H622V324.648ZM626 324.648H624V322.648H626V324.648Z" fill="#232323"/>
<text opacity="0.7" fill="#232323" xml:space="preserve" style="white-space: pre" font-family="FK Grotesk Neue" font-size="10" letter-spacing="-0.03em"><tspan x="734.087" y="372.848">FAQs</tspan></text>
<g clip-path="url(#clip10_10001_76691)">
<path d="M756 347.648H736V345.648H756V347.648ZM736 345.648H734V325.648H736V345.648ZM758 345.648H756V325.648H758V345.648ZM747 343.648H745V341.648H747V343.648ZM747 340.648H745V335.648H747V340.648ZM749 335.648H747V333.648H749V335.648ZM743 333.648H741V329.648H743V333.648ZM751 333.648H749V329.648H751V333.648ZM749 329.648H743V327.648H749V329.648ZM756 325.648H736V323.648H756V325.648Z" fill="#232323"/>
</g>
<text opacity="0.7" fill="#232323" xml:space="preserve" style="white-space: pre" font-family="FK Grotesk Neue" font-size="10" letter-spacing="-0.03em"><tspan x="869.127" y="372.848">Info.</tspan></text>
<g clip-path="url(#clip11_10001_76691)">
<path d="M888 347.648H868V345.648H888V347.648ZM868 345.648H866V325.648H868V345.648ZM890 345.648H888V325.648H890V345.648ZM879 340.648H880V342.648H876V340.648H877V334.648H876V332.648H879V340.648ZM879 330.648H877V328.648H879V330.648ZM888 325.648H868V323.648H888V325.648Z" fill="#232323"/>
</g>
<text opacity="0.7" fill="#232323" xml:space="preserve" style="white-space: pre" font-family="FK Grotesk Neue" font-size="10" letter-spacing="-0.03em"><tspan x="1000.23" y="372.848">Alart</tspan></text>
<g opacity="0.9">
<path d="M1020 347.648H1000V345.648H1020V347.648ZM1000 345.648H998V325.648H1000V345.648ZM1022 345.648H1020V325.648H1022V345.648ZM1011 342.648H1009V340.648H1011V342.648ZM1011 338.648H1009V328.648H1011V338.648ZM1020 325.648H1000V323.648H1020V325.648Z" fill="#232323"/>
</g>
<text opacity="0.7" fill="#232323" xml:space="preserve" style="white-space: pre" font-family="FK Grotesk Neue" font-size="10" letter-spacing="-0.03em"><tspan x="1124.1" y="372.848">Grabber</tspan></text>
<g clip-path="url(#clip12_10001_76691)">
<path d="M1154 344.648H1130V342.648H1154V344.648ZM1154 336.648H1130V334.648H1154V336.648ZM1154 328.648H1130V326.648H1154V328.648Z" fill="#232323"/>
</g>
<text opacity="0.7" fill="#232323" xml:space="preserve" style="white-space: pre" font-family="FK Grotesk Neue" font-size="10" letter-spacing="-0.03em"><tspan x="208.426" y="478.848">Fast</tspan></text>
<path d="M217 445.648H219V447.648H220V449.648H223V448.648H225V450.648H223V451.648H211V449.648H218V447.648H217V446.648H215V444.648H217V445.648ZM211 449.648H209V447.648H208V445.648H206V443.648H209V441.648H211V443.648H210V447.648H211V449.648ZM229 448.648H225V446.648H229V448.648ZM232 444.648H231V446.648H229V444.648H230V440.648H232V444.648ZM206 443.648H204V439.648H206V443.648ZM222 437.648H223V439.648H222V441.648H220V440.648H213V441.648H211V440.648H209V439.648H206V437.648H209V438.648H211V439.648H213V438.648H220V439.648H221V437.648H220V435.648H222V437.648ZM230 440.648H228V438.648H230V440.648ZM228 438.648H226V436.648H228V438.648ZM226 436.648H224V434.648H226V436.648ZM220 435.648H218V432.648H220V435.648ZM224 434.648H222V432.648H224V434.648ZM222 432.648H220V430.648H222V432.648Z" fill="#232323"/>
<text opacity="0.7" fill="#232323" xml:space="preserve" style="white-space: pre" font-family="FK Grotesk Neue" font-size="10" letter-spacing="-0.03em"><tspan x="339.464" y="478.848">Slow</tspan></text>
<path d="M343 450.648H338V448.648H343V450.648ZM359 450.648H355V448.648H359V450.648ZM352 433.648H354V434.648H356V436.648H357V437.648H358V438.648H363V439.648H365V444.648H363V440.648H358V441.648H359V444.648H363V446.648H361V448.648H359V446.648H355V448.648H353V447.648H345V448.648H343V447.648H342V446.648H340V445.648H339V446.648H338V448.648H336V446.648H337V444.648H338V441.648H339V437.648H340V436.648H341V434.648H343V433.648H345V432.648H352V433.648ZM345 435.648H343V436.648H342V438.648H341V441.648H340V444.648H342V445.648H355V444.648H357V441.648H356V438.648H355V436.648H354V435.648H352V434.648H345V435.648Z" fill="#232323"/>
<text opacity="0.7" fill="#232323" xml:space="preserve" style="white-space: pre" font-family="FK Grotesk Neue" font-size="10" letter-spacing="-0.03em"><tspan x="460.023" y="478.848">Checkbox</tspan></text>
<path d="M489 450.648H475V448.648H489V450.648ZM475 448.648H473V434.648H475V448.648ZM491 448.648H489V434.648H491V448.648ZM489 434.648H475V432.648H489V434.648Z" fill="#232323"/>
<text opacity="0.7" fill="#232323" xml:space="preserve" style="white-space: pre" font-family="FK Grotesk Neue" font-size="10" letter-spacing="-0.03em"><tspan x="606.112" y="478.848">Dot</tspan></text>
<g clip-path="url(#clip13_10001_76691)">
<path d="M616 439.648H617V443.648H616V444.648H612V443.648H611V439.648H612V438.648H616V439.648Z" fill="#232323"/>
</g>
<text opacity="0.7" fill="#232323" xml:space="preserve" style="white-space: pre" font-family="FK Grotesk Neue" font-size="10" letter-spacing="-0.03em"><tspan x="727.45" y="478.848">Clickbox</tspan></text>
<path d="M751 448.648H741V446.648H751V448.648ZM741 446.648H739V436.648H741V446.648ZM753 446.648H751V436.648H753V446.648ZM751 436.648H741V434.648H751V436.648Z" fill="#232323"/>
<text opacity="0.7" fill="#232323" xml:space="preserve" style="white-space: pre" font-family="FK Grotesk Neue" font-size="10" letter-spacing="-0.03em"><tspan x="859.438" y="478.848">Selected</tspan></text>
<path d="M883 448.648H873V446.648H883V448.648ZM873 446.648H871V436.648H873V446.648ZM885 446.648H883V436.648H885V446.648ZM880 443.648H876V439.648H880V443.648ZM883 436.648H873V434.648H883V436.648Z" fill="#232323"/>
<text opacity="0.7" fill="#232323" xml:space="preserve" style="white-space: pre" font-family="FK Grotesk Neue" font-size="10" letter-spacing="-0.03em"><tspan x="981.357" y="478.848">Selected Box</tspan></text>
<path d="M1020 431.648H1022V451.648H1020V453.648H1000V451.648H998V431.648H1000V429.648H1020V431.648ZM1016 438.648H1014V440.648H1012V442.648H1010V444.648H1008V446.648H1006V444.648H1004V442.648H1002V444.648H1004V446.648H1006V448.648H1008V446.648H1010V444.648H1012V442.648H1014V440.648H1016V438.648H1018V436.648H1016V438.648Z" fill="#232323"/>
<text opacity="0.7" fill="#232323" xml:space="preserve" style="white-space: pre" font-family="FK Grotesk Neue" font-size="10" letter-spacing="-0.03em"><tspan x="1108.41" y="478.848">Unselected Box</tspan></text>
<path d="M1151 452.648H1133V450.648H1151V452.648ZM1133 450.648H1131V432.648H1133V450.648ZM1153 450.648H1151V432.648H1153V450.648ZM1151 432.648H1133V430.648H1151V432.648Z" fill="#232323"/>
<text opacity="0.7" fill="#232323" xml:space="preserve" style="white-space: pre" font-family="FK Grotesk Neue" font-size="10" letter-spacing="-0.03em"><tspan x="197.465" y="584.848">Complete</tspan></text>
<g clip-path="url(#clip14_10001_76691)">
<path d="M214 557.648H212V555.648H214V557.648ZM212 555.648H210V553.648H212V555.648ZM216 555.648H214V553.648H216V555.648ZM210 553.648H208V551.648H210V553.648ZM218 553.648H216V551.648H218V553.648ZM208 551.648H206V549.648H208V551.648ZM220 551.648H218V549.648H220V551.648ZM206 549.648H204V547.648H206V549.648ZM222 549.648H220V547.648H222V549.648ZM224 547.648H222V545.648H224V547.648ZM226 545.648H224V543.648H226V545.648ZM228 543.648H226V541.648H228V543.648ZM230 541.648H228V539.648H230V541.648ZM232 539.648H230V537.648H232V539.648Z" fill="#232323"/>
</g>
<text opacity="0.7" fill="#232323" xml:space="preserve" style="white-space: pre" font-family="FK Grotesk Neue" font-size="10" letter-spacing="-0.03em"><tspan x="325.096" y="584.848">Checkmark</tspan></text>
<path d="M347 555.648H345V553.648H347V555.648ZM345 553.648H343V551.648H345V553.648ZM349 553.648H347V551.648H349V553.648ZM343 551.648H341V549.648H343V551.648ZM351 551.648H349V549.648H351V551.648ZM341 549.648H339V547.648H341V549.648ZM353 549.648H351V547.648H353V549.648ZM355 547.648H353V545.648H355V547.648ZM357 545.648H355V543.648H357V545.648ZM359 543.648H357V541.648H359V543.648ZM361 541.648H359V539.648H361V541.648Z" fill="#232323"/>
<text opacity="0.7" fill="#232323" xml:space="preserve" style="white-space: pre" font-family="FK Grotesk Neue" font-size="10" letter-spacing="-0.03em"><tspan x="462.154" y="584.848">Eye open</tspan></text>
<path d="M488 556.648H476V554.648H488V556.648ZM476 554.648H472V552.648H476V554.648ZM492 554.648H488V552.648H492V554.648ZM472 552.648H470V550.648H472V552.648ZM485 552.648H479V550.648H485V552.648ZM494 552.648H492V550.648H494V552.648ZM470 550.648H468V548.648H470V550.648ZM479 550.648H477V544.648H479V550.648ZM487 550.648H485V544.648H487V550.648ZM496 550.648H494V548.648H496V550.648ZM468 548.648H466V546.648H468V548.648ZM498 546.648V548.648H496V546.648H498ZM470 546.648H468V544.648H470V546.648ZM496 546.648H494V544.648H496V546.648ZM472 544.648H470V542.648H472V544.648ZM485 544.648H479V542.648H485V544.648ZM494 544.648H492V542.648H494V544.648ZM476 542.648H472V540.648H476V542.648ZM492 542.648H488V540.648H492V542.648ZM488 540.648H476V538.648H488V540.648Z" fill="#232323"/>
<text opacity="0.7" fill="#232323" xml:space="preserve" style="white-space: pre" font-family="FK Grotesk Neue" font-size="10" letter-spacing="-0.03em"><tspan x="590.482" y="584.848">Eye closed</tspan></text>
<path d="M608 553.648H606V551.648H608V553.648ZM622 553.648H620V551.648H622V553.648ZM604 551.648H602V549.648H604V551.648ZM620 551.648H608V549.648H620V551.648ZM626 551.648H624V549.648H626V551.648ZM608 549.648H604V547.648H608V549.648ZM624 549.648H620V547.648H624V549.648ZM604 547.648H602V545.648H604V547.648ZM626 547.648H624V545.648H626V547.648ZM602 545.648H600V543.648H602V545.648ZM628 545.648H626V543.648H628V545.648ZM600 543.648H598V541.648H600V543.648ZM630 541.648V543.648H628V541.648H630Z" fill="#232323"/>
<text opacity="0.7" fill="#232323" xml:space="preserve" style="white-space: pre" font-family="FK Grotesk Neue" font-size="10" letter-spacing="-0.03em"><tspan x="734.338" y="584.848">Good</tspan></text>
<rect x="733" y="545.648" width="2" height="10" fill="#7B7B7B"/>
<rect x="737" y="545.648" width="2" height="10" fill="#7B7B7B"/>
<rect x="735" y="543.648" width="2" height="2" fill="#7B7B7B"/>
<rect x="739" y="543.648" width="2" height="2" fill="#7B7B7B"/>
<rect x="741" y="541.648" width="2" height="2" fill="#7B7B7B"/>
<rect x="743" y="539.648" width="2" height="2" fill="#7B7B7B"/>
<rect x="745" y="537.648" width="2" height="2" fill="#7B7B7B"/>
<rect x="747" y="535.648" width="2" height="2" fill="#7B7B7B"/>
<rect x="749" y="533.648" width="2" height="2" fill="#7B7B7B"/>
<rect x="756" y="545.648" width="2" height="6" fill="#7B7B7B"/>
<rect x="754" y="551.648" width="2" height="4" fill="#7B7B7B"/>
<rect x="752" y="555.648" width="2" height="2" fill="#7B7B7B"/>
<rect x="739" y="555.648" width="2" height="2" fill="#7B7B7B"/>
<rect x="741" y="557.648" width="11" height="2" fill="#7B7B7B"/>
<rect x="747" y="543.648" width="9" height="2" fill="#7B7B7B"/>
<rect x="751" y="535.648" width="2" height="4" fill="#7B7B7B"/>
<rect x="749" y="539.648" width="2" height="4" fill="#7B7B7B"/>
<rect x="735" y="555.648" width="2" height="2" fill="#7B7B7B"/>
<text opacity="0.7" fill="#232323" xml:space="preserve" style="white-space: pre" font-family="FK Grotesk Neue" font-size="10" letter-spacing="-0.03em"><tspan x="847.033" y="584.848">Good Pressed</tspan></text>
<rect x="865" y="545.648" width="2" height="10" fill="#7B7B7B"/>
<rect x="867" y="545.648" width="2" height="10" fill="#7B7B7B"/>
<rect x="879" y="545.648" width="5" height="12" fill="#7B7B7B"/>
<rect x="871" y="545.648" width="2" height="10" fill="#7B7B7B"/>
<rect x="884" y="545.648" width="2" height="10" fill="#7B7B7B"/>
<rect x="873" y="543.648" width="2" height="14" fill="#7B7B7B"/>
<rect x="875" y="541.648" width="2" height="16" fill="#7B7B7B"/>
<rect x="877" y="539.648" width="2" height="18" fill="#7B7B7B"/>
<rect x="867" y="543.648" width="2" height="2" fill="#7B7B7B"/>
<rect x="871" y="543.648" width="2" height="2" fill="#7B7B7B"/>
<rect x="873" y="541.648" width="2" height="2" fill="#7B7B7B"/>
<rect x="875" y="539.648" width="2" height="2" fill="#7B7B7B"/>
<rect x="877" y="537.648" width="2" height="2" fill="#7B7B7B"/>
<rect x="879" y="535.648" width="2" height="2" fill="#7B7B7B"/>
<rect x="881" y="533.648" width="2" height="2" fill="#7B7B7B"/>
<rect x="888" y="545.648" width="2" height="6" fill="#7B7B7B"/>
<rect x="886" y="545.648" width="2" height="6" fill="#7B7B7B"/>
<rect x="879" y="537.648" width="2" height="6" fill="#7B7B7B"/>
<rect x="886" y="551.648" width="2" height="4" fill="#7B7B7B"/>
<rect x="884" y="555.648" width="2" height="2" fill="#7B7B7B"/>
<rect x="871" y="555.648" width="2" height="2" fill="#7B7B7B"/>
<rect x="873" y="557.648" width="11" height="2" fill="#7B7B7B"/>
<rect x="879" y="543.648" width="9" height="2" fill="#7B7B7B"/>
<rect x="883" y="535.648" width="2" height="4" fill="#7B7B7B"/>
<rect x="881" y="535.648" width="2" height="4" fill="#7B7B7B"/>
<rect x="881" y="539.648" width="2" height="2" fill="#7B7B7B"/>
<rect x="867" y="555.648" width="2" height="2" fill="#7B7B7B"/>
<text opacity="0.7" fill="#232323" xml:space="preserve" style="white-space: pre" font-family="FK Grotesk Neue" font-size="10" letter-spacing="-0.03em"><tspan x="1001.11" y="584.848">Bad</tspan></text>
<rect x="1020" y="539.648" width="2" height="10" fill="#7B7B7B"/>
<rect x="1016" y="539.648" width="2" height="10" fill="#7B7B7B"/>
<rect x="1018" y="549.648" width="2" height="2" fill="#7B7B7B"/>
<rect x="1014" y="549.648" width="2" height="2" fill="#7B7B7B"/>
<rect x="1012" y="551.648" width="2" height="2" fill="#7B7B7B"/>
<rect x="1010" y="553.648" width="2" height="2" fill="#7B7B7B"/>
<rect x="1008" y="555.648" width="2" height="2" fill="#7B7B7B"/>
<rect x="1006" y="557.648" width="2" height="2" fill="#7B7B7B"/>
<rect x="1004" y="559.648" width="2" height="2" fill="#7B7B7B"/>
<rect x="997" y="543.648" width="2" height="6" fill="#7B7B7B"/>
<rect x="999" y="539.648" width="2" height="4" fill="#7B7B7B"/>
<rect x="1001" y="537.648" width="2" height="2" fill="#7B7B7B"/>
<rect x="1014" y="537.648" width="2" height="2" fill="#7B7B7B"/>
<rect x="1003" y="535.648" width="11" height="2" fill="#7B7B7B"/>
<rect x="999" y="549.648" width="9" height="2" fill="#7B7B7B"/>
<rect x="1002" y="555.648" width="2" height="4" fill="#7B7B7B"/>
<rect x="1004" y="551.648" width="2" height="4" fill="#7B7B7B"/>
<rect x="1018" y="537.648" width="2" height="2" fill="#7B7B7B"/>
<text opacity="0.7" fill="#232323" xml:space="preserve" style="white-space: pre" font-family="FK Grotesk Neue" font-size="10" letter-spacing="-0.03em"><tspan x="1114.31" y="584.848">Bad Pressed</tspan></text>
<rect x="1152" y="539.648" width="2" height="10" fill="#7B7B7B"/>
<rect x="1150" y="539.648" width="2" height="10" fill="#7B7B7B"/>
<rect x="1150" y="549.648" width="2" height="2" fill="#7B7B7B"/>
<rect x="1146" y="549.648" width="2" height="2" fill="#7B7B7B"/>
<rect x="1138" y="551.648" width="8" height="2" fill="#7B7B7B"/>
<rect x="1138" y="553.648" width="6" height="2" fill="#7B7B7B"/>
<rect x="1136" y="555.648" width="6" height="2" fill="#7B7B7B"/>
<rect x="1136" y="557.648" width="4" height="2" fill="#7B7B7B"/>
<rect x="1136" y="559.648" width="2" height="2" fill="#7B7B7B"/>
<rect x="1129" y="543.648" width="2" height="6" fill="#7B7B7B"/>
<rect x="1131" y="543.648" width="17" height="6" fill="#7B7B7B"/>
<rect x="1133" y="539.648" width="15" height="4" fill="#7B7B7B"/>
<rect x="1131" y="539.648" width="2" height="4" fill="#7B7B7B"/>
<rect x="1133" y="537.648" width="2" height="2" fill="#7B7B7B"/>
<rect x="1146" y="537.648" width="2" height="2" fill="#7B7B7B"/>
<rect x="1135" y="535.648" width="11" height="2" fill="#7B7B7B"/>
<rect x="1135" y="537.648" width="11" height="2" fill="#7B7B7B"/>
<rect x="1131" y="549.648" width="15" height="2" fill="#7B7B7B"/>
<rect x="1134" y="555.648" width="2" height="4" fill="#7B7B7B"/>
<rect x="1136" y="553.648" width="2" height="2" fill="#7B7B7B"/>
<rect x="1150" y="537.648" width="2" height="2" fill="#7B7B7B"/>
<text opacity="0.7" fill="#232323" xml:space="preserve" style="white-space: pre" font-family="FK Grotesk Neue" font-size="10" letter-spacing="-0.03em"><tspan x="205.114" y="690.848">Unfav.</tspan></text>
<path d="M220 666.648H216V664.648H220V666.648ZM216 664.648H214V662.648H216V664.648ZM222 664.648H220V662.648H222V664.648ZM214 662.648H212V660.648H214V662.648ZM224 662.648H222V660.648H224V662.648ZM212 660.648H210V658.648H212V660.648ZM226 660.648H224V658.648H226V660.648ZM210 658.648H208V656.648H210V658.648ZM228 658.648H226V656.648H228V658.648ZM208 656.648H206V654.648H208V656.648ZM230 656.648H228V654.648H230V656.648ZM206 654.648H204V646.648H206V654.648ZM232 654.648H230V646.648H232V654.648ZM208 646.648H206V644.648H208V646.648ZM219 646.648H217V644.648H219V646.648ZM230 646.648H228V644.648H230V646.648ZM210 644.648H208V642.648H210V644.648ZM217 644.648H215V642.648H217V644.648ZM221 644.648H219V642.648H221V644.648ZM228 644.648H226V642.648H228V644.648ZM215 642.648H210V640.648H215V642.648ZM226 642.648H221V640.648H226V642.648Z" fill="#232323"/>
<text opacity="0.7" fill="#232323" xml:space="preserve" style="white-space: pre" font-family="FK Grotesk Neue" font-size="10" letter-spacing="-0.03em"><tspan x="341.485" y="690.848">Fav.</tspan></text>
<rect x="338" y="644.648" width="24" height="12" fill="#FEF991"/>
<rect width="16" height="4" transform="matrix(1 0 0 -1 342 660.648)" fill="#FEF991"/>
<rect x="346" y="660.648" width="8" height="4" fill="#FEF991"/>
<rect x="341" y="642.648" width="8" height="4" fill="#FEF991"/>
<rect x="352" y="642.648" width="8" height="4" fill="#FEF991"/>
<rect x="342" y="640.648" width="5" height="2" fill="#232323"/>
<rect x="353" y="640.648" width="5" height="2" fill="#232323"/>
<rect x="336" y="646.648" width="2" height="8" fill="#232323"/>
<rect x="362" y="646.648" width="2" height="8" fill="#232323"/>
<rect x="349" y="644.648" width="2" height="2" fill="#232323"/>
<rect x="340" y="656.648" width="2" height="2" fill="#232323"/>
<rect x="338" y="654.648" width="2" height="2" fill="#232323"/>
<rect x="360" y="656.648" width="2" height="2" transform="rotate(90 360 656.648)" fill="#232323"/>
<rect x="362" y="654.648" width="2" height="2" transform="rotate(90 362 654.648)" fill="#232323"/>
<rect x="344" y="660.648" width="2" height="2" fill="#232323"/>
<rect x="342" y="658.648" width="2" height="2" fill="#232323"/>
<rect x="358" y="658.648" width="2" height="2" transform="rotate(90 358 658.648)" fill="#232323"/>
<rect x="346" y="662.648" width="2" height="2" fill="#232323"/>
<rect x="356" y="660.648" width="2" height="2" transform="rotate(90 356 660.648)" fill="#232323"/>
<rect x="354" y="662.648" width="2" height="2" transform="rotate(90 354 662.648)" fill="#232323"/>
<rect x="352" y="664.648" width="2" height="4" transform="rotate(90 352 664.648)" fill="#232323"/>
<rect x="347" y="642.648" width="2" height="2" fill="#232323"/>
<rect x="340" y="642.648" width="2" height="2" fill="#232323"/>
<rect x="358" y="642.648" width="2" height="2" fill="#232323"/>
<rect x="338" y="644.648" width="2" height="2" fill="#232323"/>
<rect x="360" y="644.648" width="2" height="2" fill="#232323"/>
<rect x="351" y="642.648" width="2" height="2" fill="#232323"/>
<text opacity="0.7" fill="#232323" xml:space="preserve" style="white-space: pre" font-family="FK Grotesk Neue" font-size="10" letter-spacing="-0.03em"><tspan x="456.075" y="690.848">Speaker Off</tspan></text>
<path d="M485 667.648H480V665.648H483V661.648H485V667.648ZM480 665.648H478V663.648H480V665.648ZM478 663.648H476V661.648H478V663.648ZM476 661.648H470V659.648H476V661.648ZM470 659.648H468V657.648H470V659.648ZM485 659.648H483V657.648H485V659.648ZM493 659.648H491V657.648H493V659.648ZM468 657.648H466V651.648H468V657.648ZM487 657.648H485V655.648H487V657.648ZM491 657.648H489V655.648H491V657.648ZM489 655.648H487V653.648H489V655.648ZM487 653.648H485V651.648H487V653.648ZM491 653.648H489V651.648H491V653.648ZM470 651.648H468V649.648H470V651.648ZM485 651.648H483V649.648H485V651.648ZM493 651.648H491V649.648H493V651.648ZM476 649.648H470V647.648H476V649.648ZM478 647.648H476V645.648H478V647.648ZM485 647.648H483V643.648H480V641.648H485V647.648ZM480 645.648H478V643.648H480V645.648Z" fill="#232323"/>
<text opacity="0.7" fill="#232323" xml:space="preserve" style="white-space: pre" font-family="FK Grotesk Neue" font-size="10" letter-spacing="-0.03em"><tspan x="588.333" y="690.848">Speaker On</tspan></text>
<path d="M617 667.648H612V665.648H615V643.648H612V641.648H617V667.648ZM626 666.648H624V664.648H626V666.648ZM612 665.648H610V663.648H612V665.648ZM628 647.648H629V650.648H630V658.648H629V661.648H628V664.648H626V661.648H627V658.648H628V650.648H627V647.648H626V644.648H628V647.648ZM610 663.648H608V661.648H610V663.648ZM622 647.648H623V649.648H624V652.648H625V656.648H624V659.648H623V661.648H622V663.648H620V661.648H621V659.648H622V656.648H623V652.648H622V649.648H621V647.648H620V645.648H622V647.648ZM608 661.648H602V659.648H608V661.648ZM602 659.648H600V657.648H602V659.648ZM600 657.648H598V651.648H600V657.648ZM602 651.648H600V649.648H602V651.648ZM608 649.648H602V647.648H608V649.648ZM610 647.648H608V645.648H610V647.648ZM612 645.648H610V643.648H612V645.648ZM626 644.648H624V642.648H626V644.648Z" fill="#232323"/>
<text opacity="0.7" fill="#232323" xml:space="preserve" style="white-space: pre" font-family="FK Grotesk Neue" font-size="10" letter-spacing="-0.03em"><tspan x="728.466" y="690.848">HeadUp</tspan></text>
<path d="M741.999 662.65H733.999V660.65H741.999V662.65ZM758.001 662.65H750.001V660.65H758.001V662.65ZM748 654.65H748.001V656.65H744.002V660.648H742.002V656.648H744.001V652.647H748V654.65ZM750.002 660.648H748.002V656.648H750.002V660.648ZM743.999 652.648H734V660.647H732V652.647H733.999V650.648H743.999V652.648ZM760 660.647H758V652.647H760V660.647ZM758 652.648H748V650.648H758V652.648ZM747 650.648H745V644.648H747V650.648ZM743 646.648H741V644.648H743V646.648ZM751 646.648H749V644.648H751V646.648ZM745 644.648H743V642.648H745V644.648ZM749 644.648H747V642.648H749V644.648ZM747 642.648H745V640.648H747V642.648Z" fill="#232323"/>
<text opacity="0.7" fill="#232323" xml:space="preserve" style="white-space: pre" font-family="FK Grotesk Neue" font-size="10" letter-spacing="-0.03em"><tspan x="845.32" y="690.848">Display Adj. Off</tspan></text>
<rect x="865" y="643.648" width="20" height="15" fill="#FEF991"/>
<rect x="865" y="643.648" width="20" height="2" fill="#232323"/>
<rect x="865" y="657.648" width="20" height="2" fill="#232323"/>
<rect x="868" y="661.648" width="2" height="4" fill="#232323"/>
<rect x="889" y="653.648" width="4" height="2" fill="#232323"/>
<rect x="864" y="662.648" width="22" height="2" fill="#232323"/>
<rect x="890" y="644.648" width="2" height="14" fill="#232323"/>
<rect x="863" y="645.648" width="2" height="12" fill="#232323"/>
<rect x="885" y="645.648" width="2" height="12" fill="#232323"/>
<text opacity="0.7" fill="#232323" xml:space="preserve" style="white-space: pre" font-family="FK Grotesk Neue" font-size="10" letter-spacing="-0.03em"><tspan x="996.303" y="690.848">Saved</tspan></text>
<g clip-path="url(#clip15_10001_76691)">
<path d="M1003 663.648H1006V665.648H1003V666.648H1001V643.648H1003V663.648ZM1019 666.648H1017V665.648H1014V663.648H1017V643.648H1019V666.648ZM1009 663.648H1006V661.648H1009V663.648ZM1014 663.648H1011V661.648H1014V663.648ZM1011 661.648H1009V659.648H1011V661.648ZM1017 643.648H1003V641.648H1017V643.648Z" fill="#232323"/>
</g>
<text opacity="0.7" fill="#232323" xml:space="preserve" style="white-space: pre" font-family="FK Grotesk Neue" font-size="10" letter-spacing="-0.03em"><tspan x="1131.04" y="690.848">More</tspan></text>
<path d="M1133 655.648H1129V651.648H1133V655.648ZM1144 655.648H1140V651.648H1144V655.648ZM1155 655.648H1151V651.648H1155V655.648Z" fill="#232323"/>
<text opacity="0.7" fill="#232323" xml:space="preserve" style="white-space: pre" font-family="FK Grotesk Neue" font-size="10" letter-spacing="-0.03em"><tspan x="205.451" y="796.848">Reset</tspan></text>
<path d="M214 767.648H204V765.648H214V767.648ZM232 765.648V767.648H224V765.648H232ZM216 765.648H214V763.648H216V765.648ZM224 765.648H222V763.648H224V765.648ZM218 763.648H216V761.648H218V763.648ZM222 763.648H220V761.648H222V763.648ZM220 761.648H218V759.648H220V761.648ZM210 759.648H208V757.648H210V759.648ZM218 759.648H216V757.648H218V759.648ZM222 759.648H220V757.648H222V759.648ZM208 757.648H206V755.648H208V757.648ZM216 757.648H214V755.648H216V757.648ZM224 757.648H222V755.648H224V757.648ZM206 755.648H204V753.648H206V755.648ZM214 755.648H208V753.648H214V755.648ZM232 755.648H224V753.648H232V755.648ZM208 753.648H206V751.648H208V753.648ZM210 751.648H208V749.648H210V751.648Z" fill="#232323"/>
<text opacity="0.7" fill="#232323" xml:space="preserve" style="white-space: pre" font-family="FK Grotesk Neue" font-size="10" letter-spacing="-0.03em"><tspan x="327.112" y="796.848">Text Sizing</tspan></text>
<path d="M354 749.648H347V769.648H350V771.648H342V769.648H345V749.648H338V747.648H354V749.648ZM360 771.648H354V769.648H356V757.648H352V755.648H362V757.648H358V769.648H360V771.648ZM352 759.648H350V757.648H352V759.648ZM364 759.648H362V757.648H364V759.648ZM338 751.648H336V749.648H338V751.648ZM356 751.648H354V749.648H356V751.648Z" fill="#232323"/>
<text opacity="0.7" fill="#232323" xml:space="preserve" style="white-space: pre" font-family="FK Grotesk Neue" font-size="10" letter-spacing="-0.03em"><tspan x="474.452" y="796.848">File</tspan></text>
<g clip-path="url(#clip16_10001_76691)">
<path d="M487 773.648H473V771.648H487V773.648ZM473 771.648H471V747.648H473V771.648ZM491 769.648H489V771.648H487V767.648H491V769.648ZM493 767.648H491V747.648H493V767.648ZM491 747.648H473V745.648H491V747.648Z" fill="#232323"/>
</g>
<text opacity="0.7" fill="#232323" xml:space="preserve" style="white-space: pre" font-family="FK Grotesk Neue" font-size="10" letter-spacing="-0.03em"><tspan x="586.313" y="796.848">Archived File</tspan></text>
<path d="M624 773.648H604V771.648H624V773.648ZM604 771.648H602V747.648H604V771.648ZM626 771.648H624V747.648H626V771.648ZM609 766.648H607V764.648H609V766.648ZM610 763.648H608V761.648H610V763.648ZM608 761.648H606V759.648H608V761.648ZM610 759.648H608V757.648H610V759.648ZM608 757.648H606V755.648H608V757.648ZM610 755.648H608V753.648H610V755.648ZM608 753.648H606V751.648H608V753.648ZM610 751.648H608V749.648H610V751.648ZM624 747.648H608V749.648H606V747.648H604V745.648H624V747.648Z" fill="#232323"/>
<text opacity="0.7" fill="#232323" xml:space="preserve" style="white-space: pre" font-family="FK Grotesk Neue" font-size="10" letter-spacing="-0.03em"><tspan x="734.278" y="796.848">Login</tspan></text>
<g clip-path="url(#clip17_10001_76691)">
<path d="M756 773.648H740V771.648H756V773.648ZM740 771.648H738V765.648H740V771.648ZM758 771.648H756V747.648H758V771.648ZM747 766.648H745V764.648H747V766.648ZM749 764.648H747V762.648H749V764.648ZM751 762.648H749V760.648H751V762.648ZM749 760.648H734V758.648H749V760.648ZM753 760.648H751V758.648H753V760.648ZM751 758.648H749V756.648H751V758.648ZM749 756.648H747V754.648H749V756.648ZM747 754.648H745V752.648H747V754.648ZM740 753.648H738V747.648H740V753.648ZM756 747.648H740V745.648H756V747.648Z" fill="#232323"/>
</g>
<text opacity="0.7" fill="#232323" xml:space="preserve" style="white-space: pre" font-family="FK Grotesk Neue" font-size="10" letter-spacing="-0.03em"><tspan x="861.146" y="796.848">Log out</tspan></text>
<g clip-path="url(#clip18_10001_76691)">
<path d="M882 773.648H868V771.648H882V773.648ZM868 771.648H866V747.648H868V771.648ZM884 771.648H882V764.648H884V771.648ZM888 766.648H886V764.648H888V766.648ZM890 764.648H888V762.648H890V764.648ZM892 762.648H890V760.648H892V762.648ZM890 760.648H873V758.648H890V760.648ZM894 760.648H892V758.648H894V760.648ZM892 758.648H890V756.648H892V758.648ZM890 756.648H888V754.648H890V756.648ZM884 754.648H882V747.648H884V754.648ZM888 754.648H886V752.648H888V754.648ZM882 747.648H868V745.648H882V747.648Z" fill="#232323"/>
</g>
<text opacity="0.7" fill="#232323" xml:space="preserve" style="white-space: pre" font-family="FK Grotesk Neue" font-size="10" letter-spacing="-0.03em"><tspan x="981.192" y="796.848">Network error</tspan></text>
<path d="M1023 772.407H1021V770.407H1023V772.407ZM1021 770.407H1019V768.407H1021V770.407ZM1013 767.407H1011V769.407H1009V767.407H1007V765.407H1013V767.407ZM1019 768.407H1017V766.407H1019V768.407ZM1017 766.407H1015V764.407H1017V766.407ZM1015 764.407H1013V762.407H1015V764.407ZM1003 763.407H1001V761.407H1003V763.407ZM1019 763.407H1017V761.407H1019V763.407ZM1017 761.407H1013V762.407H1011V760.407H1013V759.407H1017V761.407ZM1007 761.407H1003V759.407H1007V761.407ZM1009 757.407H1013V759.407H1011V760.407H1009V759.407H1007V756.407H1009V757.407ZM998 758.407H996V756.407H998V758.407ZM1024 758.407H1022V756.407H1024V758.407ZM1001 756.407H998V754.407H1001V756.407ZM1007 756.407H1005V754.407H1007V756.407ZM1022 756.407H1019V754.407H1022V756.407ZM1003 752.407H1005V754.407H1001V750.407H1003V752.407ZM1019 754.407H1015V752.407H1019V754.407ZM1015 752.407H1005V750.407H1015V752.407ZM1001 750.407H999V748.407H1001V750.407ZM999 748.407H997V746.407H999V748.407Z" fill="#232323"/>
<text opacity="0.7" fill="#232323" xml:space="preserve" style="white-space: pre" font-family="FK Grotesk Neue" font-size="10" letter-spacing="-0.03em"><tspan x="1132.15" y="796.848">Hint</tspan></text>
<g clip-path="url(#clip19_10001_76691)">
<path d="M1139 754.648H1145V756.649H1139V754.648Z" fill="#232323"/>
<path d="M1139 762.648H1145V764.649H1139V762.648Z" fill="#232323"/>
<path d="M1145 756.648H1147V762.648H1145V756.648Z" fill="#232323"/>
<path d="M1137 756.648H1139V762.648H1137V756.648Z" fill="#232323"/>
<path d="M1139 756.648H1145V762.648H1139V756.648Z" fill="#FEF991"/>
</g>
</g>
<defs>
<clipPath id="clip0_10001_76691">
<rect width="1360" height="830.925" fill="white"/>
</clipPath>
<clipPath id="clip1_10001_76691">
<rect width="32" height="32" fill="white" transform="translate(202 213.648)"/>
</clipPath>
<clipPath id="clip2_10001_76691">
<rect width="32" height="32" fill="white" transform="translate(334 213.648)"/>
</clipPath>
<clipPath id="clip3_10001_76691">
<rect width="32" height="32" fill="white" transform="translate(466 213.648)"/>
</clipPath>
<clipPath id="clip4_10001_76691">
<rect width="32" height="32" fill="white" transform="translate(730 213.648)"/>
</clipPath>
<clipPath id="clip5_10001_76691">
<rect width="32" height="32" fill="white" transform="translate(862 213.648)"/>
</clipPath>
<clipPath id="clip6_10001_76691">
<rect width="32" height="32" fill="white" transform="translate(994 213.648)"/>
</clipPath>
<clipPath id="clip7_10001_76691">
<rect width="32" height="32" fill="white" transform="translate(1126 213.648)"/>
</clipPath>
<clipPath id="clip8_10001_76691">
<rect width="32" height="32" fill="white" transform="translate(202 319.648)"/>
</clipPath>
<clipPath id="clip9_10001_76691">
<rect width="32" height="32" fill="white" transform="translate(334 319.648)"/>
</clipPath>
<clipPath id="clip10_10001_76691">
<rect width="32" height="32" fill="white" transform="translate(730 319.648)"/>
</clipPath>
<clipPath id="clip11_10001_76691">
<rect width="32" height="32" fill="white" transform="translate(862 319.648)"/>
</clipPath>
<clipPath id="clip12_10001_76691">
<rect width="32" height="32" fill="white" transform="translate(1126 319.648)"/>
</clipPath>
<clipPath id="clip13_10001_76691">
<rect width="32" height="32" fill="white" transform="translate(598 425.648)"/>
</clipPath>
<clipPath id="clip14_10001_76691">
<rect width="32" height="32" fill="white" transform="translate(202 531.648)"/>
</clipPath>
<clipPath id="clip15_10001_76691">
<rect width="32" height="32" fill="white" transform="translate(994 637.648)"/>
</clipPath>
<clipPath id="clip16_10001_76691">
<rect width="32" height="32" fill="white" transform="translate(466 743.648)"/>
</clipPath>
<clipPath id="clip17_10001_76691">
<rect width="32" height="32" fill="white" transform="translate(730 743.648)"/>
</clipPath>
<clipPath id="clip18_10001_76691">
<rect width="32" height="32" fill="white" transform="translate(862 743.648)"/>
</clipPath>
<clipPath id="clip19_10001_76691">
<rect width="32" height="32" fill="white" transform="translate(1126 743.648)"/>
</clipPath>
</defs>
</svg>
