<svg width="1360" height="513" viewBox="0 0 1360 513" fill="none" xmlns="http://www.w3.org/2000/svg">
<g clip-path="url(#clip0_10001_76556)">
<text fill="#232323" xml:space="preserve" style="white-space: pre" font-family="FK Grotesk Neue" font-size="24" letter-spacing="-0.03em"><tspan x="0.114059" y="23.04">Edit &#38; Settings Icons</tspan></text>
<rect y="42.2305" width="1360" height="1" fill="#BDBDBD"/>
<rect y="74.9248" width="1360" height="438" rx="6" fill="white"/>
<text opacity="0.7" fill="#232323" xml:space="preserve" style="white-space: pre" font-family="FK Grotesk Neue" font-size="10" letter-spacing="-0.03em"><tspan x="208.387" y="160.125">Edit</tspan></text>
<path d="M206 133.608H210V135.608H204V129.608H206V133.608ZM231 135.608H216V133.608H231V135.608ZM212 133.608H210V131.608H212V133.608ZM214 131.608H212V129.608H214V131.608ZM208 129.608H206V127.608H208V129.608ZM216 129.608H214V127.608H216V129.608ZM210 127.608H208V125.608H210V127.608ZM218 127.608H216V125.608H218V127.608ZM212 125.608H210V123.608H212V125.608ZM220 125.608H218V123.608H220V125.608ZM214 123.608H212V121.608H214V123.608ZM222 123.608H220V121.608H222V123.608ZM216 121.608H214V119.608H216V121.608ZM224 121.608H222V119.608H224V121.608ZM218 119.608H216V117.608H218V119.608ZM226 119.608H224V117.608H226V119.608ZM220 117.608H218V115.608H220V117.608ZM224 117.608H222V115.608H224V117.608ZM228 117.608H226V115.608H228V117.608ZM222 115.608H220V113.608H222V115.608ZM230 115.608H228V113.608H230V115.608ZM224 113.608H222V111.608H224V113.608ZM228 113.608H226V111.608H228V113.608ZM226 111.608H224V109.608H226V111.608Z" fill="#232323"/>
<text opacity="0.7" fill="#232323" xml:space="preserve" style="white-space: pre" font-family="FK Grotesk Neue" font-size="10" letter-spacing="-0.03em"><tspan x="331.111" y="160.125">Settings</tspan></text>
<path d="M358 134.925H354V132.925H358V134.925ZM354 132.925H336V130.925H354V132.925ZM362 132.925H358V130.925H362V132.925ZM358 130.925H354V128.925H358V130.925ZM351 125.925H347V123.925H351V125.925ZM347 123.925H336V121.925H347V123.925ZM362 123.925H351V121.925H362V123.925ZM351 121.925H347V119.925H351V121.925ZM344 116.925H340V114.925H344V116.925ZM340 114.925H336V112.925H340V114.925ZM362 114.925H344V112.925H362V114.925ZM344 112.925H340V110.925H344V112.925Z" fill="#232323"/>
<text opacity="0.7" fill="#232323" xml:space="preserve" style="white-space: pre" font-family="FK Grotesk Neue" font-size="10" letter-spacing="-0.03em"><tspan x="467.245" y="160.125">Import</tspan></text>
<g clip-path="url(#clip1_10001_76556)">
<path d="M470 134.923H492V124.925H494V134.925H492V136.923H470V134.925H468V124.925H470V134.923ZM482 131.926H480V129.926H482V131.926ZM480 129.926H478V127.926H480V129.926ZM484 129.926H482V127.926H484V129.926ZM478 127.926H476V125.926H478V127.926ZM486 127.926H484V125.926H486V127.926ZM482 127.925H480V108.925H482V127.925ZM476 125.926H474V123.926H476V125.926ZM488 125.926H486V123.926H488V125.926ZM474 123.925H472V121.925H474V123.925ZM490 123.925H488V121.925H490V123.925ZM472 121.925H470V119.925H472V121.925ZM492 121.925H490V119.925H492V121.925Z" fill="#232323"/>
</g>
<text opacity="0.7" fill="#232323" xml:space="preserve" style="white-space: pre" font-family="FK Grotesk Neue" font-size="10" letter-spacing="-0.03em"><tspan x="600.163" y="160.125">Share</tspan></text>
<path d="M624 135.925H602V133.925H624V135.925ZM602 133.925H600V111.925H602V133.925ZM626 133.925H624V125.925H626V133.925ZM609 128.925H607V124.925H609V128.925ZM611 124.925H609V120.925H611V124.925ZM621 122.925H619V120.925H621V122.925ZM613 120.925H611V118.925H613V120.925ZM623 120.925H621V118.925H623V120.925ZM617 118.925H613V116.925H617V118.925ZM625 118.925H623V116.925H625V118.925ZM623 116.925H617V114.925H623V116.925ZM627 116.925H625V114.925H627V116.925ZM625 114.925H623V112.925H625V114.925ZM623 112.925H621V110.925H623V112.925ZM610 111.925H602V109.925H610V111.925ZM621 110.925H619V108.925H621V110.925Z" fill="#232323"/>
<text opacity="0.7" fill="#232323" xml:space="preserve" style="white-space: pre" font-family="FK Grotesk Neue" font-size="10" letter-spacing="-0.03em"><tspan x="710.276" y="160.125">Upload to Cloud</tspan></text>
<path d="M746 134.925H744V124.925H746V134.925ZM735 128.925H732V126.925H735V128.925ZM740 128.925H738V126.925H740V128.925ZM752 128.925H750V126.925H752V128.925ZM758 128.925H755V126.925H758V128.925ZM732 126.925H730V119.925H732V126.925ZM742 126.925H740V124.925H742V126.925ZM750 126.925H748V124.925H750V126.925ZM760 126.925H758V119.925H760V126.925ZM744 124.925H742V122.925H744V124.925ZM748 124.925H746V122.925H748V124.925ZM746 122.925H744V120.925H746V122.925ZM734 119.925H732V117.925H734V119.925ZM758 119.925H754V117.925H758V119.925ZM738 117.925H734V115.925H738V117.925ZM754 117.925H752V115.925H754V117.925ZM740 115.925H738V113.925H740V115.925ZM752 115.925H749V113.925H752V115.925ZM749 113.925H740V111.925H749V113.925Z" fill="#232323"/>
<text opacity="0.7" fill="#232323" xml:space="preserve" style="white-space: pre" font-family="FK Grotesk Neue" font-size="10" letter-spacing="-0.03em"><tspan x="867.246" y="160.125">New</tspan></text>
<path d="M887 136.925H867V134.925H887V136.925ZM867 134.925H865V110.925H867V134.925ZM889 134.925H887V114.925H889V134.925ZM878 128.93H876V123.93H878V128.93ZM878 121.93H876.005V123.925H871.005V121.925H876V116.93H878V121.93ZM883.005 123.925H878.005V121.925H883.005V123.925ZM885 112.925H887V114.925H883V110.925H885V112.925ZM883 110.925H867V108.925H883V110.925Z" fill="#232323"/>
<text opacity="0.7" fill="#232323" xml:space="preserve" style="white-space: pre" font-family="FK Grotesk Neue" font-size="10" letter-spacing="-0.03em"><tspan x="1001.07" y="160.125">Cut</tspan></text>
<g clip-path="url(#clip2_10001_76556)">
<path d="M1023 133.925H1021V131.925H1023V133.925ZM1006 132.925H997V130.925H1006V132.925ZM1021 131.925H1019V129.925H1021V131.925ZM997 130.925H995V125.925H997V130.925ZM1006 125.925H997V123.925H1011V125.925H1008V130.925H1006V125.925ZM1019 129.925H1017V127.925H1019V129.925ZM1017 127.925H1015V125.925H1017V127.925ZM1015 125.925H1013V123.925H1015V125.925ZM1013 123.925H1011V121.925H1013V123.925ZM1008 119.925H1011V121.925H997V119.925H1006V114.925H1008V119.925ZM1015 121.925H1013V119.925H1015V121.925ZM997 119.925H995V114.925H997V119.925ZM1017 119.925H1015V117.925H1017V119.925ZM1019 117.925H1017V115.925H1019V117.925ZM1021 115.925H1019V113.925H1021V115.925ZM1006 114.925H997V112.925H1006V114.925ZM1023 113.925H1021V111.925H1023V113.925Z" fill="#232323"/>
</g>
<text opacity="0.7" fill="#232323" xml:space="preserve" style="white-space: pre" font-family="FK Grotesk Neue" font-size="10" letter-spacing="-0.03em"><tspan x="1129.35" y="160.125">Copy</tspan></text>
<rect x="1151" y="131.925" width="5" height="2" transform="rotate(-180 1151 131.925)" fill="#232323"/>
<rect x="1131" y="113.925" width="9" height="2" fill="#232323"/>
<rect x="1142" y="117.925" width="2" height="2" fill="#232323"/>
<rect x="1140" y="119.925" width="4" height="2" transform="rotate(-90 1140 119.925)" fill="#232323"/>
<rect x="1136" y="113.925" width="2" height="2" transform="rotate(-90 1136 113.925)" fill="#232323"/>
<rect x="1146" y="119.925" width="14" height="2" transform="rotate(90 1146 119.925)" fill="#232323"/>
<rect x="1130" y="133.925" width="14" height="2" fill="#232323"/>
<rect x="1138" y="109.925" width="13" height="2" fill="#232323"/>
<rect x="1129" y="115.925" width="2" height="18" fill="#232323"/>
<rect x="1151" y="111.925" width="2" height="18" fill="#232323"/>
<text opacity="0.7" fill="#232323" xml:space="preserve" style="white-space: pre" font-family="FK Grotesk Neue" font-size="10" letter-spacing="-0.03em"><tspan x="205.161" y="266.125">Paste</tspan></text>
<g clip-path="url(#clip3_10001_76556)">
<path d="M221 242.925H205V240.925H221V242.925ZM205 240.925H203V220.925H205V240.925ZM229 238.925H223V240.925H221V238.925H213V236.925H229V238.925ZM213 236.925H211V220.925H205V218.925H211V216.925H213V236.925ZM231 236.925H229V216.925H231V236.925ZM227 231.925H215V229.925H227V231.925ZM227 227.925H215V225.925H227V227.925ZM227 223.925H215V221.925H227V223.925ZM229 216.925H213V214.925H229V216.925Z" fill="#232323"/>
</g>
<text opacity="0.7" fill="#232323" xml:space="preserve" style="white-space: pre" font-family="FK Grotesk Neue" font-size="10" letter-spacing="-0.03em"><tspan x="337.488" y="266.125">Trash</tspan></text>
<g clip-path="url(#clip4_10001_76556)">
<path d="M357 242.925H341V240.925H357V242.925ZM341 240.925H339V222.925H341V240.925ZM359 240.925H357V222.925H359V240.925ZM347 238.925H345V222.925H347V238.925ZM353 238.925H351V222.925H353V238.925ZM345 218.925H353V216.925H355V218.925H361V220.925H337V218.925H343V216.925H345V218.925ZM353 216.925H345V214.925H353V216.925Z" fill="#232323"/>
</g>
<text opacity="0.7" fill="#232323" xml:space="preserve" style="white-space: pre" font-family="FK Grotesk Neue" font-size="10" letter-spacing="-0.03em"><tspan x="466.082" y="266.125">Sweep</tspan></text>
<g clip-path="url(#clip5_10001_76556)">
<path d="M477 239.925H480V230.925H482V239.925H485V241.925H472V239.925H475V230.925H477V239.925ZM490 241.925H487V239.925H490V241.925ZM469 225.925H493V223.925H495V227.925H492V239.925H490V227.925H472V239.925H470V227.925H467V223.925H469V225.925ZM487 239.925H485V230.925H487V239.925ZM487 221.925H493V223.925H485V217.925H477V223.925H469V221.925H475V215.925H487V221.925Z" fill="#232323"/>
</g>
<text opacity="0.7" fill="#232323" xml:space="preserve" style="white-space: pre" font-family="FK Grotesk Neue" font-size="10" letter-spacing="-0.03em"><tspan x="604.357" y="266.125">Add</tspan></text>
<g clip-path="url(#clip6_10001_76556)">
<rect x="612" y="216.925" width="2" height="10" fill="#232323"/>
<rect x="602" y="228.925" width="2" height="10" transform="rotate(-90 602 228.925)" fill="#232323"/>
<rect x="614" y="238.925" width="2" height="10" transform="rotate(-180 614 238.925)" fill="#232323"/>
<rect x="624" y="226.925" width="2" height="10" transform="rotate(90 624 226.925)" fill="#232323"/>
</g>
<text opacity="0.7" fill="#232323" xml:space="preserve" style="white-space: pre" font-family="FK Grotesk Neue" font-size="10" letter-spacing="-0.03em"><tspan x="732.309" y="266.125">Cross</tspan></text>
<g clip-path="url(#clip7_10001_76556)">
<path d="M734 241.925H732V239.925H734V241.925ZM758 241.925H756V239.925H758V241.925ZM736 239.925H734V237.925H736V239.925ZM756 239.925H754V237.925H756V239.925ZM738 237.925H736V235.925H738V237.925ZM754 237.925H752V235.925H754V237.925ZM740 235.925H738V233.925H740V235.925ZM752 235.925H750V233.925H752V235.925ZM742 233.925H740V231.925H742V233.925ZM750 233.925H748V231.925H750V233.925ZM744 231.925H742V229.925H744V231.925ZM748 231.925H746V229.925H748V231.925ZM744 227.925H742V225.925H744V227.925ZM748 227.925H746V225.925H748V227.925ZM742 225.925H740V223.925H742V225.925ZM750 225.925H748V223.925H750V225.925ZM740 223.925H738V221.925H740V223.925ZM752 223.925H750V221.925H752V223.925ZM738 221.925H736V219.925H738V221.925ZM754 221.925H752V219.925H754V221.925ZM736 219.925H734V217.925H736V219.925ZM756 219.925H754V217.925H756V219.925ZM734 215.925V217.925H732V215.925H734ZM758 217.925H756V215.925H758V217.925Z" fill="#232323"/>
</g>
<text opacity="0.7" fill="#232323" xml:space="preserve" style="white-space: pre" font-family="FK Grotesk Neue" font-size="10" letter-spacing="-0.03em"><tspan x="850.468" y="266.125">Cross_small</tspan></text>
<g clip-path="url(#clip8_10001_76556)">
<path d="M868 239.925H866V237.925H868V239.925ZM888 239.925H886V237.925H888V239.925ZM870 237.925H868V235.925H870V237.925ZM886 237.925H884V235.925H886V237.925ZM872 235.925H870V233.925H872V235.925ZM884 235.925H882V233.925H884V235.925ZM874 233.925H872V231.925H874V233.925ZM882 233.925H880V231.925H882V233.925ZM876 231.925H874V229.925H876V231.925ZM880 231.925H878V229.925H880V231.925ZM876 227.925H874V225.925H876V227.925ZM880 227.925H878V225.925H880V227.925ZM874 225.925H872V223.925H874V225.925ZM882 225.925H880V223.925H882V225.925ZM872 223.925H870V221.925H872V223.925ZM884 223.925H882V221.925H884V223.925ZM870 221.925H868V219.925H870V221.925ZM886 221.925H884V219.925H886V221.925ZM868 217.925V219.925H866V217.925H868ZM888 219.925H886V217.925H888V219.925Z" fill="#232323"/>
</g>
<text opacity="0.7" fill="#232323" xml:space="preserve" style="white-space: pre" font-family="FK Grotesk Neue" font-size="10" letter-spacing="-0.03em"><tspan x="997.013" y="266.125">Undo</tspan></text>
<g clip-path="url(#clip9_10001_76556)">
<path d="M1015 239.925H1003V237.925H1015V239.925ZM1017 237.925H1015V235.925H1017V237.925ZM1019 235.925H1017V227.925H1019V235.925ZM1007 231.925H1005V229.925H1007V231.925ZM1005 229.925H1003V227.925H1005V229.925ZM1003 227.925H1001V225.925H1003V227.925ZM1017 227.925H1015V225.925H1017V227.925ZM1001 225.925H999V223.925H1001V225.925ZM1015 225.925H1003V223.925H1015V225.925ZM1003 223.925H1001V221.925H1003V223.925ZM1005 221.925H1003V219.925H1005V221.925ZM1007 219.925H1005V217.925H1007V219.925Z" fill="#232323"/>
</g>
<text opacity="0.7" fill="#232323" xml:space="preserve" style="white-space: pre" font-family="FK Grotesk Neue" font-size="10" letter-spacing="-0.03em"><tspan x="1129.35" y="266.125">Redo</tspan></text>
<g clip-path="url(#clip10_10001_76556)">
<path d="M1147 237.925V239.925H1135V237.925H1147ZM1135 237.925H1133V235.925H1135V237.925ZM1133 235.925H1131V227.925H1133V235.925ZM1145 231.925H1143V229.925H1145V231.925ZM1147 229.925H1145V227.925H1147V229.925ZM1135 227.925H1133V225.925H1135V227.925ZM1149 227.925H1147V225.925H1149V227.925ZM1147 225.925H1135V223.925H1147V225.925ZM1151 225.925H1149V223.925H1151V225.925ZM1149 223.925H1147V221.925H1149V223.925ZM1147 221.925H1145V219.925H1147V221.925ZM1145 219.925H1143V217.925H1145V219.925Z" fill="#232323"/>
</g>
<text opacity="0.7" fill="#232323" xml:space="preserve" style="white-space: pre" font-family="FK Grotesk Neue" font-size="10" letter-spacing="-0.03em"><tspan x="210.039" y="372.125">Pin</tspan></text>
<g clip-path="url(#clip11_10001_76556)">
<path d="M218 349.925H216V338.925H218V349.925ZM207 336.925H216V338.925H205V334.925H207V336.925ZM229 338.925H218V336.925H227V334.925H229V338.925ZM209 334.925H207V332.925H209V334.925ZM227 334.925H225V332.925H227V334.925ZM211 332.925H209V330.925H211V332.925ZM225 332.925H223V330.925H225V332.925ZM214 328.925H220V323.925H222V328.925H223V330.925H211V328.925H212V323.925H214V328.925ZM212 323.925H210V321.925H212V323.925ZM224 323.925H222V321.925H224V323.925ZM222 321.925H212V319.925H222V321.925Z" fill="#232323"/>
</g>
<text opacity="0.7" fill="#232323" xml:space="preserve" style="white-space: pre" font-family="FK Grotesk Neue" font-size="10" letter-spacing="-0.03em"><tspan x="336.075" y="372.125">Unpin</tspan></text>
<path d="M350 349.925H348V338.925H350V349.925ZM361 346.925H359V344.925H361V346.925ZM359 344.925H357V342.925H359V344.925ZM357 342.925H355V340.925H357V342.925ZM355 340.925H353V338.925H355V340.925ZM339 336.925H348V338.925H337V334.925H339V336.925ZM353 338.925H351V336.925H353V338.925ZM361 338.925H355V336.925H359V334.925H361V338.925ZM351 336.925H349V334.925H351V336.925ZM341 334.925H339V332.925H341V334.925ZM349 334.925H347V332.925H349V334.925ZM359 334.925H357V332.925H359V334.925ZM343 332.925H341V330.925H343V332.925ZM347 332.925H345V330.925H347V332.925ZM357 332.925H355V330.925H357V332.925ZM345 330.925H343V328.925H345V330.925ZM354 328.925H355V330.925H347V328.925H352V323.925H354V328.925ZM343 328.925H341V326.925H343V328.925ZM346 327.925H344V323.925H346V327.925ZM341 326.925H339V324.925H341V326.925ZM339 324.925H337V322.925H339V324.925ZM344 323.925H342V321.925H344V323.925ZM356 323.925H354V321.925H356V323.925ZM354 321.925H344V319.925H354V321.925Z" fill="#232323"/>
<text opacity="0.7" fill="#232323" xml:space="preserve" style="white-space: pre" font-family="FK Grotesk Neue" font-size="10" letter-spacing="-0.03em"><tspan x="466.403" y="372.125">Switch</tspan></text>
<path d="M483 348.925H481V346.925H483V348.925ZM481 346.925H479V344.925H481V346.925ZM479 344.925H477V342.925H479V344.925ZM491 344.925H481V342.925H491V344.925ZM481 342.925H479V340.925H481V342.925ZM493 340.925V342.925H491V340.925H493ZM469 340.925H467V328.925H469V340.925ZM483 340.925H481V338.925H483V340.925ZM495 340.925H493V328.925H495V340.925ZM481 330.925H479V328.925H481V330.925ZM471 328.925H469V326.925H471V328.925ZM483 328.925H481V326.925H483V328.925ZM481 326.925H471V324.925H481V326.925ZM485 326.925H483V324.925H485V326.925ZM483 324.925H481V322.925H483V324.925ZM481 322.925H479V320.925H481V322.925Z" fill="#232323"/>
<text opacity="0.7" fill="#232323" xml:space="preserve" style="white-space: pre" font-family="FK Grotesk Neue" font-size="10" letter-spacing="-0.03em"><tspan x="604.267" y="372.125">Play</tspan></text>
<g clip-path="url(#clip12_10001_76556)">
<path d="M609 347.925H606V345.925H609V347.925ZM606 345.925H604V323.925H606V345.925ZM612 345.925H609V343.925H612V345.925ZM615 343.925H612V341.925H615V343.925ZM618 341.925H615V339.925H618V341.925ZM621 339.925H618V337.925H621V339.925ZM623 337.925H621V335.925H623V337.925ZM625 335.925H623V333.925H625V335.925ZM623 333.925H621V331.925H623V333.925ZM621 331.925H618V329.925H621V331.925ZM618 329.925H615V327.925H618V329.925ZM615 327.925H612V325.925H615V327.925ZM612 325.925H609V323.925H612V325.925ZM609 323.925H606V321.925H609V323.925Z" fill="#232323"/>
</g>
<text opacity="0.7" fill="#232323" xml:space="preserve" style="white-space: pre" font-family="FK Grotesk Neue" font-size="10" letter-spacing="-0.03em"><tspan x="731.474" y="372.125">Pause</tspan></text>
<g clip-path="url(#clip13_10001_76556)">
<path d="M740 346.925H738V322.925H740V346.925ZM752 346.925H750V322.925H752V346.925Z" fill="#232323"/>
</g>
<text opacity="0.7" fill="#232323" xml:space="preserve" style="white-space: pre" font-family="FK Grotesk Neue" font-size="10" letter-spacing="-0.03em"><tspan x="860.19" y="372.125">Restore</tspan></text>
<g clip-path="url(#clip14_10001_76556)">
<path d="M885 347.925H869V345.925H885V347.925ZM869 345.925H867V343.925H869V345.925ZM887 345.925H885V343.925H887V345.925ZM867 343.925H865V333.925H867V343.925ZM889 343.925H887V329.925H889V343.925ZM875 331.925H873V329.925H875V331.925ZM873 329.925H871V327.925H873V329.925ZM887 329.925H885V327.925H887V329.925ZM871 327.925H869V325.925H871V327.925ZM885 327.925H873V325.925H885V327.925ZM873 325.925H871V323.925H873V325.925ZM875 323.925H873V321.925H875V323.925Z" fill="#232323"/>
</g>
<text opacity="0.7" fill="#232323" xml:space="preserve" style="white-space: pre" font-family="FK Grotesk Neue" font-size="10" letter-spacing="-0.03em"><tspan x="975.027" y="372.125">Layout Settings</tspan></text>
<g clip-path="url(#clip15_10001_76556)">
<path d="M1019 348.928H999V346.928H1019V348.928ZM999 346.928H997V322.928H999V346.928ZM1021 346.928H1019V326.928H1021V346.928ZM1015 341.928H1013V339.928H1015V341.928ZM1013 339.928H1001V337.928H1013V339.928ZM1017 339.928H1015V337.928H1017V339.928ZM1015 337.928H1013V335.928H1015V337.928ZM1005 333.928H1003V331.928H1005V333.928ZM1003 331.928H1001V329.928H1003V331.928ZM1017 331.928H1005V329.928H1017V331.928ZM1005 329.928H1003V327.928H1005V329.928ZM1017 324.928H1019V326.928H1015V322.928H1017V324.928ZM1015 322.928H999V320.928H1015V322.928Z" fill="#232323"/>
</g>
<text opacity="0.7" fill="#232323" xml:space="preserve" style="white-space: pre" font-family="FK Grotesk Neue" font-size="10" letter-spacing="-0.03em"><tspan x="1115.01" y="372.125">Numble List</tspan></text>
<path d="M1135 346.925H1129V344.925H1135V346.925ZM1129 344.925H1127V340.925H1133V338.925H1135V342.925H1129V344.925ZM1155 342.925H1137V340.925H1155V342.925ZM1133 338.925H1129V336.925H1133V338.925ZM1133 333.925H1131V324.925H1133V333.925ZM1155 328.925H1137V326.925H1155V328.925ZM1131 324.925H1129V322.925H1131V324.925Z" fill="#232323"/>
<text opacity="0.7" fill="#232323" xml:space="preserve" style="white-space: pre" font-family="FK Grotesk Neue" font-size="10" letter-spacing="-0.03em"><tspan x="200.086" y="478.125">Dot List</tspan></text>
<path d="M208 449.925H204V445.925H208V449.925ZM230 448.925H212V446.925H230V448.925ZM208 435.925H204V431.925H208V435.925ZM230 434.925H212V432.925H230V434.925Z" fill="#232323"/>
<text opacity="0.7" fill="#232323" xml:space="preserve" style="white-space: pre" font-family="FK Grotesk Neue" font-size="10" letter-spacing="-0.03em"><tspan x="329.082" y="478.125">Checklist</tspan></text>
<path d="M339 451.925H337V449.925H339V451.925ZM337 449.925H335V447.925H337V449.925ZM341 449.925H339V447.925H341V449.925ZM363 448.925H345V446.925H363V448.925ZM343 447.925H341V445.925H343V447.925ZM345 445.925H343V443.925H345V445.925ZM341 437.925H337V435.925H341V437.925ZM337 435.925H335V431.925H337V435.925ZM343 435.925H341V431.925H343V435.925ZM363 434.925H345V432.925H363V434.925ZM341 431.925H337V429.925H341V431.925Z" fill="#232323"/>
<text opacity="0.7" fill="#232323" xml:space="preserve" style="white-space: pre" font-family="FK Grotesk Neue" font-size="10" letter-spacing="-0.03em"><tspan x="449.101" y="478.125">Multi-selection</tspan></text>
<g clip-path="url(#clip16_10001_76556)">
<path d="M490 452.925H488V450.925H490V452.925ZM472 450.925H468V448.925H472V450.925ZM484 450.925H475V448.925H484V450.925ZM488 450.925H486V448.925H488V450.925ZM492 450.925H490V448.925H492V450.925ZM494 448.925H492V446.925H494V448.925ZM496 446.925H494V444.925H496V446.925ZM472 441.925H468V439.925H472V441.925ZM493 441.925H475V439.925H493V441.925ZM472 432.925H468V430.925H472V432.925ZM493 432.925H475V430.925H493V432.925Z" fill="#232323"/>
</g>
<text opacity="0.7" fill="#232323" xml:space="preserve" style="white-space: pre" font-family="FK Grotesk Neue" font-size="10" letter-spacing="-0.03em"><tspan x="596.373" y="478.125">Options</tspan></text>
<g clip-path="url(#clip17_10001_76556)">
<path d="M603 449.925H599V447.925H603V449.925ZM627 449.925H606V447.925H627V449.925ZM603 441.925H599V439.925H603V441.925ZM627 441.925H606V439.925H627V441.925ZM603 433.925H599V431.925H603V433.925ZM627 433.925H606V431.925H627V433.925Z" fill="#232323"/>
</g>
<text opacity="0.7" fill="#232323" xml:space="preserve" style="white-space: pre" font-family="FK Grotesk Neue" font-size="10" letter-spacing="-0.03em"><tspan x="732.482" y="478.125">Width</tspan></text>
<path d="M731 451.925H729V429.925H731V451.925ZM761 451.925H759V429.925H761V451.925ZM738 445.925H736V443.925H738V445.925ZM754 445.925H752V443.925H754V445.925ZM736 443.925H734V441.925H736V443.925ZM756 443.925H754V441.925H756V443.925ZM734 441.925H732V439.925H734V441.925ZM754 439.925V441.925H736V439.925H754ZM758 441.925H756V439.925H758V441.925ZM736 439.925H734V437.925H736V439.925ZM756 439.925H754V437.925H756V439.925ZM738 437.925H736V435.925H738V437.925ZM754 437.925H752V435.925H754V437.925Z" fill="#232323"/>
<text opacity="0.7" fill="#232323" xml:space="preserve" style="white-space: pre" font-family="FK Grotesk Neue" font-size="10" letter-spacing="-0.03em"><tspan x="859.192" y="478.125">Dist. Adj.</tspan></text>
<path d="M867 449.925H871V451.925H865V445.925H867V449.925ZM870 448.925H868V446.925H870V448.925ZM883 447.925H874V445.925H883V447.925ZM872 446.925H870V444.925H872V446.925ZM885 445.925H883V436.925H885V445.925ZM874 444.925H872V442.925H874V444.925ZM869 443.925H867V436.925H869V443.925ZM876 442.925H874V440.925H876V442.925ZM883 436.925H869V434.925H883V436.925ZM888 435.925H886V431.925H882V429.925H888V435.925ZM885 434.925H883V432.925H885V434.925Z" fill="#232323"/>
<text opacity="0.7" fill="#232323" xml:space="preserve" style="white-space: pre" font-family="FK Grotesk Neue" font-size="10" letter-spacing="-0.03em"><tspan x="988.275" y="478.125">Hight Adj.</tspan></text>
<path d="M1010 455.925H1008V453.925H1010V455.925ZM1008 453.925H1006V451.925H1008V453.925ZM1012 453.925H1010V451.925H1012V453.925ZM1006 451.925H1004V449.925H1006V451.925ZM1010 451.925H1008V447.925H1010V451.925ZM1014 451.925H1012V449.925H1014V451.925ZM1017 446.925H1001V444.925H1017V446.925ZM1001 444.925H999V436.925H1001V444.925ZM1019 444.925H1017V436.925H1019V444.925ZM1017 436.925H1001V434.925H1017V436.925ZM1010 433.925H1008V429.925H1010V433.925ZM1006 431.925H1004V429.925H1006V431.925ZM1014 431.925H1012V429.925H1014V431.925ZM1008 429.925H1006V427.925H1008V429.925ZM1012 429.925H1010V427.925H1012V429.925ZM1010 427.925H1008V425.925H1010V427.925Z" fill="#232323"/>
<text opacity="0.7" fill="#232323" xml:space="preserve" style="white-space: pre" font-family="FK Grotesk Neue" font-size="10" letter-spacing="-0.03em"><tspan x="1109.08" y="478.125">Display Adj. On</tspan></text>
<path d="M1133 449.925H1149V451.925H1133V452.925H1131V451.925H1127V449.925H1131V448.925H1133V449.925ZM1148 446.925H1128V444.925H1148V446.925ZM1155 440.925H1156V442.925H1155V445.925H1153V442.925H1152V440.925H1153V431.925H1155V440.925ZM1128 444.925H1126V432.925H1128V444.925ZM1150 444.925H1148V432.925H1150V444.925ZM1148 432.925H1128V430.925H1148V432.925Z" fill="#232323"/>
</g>
<defs>
<clipPath id="clip0_10001_76556">
<rect width="1360" height="512.925" fill="white"/>
</clipPath>
<clipPath id="clip1_10001_76556">
<rect width="32" height="32" fill="white" transform="translate(465 106.925)"/>
</clipPath>
<clipPath id="clip2_10001_76556">
<rect width="32" height="32" fill="white" transform="translate(993 106.925)"/>
</clipPath>
<clipPath id="clip3_10001_76556">
<rect width="32" height="32" fill="white" transform="translate(201 212.925)"/>
</clipPath>
<clipPath id="clip4_10001_76556">
<rect width="32" height="32" fill="white" transform="translate(333 212.925)"/>
</clipPath>
<clipPath id="clip5_10001_76556">
<rect width="32" height="32" fill="white" transform="translate(465 212.925)"/>
</clipPath>
<clipPath id="clip6_10001_76556">
<rect width="32" height="32" fill="white" transform="translate(597 212.925)"/>
</clipPath>
<clipPath id="clip7_10001_76556">
<rect width="32" height="32" fill="white" transform="translate(729 212.925)"/>
</clipPath>
<clipPath id="clip8_10001_76556">
<rect width="32" height="32" fill="white" transform="translate(861 212.925)"/>
</clipPath>
<clipPath id="clip9_10001_76556">
<rect width="32" height="32" fill="white" transform="translate(993 212.925)"/>
</clipPath>
<clipPath id="clip10_10001_76556">
<rect width="32" height="32" fill="white" transform="translate(1125 212.925)"/>
</clipPath>
<clipPath id="clip11_10001_76556">
<rect width="32" height="32" fill="white" transform="translate(201 318.925)"/>
</clipPath>
<clipPath id="clip12_10001_76556">
<rect width="32" height="32" fill="white" transform="translate(597 318.925)"/>
</clipPath>
<clipPath id="clip13_10001_76556">
<rect width="32" height="32" fill="white" transform="translate(729 318.925)"/>
</clipPath>
<clipPath id="clip14_10001_76556">
<rect width="32" height="32" fill="white" transform="translate(861 318.925)"/>
</clipPath>
<clipPath id="clip15_10001_76556">
<rect width="32" height="32" fill="white" transform="translate(993 318.925)"/>
</clipPath>
<clipPath id="clip16_10001_76556">
<rect width="32" height="32" fill="white" transform="translate(465 424.925)"/>
</clipPath>
<clipPath id="clip17_10001_76556">
<rect width="32" height="32" fill="white" transform="translate(597 424.925)"/>
</clipPath>
</defs>
</svg>
