<svg width="1360" height="301" viewBox="0 0 1360 301" fill="none" xmlns="http://www.w3.org/2000/svg">
<g clip-path="url(#clip0_10001_77020)">
<text fill="#232323" xml:space="preserve" style="white-space: pre" font-family="FK Grotesk Neue" font-size="24" letter-spacing="-0.03em"><tspan x="0.191566" y="23.04">Health Feature Icon</tspan></text>
<rect y="42.3809" width="1360" height="1" fill="#BDBDBD"/>
<rect y="74.9248" width="1360" height="226.001" rx="6" fill="white"/>
<text opacity="0.7" fill="#232323" xml:space="preserve" style="white-space: pre" font-family="FK Grotesk Neue" font-size="10" letter-spacing="-0.03em"><tspan x="204.75" y="160.125">Steps</tspan></text>
<g clip-path="url(#clip1_10001_77020)">
<path d="M212 137.85H209V135.85H212V137.85ZM209 135.85H207V131.85H209V135.85ZM213 127.85H214V135.85H212V127.85H211V124.85H213V127.85ZM207 131.85H205V127.85H207V131.85ZM225 131.85H222V129.85H225V131.85ZM223 121.85H222V129.85H220V121.85H221V118.85H223V121.85ZM227 129.85H225V125.85H227V129.85ZM205 127.85H203V121.85H205V127.85ZM229 125.85H227V121.85H229V125.85ZM215 124.85H213V119.85H215V124.85ZM208 121.85H205V119.85H208V121.85ZM231 121.85H229V115.85H231V121.85ZM204 120.85H202V118.85H204V120.85ZM213 119.85H208V117.85H213V119.85ZM206 118.85H204V116.85H206V118.85ZM221 113.85V118.85H219V113.85H221ZM208 116.85H206V114.85H208V116.85ZM215 116.85H213V113.85H215V116.85ZM211 115.85H209V113.85H211V115.85ZM229 115.85H226V113.85H229V115.85ZM232 114.85H230V112.85H232V114.85ZM226 113.85H221V111.85H226V113.85ZM230 112.85H228V110.85H230V112.85ZM221 110.85H219V107.85H221V110.85ZM228 110.85H226V108.85H228V110.85ZM225 109.85H223V107.85H225V109.85Z" fill="#232323"/>
</g>
<text opacity="0.7" fill="#232323" xml:space="preserve" style="white-space: pre" font-family="FK Grotesk Neue" font-size="10" letter-spacing="-0.03em"><tspan x="336.796" y="160.125">Stand</tspan></text>
<path d="M346 128.85V136.85H344V128.85H346ZM354 136.85H352V128.85H354V136.85ZM348 128.85H346V126.85H348V128.85ZM352 128.85H350V126.85H352V128.85ZM350 126.85H348V116.85H350V126.85ZM345 123.85H343V116.85H345V123.85ZM355 123.85H353V116.85H355V123.85ZM352 114.85H353V116.85H351V114.85H347V116.85H345V114.85H346V112.85H352V114.85ZM350.667 111.517H348V108.85H350.667V111.517Z" fill="#232323"/>
<text opacity="0.7" fill="#232323" xml:space="preserve" style="white-space: pre" font-family="FK Grotesk Neue" font-size="10" letter-spacing="-0.03em"><tspan x="470.729" y="160.125">Walk</tspan></text>
<path d="M475 136.851H473V130.851H475V136.851ZM485 130.851H486V134.851H487V136.851H484V130.851H483V128.851H485V130.851ZM477 130.851H475V128.851H477V130.851ZM479 128.851H477V126.851H479V128.851ZM483 128.851H481V126.851H483V128.851ZM481 126.851H479V116.851H481V126.851ZM475 123.851H473V116.851H475V123.851ZM489 122.851H487V120.851H489V122.851ZM487 118.851V120.851H485V118.851H487ZM485 118.851H483V114.851H485V118.851ZM477 116.851H475V114.851H477V116.851ZM483 114.851H477V112.851H483V114.851ZM482.667 111.518H480V108.851H482.667V111.518Z" fill="#232323"/>
<text opacity="0.7" fill="#232323" xml:space="preserve" style="white-space: pre" font-family="FK Grotesk Neue" font-size="10" letter-spacing="-0.03em"><tspan x="604.601" y="160.125">Run</tspan></text>
<path d="M619 130.85H621V134.85H623V136.85H619V132.85H617V126.85H619V130.85ZM611 128.85H603V130.85H601V126.85H611V128.85ZM615 128.85H613V118.85H615V128.85ZM609 122.85H607V118.85H609V122.85ZM617 114.85H621V120.85H623V122.85H619V116.85H617V118.85H615V114.85H611V118.85H609V114.85H611V112.85H617V114.85ZM621 111.85H618V108.85H621V111.85Z" fill="#232323"/>
<text opacity="0.7" fill="#232323" xml:space="preserve" style="white-space: pre" font-family="FK Grotesk Neue" font-size="10" letter-spacing="-0.03em"><tspan x="734.621" y="160.125">Lift_1</tspan></text>
<path d="M741 132.85V136.85H739V132.85H741ZM753 136.85H751V132.85H753V136.85ZM743 132.85H741V130.85H743V132.85ZM751 132.85H749V130.85H751V132.85ZM741 127.849H745V126.85H747V127.849H751V119.85H753V127.849H756V124.849H758V132.849H756V129.849H749V130.85H747V129.849H745V130.85H743V129.849H736V132.849H734V124.849H736V127.849H739V119.85H741V127.849ZM745 126.849H743V120.849H745V126.849ZM749 126.849H747V120.849H749V126.849ZM743 119.85H741V117.85H743V119.85ZM751 119.85H749V117.85H751V119.85ZM749 117.85H743V115.85H749V117.85ZM747 114.849H745V112.849H747V114.849Z" fill="#232323"/>
<text opacity="0.7" fill="#232323" xml:space="preserve" style="white-space: pre" font-family="FK Grotesk Neue" font-size="10" letter-spacing="-0.03em"><tspan x="864.954" y="160.125">Lift_2</tspan></text>
<path d="M873 132.85V136.85H871V132.85H873ZM885 136.85H883V132.85H885V136.85ZM875 132.85H873V130.85H875V132.85ZM883 132.85H881V130.85H883V132.85ZM877 130.85H875V128.85H877V130.85ZM881 130.85H879V128.85H881V130.85ZM879 128.85H877V126.85H879V128.85ZM868 119.85H873V117.85H875V119.85H881V117.85H883V119.85H888V116.85H890V124.85H888V121.85H881V126.849H879V121.85H877V126.849H875V121.85H868V124.85H866V116.85H868V119.85ZM881 117.85H875V115.85H881V117.85ZM879 114.849H877V112.849H879V114.849Z" fill="#232323"/>
<text opacity="0.7" fill="#232323" xml:space="preserve" style="white-space: pre" font-family="FK Grotesk Neue" font-size="10" letter-spacing="-0.03em"><tspan x="996.939" y="160.125">Lift_3</tspan></text>
<path d="M1005 132.851V136.851H1003V132.851H1005ZM1017 136.851H1015V132.851H1017V136.851ZM1007 132.851H1005V130.851H1007V132.851ZM1015 132.851H1013V130.851H1015V132.851ZM1009 130.851H1007V128.851H1009V130.851ZM1013 130.851H1011V128.851H1013V130.851ZM1011 128.851H1009V126.851H1011V128.851ZM1009 126.85H1007V120.85H1009V126.85ZM1013 126.85H1011V120.85H1013V126.85ZM1000 109.851H1020V106.851H1022V114.851H1020V111.851H1017V119.851H1015V120.851H1013V117.851H1015V111.851H1005V117.851H1007V120.851H1005V119.851H1003V111.851H1000V114.851H998V106.851H1000V109.851ZM1013 117.851H1007V115.851H1013V117.851ZM1011 114.85H1009V112.85H1011V114.85Z" fill="#232323"/>
<text opacity="0.7" fill="#232323" xml:space="preserve" style="white-space: pre" font-family="FK Grotesk Neue" font-size="10" letter-spacing="-0.03em"><tspan x="1129.62" y="160.125">Sleep</tspan></text>
<g clip-path="url(#clip2_10001_77020)">
<path d="M1130 126.833H1141V120.833H1143V126.833H1154V120.833H1156V131.833H1154V128.833H1130V132.833H1128V112.833H1130V126.833ZM1137 123.833H1134V121.833H1137V123.833ZM1134 121.833H1132V118.833H1134V121.833ZM1139 121.833H1137V118.833H1139V121.833ZM1154 120.833H1143V118.833H1154V120.833ZM1137 116.833V118.833H1134V116.833H1137Z" fill="#232323"/>
</g>
<text opacity="0.7" fill="#232323" xml:space="preserve" style="white-space: pre" font-family="FK Grotesk Neue" font-size="10" letter-spacing="-0.03em"><tspan x="195.974" y="266.126">Heart rate</tspan></text>
<path d="M219 239.833H217V237.833H219V239.833ZM217 237.833H215V235.833H217V237.833ZM221 237.833H219V235.833H221V237.833ZM215 235.833H213V233.833H215V235.833ZM223 235.833H221V233.833H223V235.833ZM213 233.833H211V231.833H213V233.833ZM225 233.833H223V231.833H225V233.833ZM211 231.833H209V229.833H211V231.833ZM227 231.833H225V229.833H227V231.833ZM209 229.833H207V221.833H209V229.833ZM229 229.833H227V221.833H229V229.833ZM219 223.833H217V221.833H219V223.833ZM211 221.833H209V219.833H211V221.833ZM215.001 219.833H217V221.833H215V219.833H211V217.833H215.001V219.833ZM221 221.833H219V219.833H221V221.833ZM225.001 219.833H227V221.833H225V219.833H221V217.833H225.001V219.833Z" fill="#232323"/>
<text opacity="0.7" fill="#232323" xml:space="preserve" style="white-space: pre" font-family="FK Grotesk Neue" font-size="10" letter-spacing="-0.03em"><tspan x="339.934" y="266.126">HRV</tspan></text>
<path d="M350.5 239.925H348.5V237.925H350.5V239.925ZM348.5 237.925H346.5V235.925H348.5V237.925ZM352.5 237.925H350.5V235.925H352.5V237.925ZM346.5 235.925H344.5V233.925H346.5V235.925ZM354.5 235.925H352.5V233.925H354.5V235.925ZM344.5 233.925H342.5V231.925H344.5V233.925ZM356.5 233.925H354.5V231.925H356.5V233.925ZM349.5 232.925H347.5V230.925H349.5V232.925ZM342.5 231.925H340.5V229.925H342.5V231.925ZM358.5 231.925H356.5V229.925H358.5V231.925ZM347.499 230.925H345.499V228.925H347.499V230.925ZM351.5 230.925H349.5V227.925H351.5V230.925ZM345.499 228.925H337.499V226.925H345.499V228.925ZM361.501 228.925H357.5V226.925H361.501V228.925ZM353.5 227.925H351.5V224.925H353.5V227.925ZM355.502 224.925H357.5V226.925H355.5V224.925H353.502V222.925H355.502V224.925ZM340.5 225.925H338.5V221.925H340.5V225.925ZM360.5 225.925H358.5V221.925H360.5V225.925ZM350.5 223.925H348.5V221.925H350.5V223.925ZM342.5 221.925H340.5V219.925H342.5V221.925ZM346.501 219.925H348.5V221.925H346.5V219.925H342.5V217.925H346.501V219.925ZM352.5 221.925H350.5V219.925H352.5V221.925ZM356.501 219.925H358.5V221.925H356.5V219.925H352.5V217.925H356.501V219.925Z" fill="#232323"/>
<text opacity="0.7" fill="#232323" xml:space="preserve" style="white-space: pre" font-family="FK Grotesk Neue" font-size="10" letter-spacing="-0.03em"><tspan x="468.82" y="266.126">SpO2</tspan></text>
<path d="M485 241.833H478V239.833H485V241.833ZM478 239.833H476V237.833H478V239.833ZM487 239.833H485V237.833H487V239.833ZM476 237.833H474V235.833H476V237.833ZM489 237.833H487V235.833H489V237.833ZM475 226.833H474V235.833H472V226.833H473V224.833H475V226.833ZM486 234.833H482V232.833H486V234.833ZM482 232.833H480V228.833H482V232.833ZM488 232.833H486V228.833H488V232.833ZM486 228.833H482V226.833H486V228.833ZM477 224.833H475V221.833H477V224.833ZM489 224.833H487V221.833H489V224.833ZM479 221.833H477V218.833H479V221.833ZM487 221.833H485V218.833H487V221.833ZM481 218.833H479V216.833H481V218.833ZM485 218.833H483V216.833H485V218.833ZM483 216.833H481V214.833H483V216.833Z" fill="#232323"/>
<path fill-rule="evenodd" clip-rule="evenodd" d="M489 228.833L489 226.833L493 226.833L493 228.833L489 228.833Z" fill="#232323"/>
<path fill-rule="evenodd" clip-rule="evenodd" d="M489 232.833L489 230.833L491 230.833L491 232.833L489 232.833Z" fill="#232323"/>
<path fill-rule="evenodd" clip-rule="evenodd" d="M491 230.833L491 228.833L493 228.833L493 230.833L491 230.833Z" fill="#232323"/>
<path fill-rule="evenodd" clip-rule="evenodd" d="M489 234.833L489 232.833L493 232.833L493 234.833L489 234.833Z" fill="#232323"/>
<text opacity="0.7" fill="#232323" xml:space="preserve" style="white-space: pre" font-family="FK Grotesk Neue" font-size="10" letter-spacing="-0.03em"><tspan x="586.628" y="266.126">Temperature</tspan></text>
<path d="M618 241.833H610V239.833H618V241.833ZM610 239.833H608V237.833H610V239.833ZM620 239.833H618V237.833H620V239.833ZM615 230.833H617V232.833H619V236.833H617V238.833H611V236.833H609V232.833H611V230.833H613V223.833H615V230.833ZM608 237.833H606V231.833H608V237.833ZM622 237.833H620V231.833H622V237.833ZM610 231.833H608V229.833H610V231.833ZM620 231.833H618V229.833H620V231.833ZM612 229.833H610V217.833H612V229.833ZM618 229.833H616V217.833H618V229.833ZM624 221.833H622V219.833H624V221.833ZM622 219.833H620V217.833H622V219.833ZM626 219.833H624V217.833H626V219.833ZM616 217.833H612V215.833H616V217.833ZM624 217.833H622V215.833H624V217.833Z" fill="#232323"/>
</g>
<defs>
<clipPath id="clip0_10001_77020">
<rect width="1360" height="300.926" fill="white"/>
</clipPath>
<clipPath id="clip1_10001_77020">
<rect width="32" height="32" fill="white" transform="translate(201 106.85)"/>
</clipPath>
<clipPath id="clip2_10001_77020">
<rect width="32" height="32" fill="white" transform="translate(1126 106.833)"/>
</clipPath>
</defs>
</svg>
